<svg width="386" height="528" viewBox="0 0 386 528" fill="none" xmlns="http://www.w3.org/2000/svg">
<path d="M233 191L233 528" stroke="#054A3E" stroke-width="6"/>
<path d="M344.143 179.101L350.247 178.844L348.413 173.338L353.755 175.622L351.771 170.16L357.175 172.294L355.022 166.903L360.497 168.868L358.176 163.548L363.704 165.327L361.196 160.087L366.786 161.671L364.093 156.528L369.736 157.892L366.831 152.864L372.536 153.979L369.409 149.093L375.149 149.942L371.783 145.207L377.568 145.764L373.953 141.223L379.756 141.453L375.876 137.133L381.678 137.001L377.709 132.424L383.663 131.247L379.277 127.06L385.089 125.298L380.287 121.598L385.859 119.199L380.651 116.092L385.868 113.012L380.296 110.622L385.036 106.851L379.18 105.284L383.317 100.858L377.293 100.185L380.721 95.1837L374.662 95.4227L377.311 89.9699L371.349 91.0764L373.209 85.3137L367.451 87.1992L368.567 81.2417L363.075 83.8088L363.509 77.7629L358.326 80.9054L358.211 74.886L353.41 78.5242L352.772 72.5313L348.28 76.559L347.191 70.6282L343 74.9745L341.503 69.1322L337.605 73.7352L335.754 68.008L332.139 72.8235L329.969 67.2024L326.612 72.2127L324.158 66.7067L321.039 71.8674L318.337 66.4765L315.449 71.7701L312.526 66.5031L309.851 71.9028L306.723 66.751L304.252 72.2569L300.939 67.2201L298.662 72.7969L297.271 68.5037L296.881 67.1759L301.647 70.6724L300.885 64.8035L306.254 67.2998L304.509 61.6433L310.187 63.2987L307.662 57.9432L313.518 58.8284L310.32 53.8447L316.238 53.9686L312.42 49.4452L318.302 48.7636L313.881 44.8333L319.586 43.2576L314.572 40.124L319.888 37.5304L314.342 35.4856L318.931 31.7589L313.049 31.1392L316.504 26.3414L310.674 27.3417L312.703 21.7915L307.37 24.2789L307.149 18.0294L301.842 21.4374L300.54 15.2764L295.703 19.3129L293.816 13.3112L289.298 17.7018L287.03 11.8241L282.76 16.4625L280.227 10.691L276.134 15.4888L273.396 9.81467L269.463 14.7452L266.566 9.14192L262.766 14.1787L259.727 8.64619L256.033 13.7627L252.879 8.30097L249.3 13.4883L246.04 8.08853L242.559 13.3378L239.201 8L235.817 13.3201L232.398 8.05311L229.359 13.3466L226.276 8.05311L223.308 13.4086L220.128 8.17704L217.258 13.5945L213.98 8.41605L211.216 13.8866L207.832 8.77898L205.183 14.3026L201.684 9.2747L199.168 14.8603L195.545 9.92089L193.188 15.5773L189.406 10.753L187.253 16.4891L183.275 11.8241L181.388 17.6487L177.172 13.205L175.657 19.1447L171.112 15.0374L170.182 21.0833L165.15 17.5779L165.31 23.6416L159.932 21.3489L162.377 26.7044L156.522 26.1113L160.313 30.6169L154.484 31.4668L159.17 35.0518L153.607 36.9904L158.825 39.7346L153.616 42.4964L159.162 44.497L154.342 47.8873L160.083 49.2328L155.671 53.1365L161.527 53.8447L157.558 58.2087L163.458 58.2707L160.021 63.0597L165.877 62.4046L163.113 67.6096L168.8 66.0694L167.002 71.6815L172.228 68.9817L171.945 70.0085L169.509 74.3814L167.533 68.5833L163.671 73.328L161.376 67.6539L157.788 72.611L155.148 67.0873L151.888 72.2658L148.894 66.928L145.997 72.3189L142.631 67.2113L140.15 72.8057L136.385 67.9814L134.374 73.7529L130.211 69.2649L128.714 75.1958L124.16 71.0973L123.239 77.1433L118.305 73.5228L118.003 79.6307L112.715 76.5413L113.078 82.6492L107.488 80.1618L108.533 86.19L103.253 83.8177L105.406 89.182L99.9401 87.2788L102.562 92.4307L96.9547 91.0321L100.029 95.9273L94.3148 95.0421L97.8229 99.6363L92.0558 99.2734L95.9625 103.531L90.1777 103.691L94.4565 107.577L88.716 108.249L93.3137 111.755L87.644 112.914L92.5341 116.013L86.9796 117.65L92.1089 120.323L86.7139 122.413L92.038 124.67L86.8202 127.175L92.3038 129.016L87.2986 131.911L92.9416 133.593L88.2287 137.133L93.9958 138.364L89.5664 142.25L95.4044 143.056L91.2762 147.26L97.1585 147.641L93.3226 152.12L99.2137 152.111L95.679 156.82L101.561 156.44L98.3278 161.362L104.175 160.636L101.225 165.734L107.027 164.681L104.361 169.93L110.101 168.576L107.709 173.958L113.37 172.311L111.244 177.809L116.816 175.897L114.947 181.482L121.246 181.854L115.204 179.791L115.071 185.696L110.305 182.217L110.872 188.086L105.707 185.227L107.018 190.98L101.526 188.803L103.572 194.344L97.8494 192.884L100.569 198.124L94.7134 197.38L98.0443 202.249L92.1443 202.196L96.0068 206.666L90.1245 207.25L94.4299 211.287L88.6451 212.455L93.3137 216.067L87.6529 217.758L92.6316 220.953L87.1302 223.113L92.3481 225.884L87.0328 228.478L92.419 230.337L87.2454 232.718L92.7202 234.267L87.6972 236.94L93.2517 238.179L88.3793 241.127L93.9958 242.066L89.2918 245.27L94.9526 245.907L90.4169 249.36L96.1131 249.687L91.7723 253.378L97.4685 253.396L93.3491 257.326L99.0365 257.025L95.1386 261.177L100.799 260.549L97.1585 264.922L102.766 263.957L99.3997 268.551L104.945 267.232L101.889 272.03L107.311 270.321L105.406 276.261L111.563 275.19L109.871 281.192L115.975 279.908L114.504 285.972L120.564 284.458L119.323 290.575L125.321 288.831L124.311 294.992L130.237 293.009L129.476 299.205L135.314 296.992L134.809 303.207L140.549 300.755L140.301 306.995L145.935 304.295L145.953 310.536L151.463 307.606L151.756 313.838L157.133 310.669L157.691 316.883L162.927 313.484L163.75 319.671L169.225 316.201L170.749 322.486L176.038 318.751L177.871 324.965L182.965 320.964L185.1 327.08L189.999 322.831L192.435 328.833L197.113 324.363L199.833 330.232L204.297 325.54L207.292 331.285L211.535 326.39L214.795 331.976L218.799 326.895L222.307 332.33L226.081 327.072L229.837 332.347L233.372 326.93L237.35 332.038L240.654 326.47L244.844 331.4L247.901 325.7L251.285 330.604L253.163 324.956L256.68 329.754L258.39 324.053L262.057 328.754L263.599 323L267.39 327.594L268.772 321.796L272.697 326.284L273.91 320.45L277.959 324.814L279.004 318.954L283.177 323.212L284.062 317.326L288.35 321.459L289.077 315.546L293.471 319.565L294.029 313.634L298.538 317.538L298.936 311.589L303.543 315.36L303.782 309.412L308.495 313.059L308.575 307.093L313.412 310.589L313.323 304.632L318.258 307.995L318.001 302.038L323.024 305.26L322.598 299.312L327.719 302.383L327.116 296.452L332.317 299.374L331.546 293.46L336.835 296.222L335.878 290.336L341.246 292.929L340.104 287.078L345.552 289.504L344.214 283.688L349.751 285.927L348.209 280.165L353.817 282.201L352.072 276.5L357.75 278.323L355.855 272.623L361.569 274.553L359.752 268.861L365.502 270.507L363.34 264.939L369.178 266.223L366.662 260.805L372.571 261.708L369.71 256.468L375.672 256.981L372.456 251.936L378.436 252.033L374.866 247.244L380.837 246.89L376.912 242.384L382.839 241.57L378.56 237.392L384.389 236.073L379.756 232.302L385.434 230.443L380.456 227.141L385.913 224.716L380.606 221.963L385.762 218.944L380.199 217.032L385.018 213.65L379.269 212.385L383.645 208.463L377.789 207.906L381.66 203.471L375.778 203.639L379.074 198.77L373.253 199.647L375.938 194.415L370.268 195.973L372.341 190.467L366.866 192.636L368.354 186.944L363.128 189.644L364.067 183.837L359.106 186.997L359.549 181.128L354.854 184.678L354.862 178.791L350.424 182.66L350.034 176.791L344.143 179.101Z" fill="#00AA3D"/>
<path d="M210.582 205.384C209.915 207.18 209.985 208.841 212.211 209.419C213.776 209.848 215.321 208.63 216.261 206.94C217.023 205.581 216.019 203.717 214.633 202.905C213.048 201.934 211.268 203.54 210.582 205.384Z" fill="black"/>
<path d="M190.29 200.835C189.621 202.636 189.69 204.302 191.92 204.871C193.486 205.3 195.02 204.084 195.971 202.392C196.727 201.026 195.732 199.159 194.345 198.346C192.747 197.412 190.964 199.024 190.29 200.835Z" fill="black"/>
<path d="M212.894 212.9L191.803 210.126C191.803 210.126 192.095 214.465 192.801 216.006C193.507 217.547 193.393 218.68 195.977 219.982C198.08 221.11 200.419 221.761 202.884 221.903C205.616 222.159 209.463 219.89 209.88 219.009C210.298 218.128 211.83 215.876 212.028 215.259C212.227 214.642 212.894 212.9 212.894 212.9Z" fill="black"/>
<path d="M109 267V528" stroke="#054A3E" stroke-width="6"/>
<path d="M2.50295 400.889L4.52059 405L6.97504 400.841L9.42247 405L11.87 400.841L14.3175 405L16.7719 400.841L19.2263 405L21.6808 400.841L23.948 405L26.2083 400.841L28.4755 405L30.7357 400.841L33.003 405L35.2702 400.841L37.5374 405L39.8047 400.841L42.065 405L44.3322 400.841L46.5924 405L48.8596 400.841L51.1269 405L53.3872 400.841L55.6614 405L57.9286 400.841L60.1889 405L62.456 400.841L64.7163 405L66.9836 400.841L69.2439 405L71.5111 400.841L73.7783 405L76.0456 400.841L78.3127 405L80.58 400.841L82.8403 405L85.1005 400.841L87.3678 405L89.635 400.841L91.9023 405L94.1695 400.841L96.4366 405L98.7039 400.841L100.964 405L103.224 400.841L105.492 405L107.759 400.841L110.026 405L112.293 400.841L114.561 405L116.821 400.841L119.081 405L121.348 400.841L123.616 405L125.876 400.841L128.15 405L130.417 400.841L132.678 405L134.945 400.841L137.205 405L139.472 400.841L141.733 405L144 400.841L146.267 405L148.541 400.841L150.801 405L153.069 400.841L155.329 405L157.596 400.841L159.857 405L162.124 400.841L164.391 405L166.658 400.841L168.925 405L171.186 400.841L173.453 405L175.713 400.841L177.98 405L180.248 400.841L182.515 405L184.782 400.841L187.049 405L189.31 400.841L191.577 405L193.837 400.841L196.104 405L198.365 400.841L200.639 405L202.906 400.841L204.535 405L206.158 400.841L207.787 405L209.416 400.841L211.046 405L212.675 400.841L214.304 405L215.261 400.959L218 401.208L213.805 399.614L217.896 397.77L213.653 396.314L217.681 394.339L213.396 393.015L217.362 390.921L213.036 389.729L216.911 387.365L212.523 386.173L216.322 383.671L211.899 382.638L215.601 380.011L211.143 379.124L214.755 376.372L210.269 375.644L213.708 372.483L209.111 371.658L212.419 368.365L207.801 367.721L210.97 364.303L206.331 363.846L209.361 360.297L204.702 360.026L207.676 356.526L203.086 356.595L205.929 352.991L201.346 353.219L204.05 349.518L199.481 349.913L202.053 346.114L197.498 346.676L199.599 342.281L194.731 342.558L196.624 338.066L191.778 338.572L193.449 333.997L188.637 334.732L190.093 330.088L185.323 331.045L186.682 326.456L182.071 327.745L183.229 323.108L178.688 324.598L179.637 319.912L175.165 321.596L175.907 316.876L171.512 318.754L172.198 314.11L168.024 316.266L168.516 311.594L164.433 313.923L164.731 309.237L160.751 311.732L160.855 307.033L157.36 305.84L159.746 309.923L161.562 305.764L163.379 309.923L165.195 305.764L167.012 309.923L168.828 305.764L170.652 309.923L172.468 305.764L174.534 309.923L176.601 305.764L178.667 309.923L180.733 305.764L182.799 309.923L184.872 305.764L186.938 309.923L188.207 305.924L191.05 305.196L186.772 302.811L190.717 299.907L186.294 297.8L190.044 294.653L185.496 292.836L189.032 289.454L184.38 287.929L187.673 284.262L182.91 282.986L185.947 279.098L181.107 278.141L183.881 274.065L178.993 273.434L181.489 269.185L176.566 268.873L178.57 264.125L173.425 263.848L175.061 258.968L169.91 259.078L171.172 254.081L166.048 254.58L166.935 249.506L161.853 250.393L162.616 245.485L157.867 246.934L158.303 241.992L153.658 243.745L153.762 238.789L149.248 240.855L149.013 235.898L144.797 234.505L147.39 238.498L149.172 234.339L150.954 238.498L152.743 234.339L154.525 238.498L156.307 234.339L158.095 238.498L159.128 234.484L161.923 234.269L157.659 232.412L161.624 229.979L157.243 228.426L161.014 225.716L156.535 224.496L160.092 221.508L155.523 220.648L158.907 217.612L154.372 217.321L157.52 214.042L152.972 214.105L155.849 210.583L151.321 211.006L153.915 207.27L149.436 208.06L151.183 203.444L146.281 204.074L147.473 199.285L142.682 200.484L143.313 195.583L138.689 197.323L138.772 192.387L134.362 194.62L134.113 189.802L130.147 192.547L129.447 187.771L125.751 190.876L124.614 186.183L121.21 189.601L119.67 185.026L116.571 188.728L114.061 184.243L110.782 188.194L107.814 184L104.958 188.27L101.581 184.395L99.1754 188.935L95.4105 185.442L93.5108 190.211L89.4409 187.126L88.1096 192.055L83.7277 189.441L82.9651 194.488L78.3059 192.394L78.1533 197.496L73.2722 195.992L73.7575 201.073L68.7724 200.144L69.9441 205.073L64.8897 204.775L66.6716 209.516L61.6241 209.876L63.9953 214.347L59.024 215.332L61.9292 219.484L57.2976 220.392L60.7574 223.608L56.216 224.912L59.9324 227.823L55.5158 229.493L59.447 232.107L55.1691 234.103L58.0118 234.505L58.9825 238.498L60.7643 234.339L62.5462 238.498L64.3281 234.339L66.1169 238.498L67.8988 234.339L69.6876 238.498L72.045 234.422L68.5852 235.614L68.7932 240.286L64.8065 237.839L65.2572 242.498L61.1457 240.265L61.8528 244.889L57.6235 242.879L58.5733 247.461L53.6645 246.192L54.3648 251.204L49.3797 250.289L50.4335 255.245L45.3999 254.684L46.8005 259.55L41.739 259.356L43.4863 264.104L38.4041 264.298L40.4772 268.942L35.4227 269.504L37.8287 273.989L32.8296 274.918L35.5476 279.208L30.6318 280.498L33.6617 284.581L28.8222 286.334L32.1294 290.279L27.4355 292.393L31.0339 296.074L26.5133 298.541L30.3753 301.945L26.0488 304.738L28.9955 305.979L30.1187 309.923L32.1641 305.764L34.2024 309.923L36.2478 305.764L38.2862 309.923L40.3316 305.764L42.3839 309.923L44.4292 305.764L46.3845 309.923L48.3396 305.764L50.2949 309.923L52.2501 305.764L54.2054 309.923L56.1605 305.764L58.1158 309.923L60.7089 305.861L56.8539 307.199L56.6875 312.058L52.3958 309.764L52.4651 314.63L48.0692 312.544L48.3605 317.396L43.8746 315.517L44.4015 320.356L39.8393 318.685L40.5951 323.482L35.9566 322.026L36.9412 326.781L32.2403 325.541L33.4398 330.247L28.6904 329.228L30.1118 333.873L25.2237 333.193L26.7768 337.872L21.861 337.429L23.6498 342.031L18.7132 341.83L20.7239 346.336L15.7943 346.385L18.0199 350.786L13.014 351.23L15.3853 355.666L10.407 356.373L13.014 360.678L8.07743 361.655L10.9132 365.808L6.03896 367.041L9.08968 371.041L4.36114 372.282L7.67532 375.866L3.01601 377.328L6.50353 380.752L1.91363 382.437L5.5606 385.688L1.06083 387.594L4.86032 390.665L0.554706 391.774L4.54835 393.722L0.277353 394.949L4.32643 396.786L0.0970778 398.137L4.19474 399.85L0 401.326L2.50295 400.889Z" fill="#096343"/>
<path d="M89.5132 230.701C89.364 232.407 88.5577 233.763 86.1317 233.516C84.4153 233.366 83.4647 231.861 83.2951 230.157C83.1619 228.788 84.9635 227.559 86.672 227.336C88.6412 227.081 89.6623 228.995 89.5132 230.701Z" fill="black"/>
<path d="M108.581 234.463C108.431 236.171 107.63 237.529 105.202 237.282C103.484 237.131 102.527 235.624 102.363 233.92C102.229 232.555 104.032 231.325 105.742 231.102C107.713 230.847 108.73 232.756 108.581 234.463Z" fill="black"/>
<path d="M87.8867 239.508C87.8867 239.508 92.3362 245.158 99.7766 241.423" stroke="black" stroke-width="5" stroke-linecap="round" stroke-linejoin="round"/>
<path d="M323 297L323 528" stroke="#054A3E" stroke-width="6"/>
<path d="M368.807 264.661L372.108 262.678L368.713 260.894L371.898 258.751L368.408 257.15L371.477 254.84L367.91 253.422L370.856 250.963L367.228 249.716L370.064 247.13L366.386 246.033L369.117 243.336L365.4 242.383L368.037 239.591L364.287 238.755L366.846 235.891L363.074 235.138L365.561 232.202L361.778 231.527L364.215 228.552L360.421 227.926L362.825 224.93L359.031 224.326L361.423 221.318L357.624 220.726L360.022 217.724L356.228 217.109L358.654 214.129L354.865 213.47L357.336 210.528L353.558 209.803L355.868 206.236L351.902 204.696L354.361 201.229L350.473 199.506L353.109 196.171L349.332 194.216L352.184 191.065L348.556 188.849L351.642 185.924L348.202 183.421L351.52 180.762L348.313 177.976L351.852 175.622L348.905 172.559L352.65 170.471L349.642 167.474L353.154 165.159L349.958 162.417L353.326 159.891L349.98 157.338L353.209 154.635L349.731 152.259L352.81 149.39L349.216 147.202L352.135 144.172L348.418 142.189L351.154 138.987L347.316 137.254L349.814 133.864L345.892 132.551L348.025 129.267L344.159 128.314L346.778 125.312L343.078 123.827L346.031 121.141L342.48 119.324L345.615 116.859L342.176 114.843L345.405 112.511L342.021 110.401L345.294 108.119L341.921 105.992L345.172 103.682L341.755 101.627L344.934 99.2177L341.433 97.401L344.463 94.8697L340.824 93.3354L343.577 90.505L339.777 89.4581L342.037 86.2289L338.11 85.9409L339.567 82.2796L335.701 83.0219L336.088 79.1003L332.571 80.8838L331.929 76.9955L328.921 79.5434L327.52 75.86L325.082 78.8843L323.122 75.7104L321.754 79.2498L319.261 76.3862L318.452 80.0918L315.483 77.7211L315.461 81.5153L312.033 79.8868L312.93 83.5702L309.213 82.8391L310.964 86.2068L307.169 86.3065L309.546 89.2698L305.823 90.0009L308.587 92.6042L304.97 93.7619L307.878 96.8415L304.311 99.1125L307.446 101.96L304.012 104.424L307.247 107.155L303.846 109.681L307.086 112.412L303.658 114.887L306.809 117.712L303.265 120.028L306.222 123.057L302.483 125.035L305.054 128.402L301.065 129.787L303.01 133.454L299.337 134.174L302.057 136.888L298.379 138.007L301.248 140.56L297.637 141.873L300.634 144.283L297.089 145.762L300.185 148.038L296.706 149.661L299.88 151.821L296.457 153.555L299.697 155.621L296.324 157.449L299.609 159.437L296.274 161.337L299.598 163.796L296.296 166.289L299.659 168.704L296.38 171.224L299.747 173.628L296.468 176.148L299.825 178.569L296.518 181.056L299.841 183.526L296.49 185.952L299.747 188.5L296.33 190.826L299.504 193.48L295.997 195.673L299.049 198.465L295.516 199.932L298.523 202.292L294.928 203.599L297.82 206.103L294.164 207.227L296.917 209.88L293.2 210.794L295.792 213.608L292.032 214.289L294.435 217.264L290.636 217.696L292.835 220.825L289.013 220.992L290.99 224.271L287.135 224.215L288.935 227.887L284.914 228.469L286.902 232.008L282.92 232.795L285.097 236.224L281.164 237.232L283.546 240.527L279.68 241.779L282.266 244.914L278.489 246.415L281.286 249.368L277.625 251.129L280.621 253.871L277.093 255.892L280.278 258.413L276.91 260.634L280.261 262.894L277.043 265.336L280.533 267.364L277.481 270.006L281.087 271.822L278.184 274.636L281.884 276.259L279.12 279.206L282.887 280.663L280.25 283.72L284.067 285.038L281.53 288.179L285.385 289.392L282.92 292.593L286.637 293.247L284.05 295.989L287.767 296.609L285.202 299.373L288.924 299.971L286.365 302.741L290.087 303.339L287.523 306.103L291.239 306.718L288.658 309.465L292.369 310.119L289.755 312.838L293.461 313.542L290.802 316.223L294.496 316.993L291.815 319.734L295.521 320.709L292.774 323.379L296.452 324.454L293.632 327.04L297.271 328.231L294.363 330.724L297.964 332.042L294.967 334.429L298.518 335.875L295.427 338.146L298.916 339.735L295.737 341.879L299.155 343.613L295.887 345.585L299.188 347.645L295.881 349.728L299.26 351.689L296.036 353.899L299.492 355.726L296.368 358.075L299.908 359.737L296.9 362.229L300.512 363.714L297.642 366.361L301.331 367.641L298.623 370.454L302.389 371.496L299.869 374.487L303.696 375.257L301.442 378.48L305.347 378.984L303.392 382.402L307.325 382.518L305.746 386.124L309.662 385.786L308.549 389.564L312.387 388.689L311.85 392.588L315.489 391.098L315.666 395.031L318.94 392.854L319.942 396.659L322.645 393.812L324.506 397.274L326.406 393.862L328.993 396.787L330.051 393.026L333.225 395.297L333.452 391.392L337.019 392.992L336.531 389.11L340.315 390.09L339.229 386.329L343.117 386.761L341.561 383.177L345.471 383.15L343.538 379.749L347.427 379.333L345.189 376.121L349.027 375.39L346.546 372.371L350.323 371.357L347.643 368.516L351.343 367.27L348.501 364.594L352.129 363.138L349.144 360.612L352.7 358.978L349.598 356.596L353.076 354.807L349.88 352.558L353.276 350.631L349.997 348.498L353.326 346.393L349.902 344.682L353.181 342.76L349.875 340.893L353.27 339.182L350.08 337.11L353.569 335.603L350.506 333.355L354.073 332.047L351.138 329.638L354.766 328.514L351.946 325.966L355.619 325.002L352.905 322.343L356.616 321.518L353.996 318.765L357.784 317.895L355.303 314.904L359.108 314.129L356.693 311.088L360.515 310.379L358.139 307.305L361.966 306.635L359.607 303.544L363.434 302.879L361.063 299.8L364.885 299.096L362.476 296.05L366.287 295.285L363.822 292.283L367.616 291.436L364.996 288.722L368.696 287.98L365.993 285.349L369.665 284.484L366.868 281.953L370.502 280.945L367.599 278.536L371.183 277.361L368.175 275.09L371.698 273.744L368.574 271.634L372.025 270.1L368.79 268.161L372.147 266.444L368.807 264.661Z" fill="#BBE603"/>
<path d="M319.212 278.866C319.212 279.876 318.81 280.717 317.371 280.696C316.354 280.696 315.715 279.861 315.531 278.866C315.379 278.071 316.378 277.254 317.371 277.037C318.507 276.785 319.212 277.854 319.212 278.866Z" fill="black" stroke="black" stroke-width="1.22" stroke-miterlimit="10"/>
<path d="M330.53 279.903C330.53 280.851 330.152 281.636 328.806 281.619C327.854 281.619 327.255 280.834 327.079 279.903C326.94 279.158 327.876 278.395 328.806 278.19C329.879 277.953 330.53 278.958 330.53 279.903Z" fill="black" stroke="black" stroke-width="1.22" stroke-miterlimit="10"/>
<path d="M325.218 286.724C325.218 287.987 324.356 289.03 321.308 289.01C319.148 288.993 317.792 287.967 317.396 286.724C317.08 285.729 319.2 284.706 321.308 284.438C323.739 284.121 325.218 285.461 325.218 286.724Z" fill="black" stroke="black" stroke-width="1.22" stroke-miterlimit="10"/>
</svg>
