<svg width="441" height="485" viewBox="0 0 441 485" fill="none" xmlns="http://www.w3.org/2000/svg">
<path d="M213 127L213 485" stroke="#054A3E" stroke-width="6"/>
<path d="M285 125.469L281.908 127.193L284.938 129.021L281.795 130.643L284.764 132.563L281.569 134.087L284.482 136.1L281.246 137.527L284.097 139.621L280.815 140.951L283.605 143.132L280.292 144.37L283.015 146.628L279.662 147.763L282.318 150.103L278.933 151.14L281.518 153.563L278.103 154.492L280.61 156.992L277.169 157.814L279.595 160.396L276.128 161.104L278.467 163.763L274.979 164.359L277.226 167.095L273.718 167.562L275.862 170.38L272.338 170.719L274.379 173.614L270.846 173.819L272.764 176.792L269.226 176.848L271.021 179.902L267.482 179.805L269.138 182.936L265.61 182.679L267.113 185.883L263.6 185.451L264.944 188.732L261.462 188.116L262.631 191.463L259.185 190.662L260.164 194.065L256.769 193.074L257.554 196.529L254.221 195.333L254.795 198.829L251.544 197.438L251.897 200.959L248.744 199.363L248.872 202.9L245.821 201.103L245.723 204.645L242.8 202.653L242.472 206.18L239.677 203.998L239.123 207.499L236.477 205.143L235.703 208.603L233.21 206.087L232.221 209.486L229.887 206.827L228.697 210.163L226.523 207.371L225.144 210.636L223.128 207.725L221.574 210.908L219.708 207.894L217.995 211L216.287 207.894L214.426 210.908L212.882 207.72L210.856 210.625L209.497 207.355L207.313 210.143L206.138 206.801L203.795 209.455L202.826 206.046L200.323 208.546L199.569 205.086L196.913 207.427L196.385 203.926L193.579 206.087L193.277 202.556L190.344 204.532L190.272 200.99L187.21 202.771L187.364 199.234L184.2 200.815L184.579 197.294L181.323 198.675L181.918 195.184L178.579 196.36L179.379 192.91L175.985 193.896L176.98 190.498L173.528 191.293L174.708 187.951L171.226 188.562L172.574 185.287L169.062 185.724L170.569 182.52L167.041 182.787L168.692 179.656L165.159 179.759L166.949 176.704L163.41 176.663L165.323 173.686L161.79 173.496L163.821 170.596L160.297 170.272L162.431 167.449L158.923 166.997L161.159 164.256L157.667 163.681L159.995 161.017L156.528 160.324L158.938 157.737L155.497 156.936L157.99 154.426L154.569 153.512L157.144 151.084L153.754 150.067L156.4 147.716L153.041 146.597L155.754 144.328L152.431 143.112L155.21 140.92L151.928 139.606L154.774 137.501L151.528 136.084L154.436 134.067L151.236 132.553L154.205 130.628L151.056 129.016L154.087 127.188L151 125.469L154.113 123.359L151.159 121.033L154.4 119.119L151.564 116.639L154.887 114.873L152.149 112.286L155.533 110.633L152.877 107.959L156.303 106.403L153.718 103.662L157.18 102.189L154.651 99.3913L158.149 97.99L155.677 95.1461L159.2 93.8114L156.785 90.9214L160.328 89.6483L157.964 86.7172L161.528 85.5057L159.215 82.5335L162.8 81.3785L160.533 78.3704L164.133 77.2719L161.913 74.2278L165.533 73.1909L163.364 70.1109L166.995 69.1253L164.872 66.0145L168.523 65.0905L166.451 61.9438L170.113 61.0762L168.092 57.8936L171.769 57.0876L169.805 53.8742L173.497 53.1299L171.59 49.8805L175.292 49.208L173.446 45.9227L177.164 45.3221L175.385 42.0008L179.113 41.4772L177.405 38.1149L181.144 37.6786L179.513 34.2803L183.262 33.9312L181.723 30.4971L185.482 30.2507L184.046 26.7703L187.81 26.6419L186.487 23.1102L190.256 23.1205L189.072 19.5426L192.831 19.7068L191.81 16.0827L195.559 16.4318L194.733 12.7563L198.451 13.3261L197.867 9.60444L201.533 10.4463L201.256 6.68872L204.831 7.86939L204.949 4.10152L208.354 5.69285L208.979 1.98147L212.097 4.081L213.359 0.528731L216.01 3.19293L217.995 0L219.985 3.19293L222.636 0.53387L223.897 4.081L227.02 1.98147L227.641 5.69799L231.051 4.10152L231.164 7.86939L234.738 6.69385L234.462 10.4463L238.128 9.60444L237.544 13.3261L241.262 12.7563L240.436 16.4318L244.185 16.0776L243.159 19.7068L246.918 19.5374L245.733 23.1153L249.497 23.1051L248.179 26.6317L251.938 26.7549L250.503 30.2353L254.256 30.4714L252.718 33.9107L256.467 34.2547L254.841 37.6529L258.579 38.0892L256.872 41.4464L260.595 41.97L258.815 45.2913L262.533 45.8919L260.687 49.1772L264.39 49.8445L262.482 53.0939L266.174 53.8331L264.205 57.0517L267.882 57.8525L265.867 61.0352L269.528 61.9027L267.456 65.0494L271.108 65.9734L268.985 69.0894L272.621 70.0698L270.446 73.1498L274.067 74.1919L271.851 77.2359L275.451 78.3345L273.185 81.3477L276.769 82.5027L274.456 85.4749L278.02 86.6864L275.661 89.6226L279.205 90.8957L276.79 93.7909L280.308 95.1256L277.841 97.9746L281.338 99.3759L278.815 102.174L282.277 103.652L279.692 106.393L283.118 107.959L280.461 110.628L283.846 112.281L281.108 114.868L284.431 116.639L281.595 119.119L284.836 121.033L281.877 123.364L285 125.469Z" fill="#BBE603"/>
<path d="M221.944 155.792C221.944 156.871 221.51 157.766 219.972 157.749C218.885 157.749 218.197 156.854 218.001 155.792C217.839 154.937 218.908 154.07 219.972 153.835C221.198 153.542 221.944 154.684 221.944 155.792Z" fill="black"/>
<path d="M234.615 156.98C234.615 158.062 234.181 158.96 232.643 158.937C231.555 158.937 230.873 158.045 230.671 156.98C230.514 156.122 231.579 155.253 232.643 155.017C233.869 154.746 234.615 155.892 234.615 156.98Z" fill="black"/>
<path d="M218.777 160.522L232.239 162.13C232.239 162.13 231.092 164.343 230.318 165.041C229.543 165.74 229.36 166.346 227.496 166.649C225.963 166.931 224.393 166.931 222.861 166.649C221.14 166.387 219.305 164.651 219.247 164.133C219.19 163.615 218.76 162.223 218.777 161.873C218.794 161.524 218.777 160.522 218.777 160.522Z" fill="black"/>
<path d="M119 302L119 485" stroke="#054A3E" stroke-width="6"/>
<path d="M70.4113 196.26L67.0701 192.494L64.4439 196.409L62.9362 191.942L60.4799 195.963L58.7952 191.56L56.4946 195.666L54.6471 191.333L52.5023 195.531L50.4778 191.277L48.5099 195.552L46.3156 191.39L44.5388 195.751L42.1391 191.695L40.5819 196.14L37.9769 192.211L36.6603 196.742L33.8076 192.976L32.7529 197.577L29.6595 194.009L28.9375 198.674L25.5751 195.361L25.2354 200.069L21.604 197.053L21.7031 201.774L17.7886 199.127L18.3762 203.813L14.1927 201.619L15.3253 206.206L10.9082 204.528L12.5929 208.938L8.00598 207.827L10.2358 211.989L5.8187 211.012L8.72801 214.481L4.24018 213.914L7.44674 217.1L2.93057 216.944L6.39911 219.839L1.88294 220.059L5.57797 222.671L1.09014 223.237L4.96213 225.566L0.523899 226.436L4.54452 228.518L0.162881 229.664L4.30387 231.498L0 232.899L4.22601 234.513L0.0283422 237.012L4.42415 239.15L0.460129 242.002L5.01881 243.751L1.3167 246.936L6.01684 248.281L2.60498 251.778L7.39723 252.712L4.28969 256.485L9.14563 257.023L6.3496 261.03L11.2339 261.193L8.75636 265.397L13.6335 265.192L11.4604 269.567L16.3163 269.036L14.5183 273.651L19.4167 272.894L17.9161 277.615L22.7578 276.567L21.5403 281.367L26.3113 280.043L25.3628 284.906L30.0559 283.335L29.3481 288.24L33.9634 286.449L33.482 291.376L38.0123 289.38L37.7433 294.328L42.1887 292.147L42.1109 297.102L46.4783 294.759L46.5775 299.707L50.8459 297.202L51.122 302.142L55.3054 299.488L55.7513 304.422L59.8428 301.633L60.4445 306.545L64.4439 303.629L65.2014 308.52L69.1087 305.484L70.0148 310.354L73.8302 307.197L74.8778 312.038L78.6012 308.768L79.7904 313.574L83.4147 310.198L84.5544 314.912L87.8813 311.387L89.1555 316.066L92.3833 312.442L93.7919 317.085L96.9065 313.369L98.4568 317.97L101.458 314.162L103.15 318.706L106.024 314.799L107.871 319.287L110.611 315.28L112.614 319.697L115.191 315.585L117.385 319.91L119.771 315.698L121.717 319.91L123.423 315.592L125.589 319.697L127.069 315.295L129.44 319.294L130.721 314.827L133.255 318.721L134.36 314.204L137.035 318.006L137.977 313.454L140.787 317.156L141.58 312.576L144.503 316.186L145.155 311.585L148.184 315.111L148.708 310.495L152.41 313.737L153.352 308.91L157.16 312.024L157.939 307.161L161.846 310.163L162.476 305.278L166.468 308.159L166.964 303.261L171.034 306.029L171.388 301.116L175.536 303.763L175.755 298.844L179.974 301.378L180.059 296.458L184.349 298.872L184.299 293.952L188.299 296.465L187.782 291.765L191.845 294.186L191.215 289.5L195.335 291.829L194.599 287.157L198.768 289.38L197.919 284.729L202.145 286.853L201.168 282.223L205.45 284.226L204.353 279.632L208.685 281.522L207.461 276.95L211.849 278.712L210.483 274.189L214.667 276.065L212.918 271.825L217.151 273.587L215.29 269.397L219.572 271.032L217.576 266.905L221.908 268.406L219.785 264.343L224.166 265.695L221.901 261.709L226.325 262.898L223.904 259.005L228.378 260.01L225.794 256.223L230.303 257.037L227.55 253.378L231.995 254.142L228.973 250.794L233.453 251.353L230.268 248.154L234.77 248.479L231.415 245.457L235.924 245.52L232.392 242.71L236.901 242.484L233.192 239.921L237.672 239.383L233.779 237.097L238.21 236.219L234.147 234.244L238.486 233.005L234.275 231.384L238.486 229.105L234.126 227.123L238.154 224.532L233.645 222.933L237.417 219.981L232.774 218.841L236.186 215.486L231.436 214.927L234.374 211.154L229.596 211.274L231.924 207.098L227.224 207.982L228.845 203.48L224.35 205.116L225.235 200.415L221.045 202.709L221.724 198.193L218.256 201.173L218.496 196.607L215.311 199.884L215.176 195.312L212.246 198.83L211.793 194.278L209.089 197.973L208.374 193.45L205.875 197.287L204.934 192.806L202.605 196.749L201.486 192.31L199.306 196.331L198.039 191.935L195.979 196.027L194.443 191.659L192.348 195.786L190.713 191.461L188.709 195.63L186.989 191.333L185.057 195.538L183.273 191.263L181.383 195.496L179.564 191.241L177.709 195.489L175.862 191.241L174.028 195.496L172.16 191.256L170.333 195.51L168.472 191.27L164.508 193.273L169.321 194.391L168.769 189.783L172.648 192.332L171.699 187.787L175.784 189.981L174.432 185.55L178.707 187.334L176.881 183.073L181.348 184.326L178.969 180.347L183.57 180.935L180.59 177.389L185.22 177.155L181.61 174.246L186.097 173.078L181.956 170.989L186.104 168.356L181.588 166.438L185.17 163.083L180.35 162.177L182.997 158.05L178.12 158.474L179.5 153.774L174.927 155.544L175.019 150.645L171.006 153.463L170.064 148.649L166.624 152.146L164.953 147.531L162.002 151.452L159.821 147.05L157.259 151.247L154.697 147L152.134 151.247L149.565 147L147.002 151.247L144.433 147L141.87 151.247L139.308 147L136.745 151.247L134.176 147L131.613 151.247L129.044 147L126.481 151.247L123.912 147L121.342 151.247L118.772 147L116.203 151.247L113.938 147L111.673 151.247L109.415 147L107.149 151.247L104.884 147L102.619 151.247L100.354 147L98.0887 151.247L95.8236 147L93.5584 151.247L91.2932 147L89.0351 151.247L86.77 147L84.5048 151.247L82.2467 147L79.9886 151.247L77.5181 147.042L75.4016 151.431L72.5419 147.481L70.9422 152.082L67.5585 148.571L66.7657 153.371L62.738 150.631L63.1415 155.473L58.5191 153.98L60.3595 158.474L55.5036 158.446L58.5475 162.247L53.826 163.422L57.6059 166.502L53.1535 168.477L57.3299 170.989L53.1465 172.922L57.5564 174.274L53.6703 176.759L58.2218 177.495L54.7179 180.482L59.319 180.595L56.2398 184.021L60.8268 183.547L58.1935 187.327L62.6884 186.308L60.5012 190.364L64.8545 188.863L63.1131 193.124L67.2825 191.178L66.0013 195.602L70.4113 196.26Z" fill="#02BA4C"/>
<path d="M114.545 229.848C114.545 230.97 114.094 231.901 112.494 231.884C111.363 231.884 110.647 230.952 110.443 229.848C110.274 228.958 111.387 228.056 112.494 227.812C113.769 227.507 114.545 228.695 114.545 229.848Z" fill="black"/>
<path d="M127.724 231.084C127.724 232.21 127.273 233.144 125.673 233.12C124.542 233.12 123.832 232.192 123.621 231.084C123.459 230.192 124.566 229.287 125.673 229.042C126.948 228.76 127.724 229.952 127.724 231.084Z" fill="black"/>
<path d="M111.251 234.768L125.254 236.439C125.254 236.439 124.061 238.741 123.255 239.468C122.45 240.195 122.259 240.825 120.32 241.14C118.726 241.434 117.093 241.434 115.499 241.14C113.709 240.867 111.799 239.062 111.74 238.523C111.68 237.984 111.233 236.536 111.251 236.173C111.268 235.809 111.251 234.768 111.251 234.768Z" fill="black"/>
<path d="M310 280.723L310 485" stroke="#054A3E" stroke-width="6"/>
<path d="M434.879 301.862L438.996 300.385L435.66 297.994L439.501 296.367L435.826 294.441L439.371 292.32L435.426 290.9L438.602 288.335L434.552 287.656L437.427 284.967L433.315 284.737L435.826 281.757L431.715 281.964L433.832 278.743L429.77 279.371L431.481 275.953L427.517 276.969L428.816 273.399L424.988 274.791L425.874 271.12L422.224 272.866L422.698 269.128L419.566 271.362L420.015 267.764L417.091 270.211L417.221 266.597L414.525 269.251L414.334 265.637L411.878 268.482L411.066 264.829L408.623 267.82L407.429 264.25L405.317 267.444L403.742 264.003L401.982 267.365L401.68 264.772L399.058 263.712L403.108 263.201L399.957 260.832L403.908 259.889L400.468 257.88L404.271 256.505L400.591 254.894L404.179 253.103L400.308 251.902L403.631 249.736L399.631 248.961L402.659 246.452L398.584 246.104L401.28 243.298L397.255 243.483L399.692 240.559L395.71 241.103L397.821 237.971L393.913 238.864L395.685 235.569L391.888 236.793L393.008 233.099L389.081 234.458L389.728 230.669L385.992 232.42L386.17 228.592L382.674 230.72L382.379 226.897L379.062 229.339L378.163 225.539L375.19 228.317L373.805 224.647L371.214 227.728L369.368 224.226L365.872 227.088L368.974 223.939L365.127 222.351L368.482 220.022L364.438 218.927L367.398 216.188L363.226 215.633L365.724 212.534L361.225 212.113L362.77 208.235L358.265 208.555L359.053 204.497L354.664 205.49L354.732 201.37L350.559 202.959L350.516 199.109L347.088 201.359L346.596 197.531L343.438 200.091L342.521 196.33L339.659 199.165L338.348 195.505L335.425 198.53L333.277 195L330.753 198.317L328.175 195.039L326.1 198.609L323.097 195.64L321.534 199.417L318.727 196.656L318.185 200.388L315.084 197.907L314.979 201.674L311.594 199.518L311.963 203.268L308.326 201.483L309.12 205.215L305.211 203.902L306.516 207.505L302.46 206.658L304.257 210.082L300.115 209.711L300.891 213.792L300.386 209.52L296.466 211.013L296.669 207.146L293.099 209.245L292.576 205.4L289.431 208.01L288.249 204.289L285.122 207.253L282.784 203.739L280.254 207.14L277.324 204.02L275.417 207.747L271.982 205.081L270.739 209.032L267.422 206.669L267.292 210.508L263.655 208.566L264.11 212.383L260.202 210.94L261.285 214.65L257.186 213.797L259.125 217.036L255.124 216.48L257.574 219.416L253.53 219.427L256.454 221.975L252.46 222.57L254.921 225.865L251.992 222.57L249.714 225.842L247.622 222.469L245.665 225.91L243.258 222.716L241.64 226.302L238.938 223.311L237.602 227.021L234.549 224.276L233.577 228.087L230.272 225.601L229.675 229.468L226.142 227.262L225.927 231.163L222.449 229.103L222.831 232.869L219.187 231.062L219.889 234.783L216.104 233.245L217.132 236.905L213.223 235.653L214.387 239.403L210.183 238.673L211.74 242.304L207.481 241.956L209.426 245.431L205.155 245.476L207.487 248.748L203.043 249.657L205.653 253.059L201.388 254.507L204.484 257.549L200.483 259.53L204.016 262.146L200.458 263.975L201.8 266.63L198.704 264.374L199.4 267.932L196.144 265.867L197.104 269.38L193.701 267.523L194.932 270.963L191.048 269.616L192.291 273.231L188.285 272.232L189.903 275.717L185.81 275.072L187.792 278.4L183.65 278.12L185.736 281.689L181.354 282.307L183.909 285.613L179.643 286.713L182.61 289.71L178.523 291.265L181.859 293.925L178 295.833L181.644 298.062L178.043 300.341L181.933 302.187L178.622 304.82L182.714 306.268L179.742 309.209L183.822 309.837L180.991 312.593L185.121 312.891L182.561 315.86L186.703 315.826L184.444 318.992L188.568 318.621L186.481 321.776L190.414 320.928L188.605 324.223L192.451 323.095L190.937 326.507L194.667 325.104L193.461 328.618L197.707 327.394L197.627 331.458L201.683 329.78L202.133 333.821L205.948 331.722L206.902 335.69L211.18 333.619L208.072 336.318L211.875 337.463L208.447 339.349L212.38 340.023L209.266 342.313L213.26 342.481L210.534 345.147L214.497 344.771L212.165 347.718L216.036 346.865L214.147 350.064L217.87 348.768L216.424 352.158L219.957 350.468L219.649 354.431L223.551 352.657L223.945 356.614L227.496 354.313L228.536 358.169L231.687 355.424L233.312 359.112L235.848 355.986L237.824 359.432L239.885 356.025L242.354 359.202L243.88 355.565L246.816 358.388L247.739 354.588L251.265 356.9L251.604 352.949L255.531 354.65L255.063 350.71L259.273 351.703L257.993 347.914L261.581 348.768L262.922 346.034L263.956 349.654L266.197 346.522L267.748 349.985L269.539 346.618L271.539 349.884L272.881 346.348L274.973 349.435L275.632 345.855L278.032 348.751L278.315 345.13L281.011 347.802L280.9 344.171L283.873 346.584L283.307 343.014L286.477 345.175L285.51 341.679L288.914 343.508L287.517 340.135L291.142 341.583L290.385 337.806L292.01 341.594L294.748 338.76L295.856 342.403L298.269 339.332L299.764 342.857L301.851 339.591L303.691 342.975L305.378 339.551L307.458 342.79L308.83 339.254L311.194 342.318L312.246 338.693L314.874 341.578L315.601 337.884L318.573 340.539L319.053 336.773L322.266 339.181L322.383 335.392L325.817 337.536L325.559 333.753L329.19 335.594L328.476 331.896L332.224 333.456L331.116 329.836L335.019 331.037L333.492 327.546L337.517 328.337L336.342 324.425L337.973 327.978L340.379 325.093L340.927 328.685L343.143 325.677L343.912 329.229L345.937 326.109L346.054 329.308L349.371 328.421L346.608 330.986L350.528 330.616L347.937 333.321L351.827 332.737L349.414 335.578L353.261 334.775L351.242 337.997L355.206 337.172L353.477 340.528L357.354 339.405L355.932 342.88L359.693 341.482L358.579 345.046L362.062 343.273L361.084 346.797L364.413 344.794L363.712 348.375L366.881 346.169L366.451 349.783L369.442 347.381L369.454 351.08L372.415 348.549L372.722 352.242L375.467 349.52L376.064 353.179L378.6 350.289L379.468 353.903L381.8 350.861L382.951 354.42L385.056 351.248L386.459 354.728L388.337 351.439L389.98 354.835L391.623 351.445L393.821 354.717L395.525 351.209L397.975 354.33L399.397 350.715L402.08 353.673L403.219 349.974L406.13 352.747L406.899 349.009L409.934 351.619L410.407 347.841L413.639 350.244L413.817 346.444L417.233 348.627L417.104 344.827L420.409 346.932L419.732 343.306L423.178 345.209L422.237 341.639L425.819 343.318L424.6 339.815L428.311 341.258L426.742 337.918L430.472 339.192L428.65 335.965L432.472 336.992L430.392 333.894L434.288 334.657L431.955 331.71L436.116 331.851L433.672 328.775L437.827 328.533L435.051 325.705L439.156 325.07L436.079 322.517L440.085 321.501L436.719 319.413L440.59 318.24L437.026 316.432L440.769 314.956L437.057 313.424L440.652 311.678L436.817 310.421L440.307 308.793L436.454 308.114L439.845 306.307L435.956 305.824L439.236 303.854L435.322 303.551L434.879 301.862Z" fill="#FFB6E6"/>
<path d="M327.181 289.973C327.181 290.863 326.788 291.601 325.398 291.587C324.414 291.587 323.792 290.849 323.614 289.973C323.468 289.268 324.435 288.553 325.398 288.359C326.506 288.117 327.181 289.059 327.181 289.973Z" fill="black"/>
<path d="M338.64 290.953C338.64 291.846 338.247 292.586 336.856 292.568C335.873 292.568 335.256 291.832 335.072 290.953C334.931 290.246 335.894 289.529 336.856 289.334C337.965 289.111 338.64 290.056 338.64 290.953Z" fill="black"/>
<path d="M324.316 293.874L336.491 295.2C336.491 295.2 335.453 297.025 334.753 297.601C334.053 298.177 333.887 298.677 332.201 298.927C330.815 299.16 329.395 299.16 328.009 298.927C326.453 298.71 324.793 297.279 324.741 296.852C324.689 296.424 324.3 295.276 324.316 294.988C324.331 294.7 324.316 293.874 324.316 293.874Z" fill="black"/>
</svg>
