<svg width="1440" height="181" viewBox="0 0 1440 181" fill="none" xmlns="http://www.w3.org/2000/svg">
<g clip-path="url(#clip0_1547_4639)">
<path d="M1281.78 106.932C1309.53 110.698 1332.6 123.309 1350.28 142.448C1473.22 95.7525 1548.45 71.7345 1648 76.4108V181H9.31277e-06L0 160.229C39.0035 148.875 142.814 146.101 208.2 151.29C215.891 131.556 232.998 115.877 260.142 106.005C318.262 84.8462 409.707 94.9345 505.014 127.808C516 113.704 549.5 98.7489 575.5 98.7489C606 98.7489 642 117.442 668.5 145.95C668.5 145.95 761.5 92.9996 836 79C946.006 58.3284 1034.5 86.1308 1142.42 155.58C1186.19 119.741 1236.02 100.73 1281.78 106.932Z" fill="#054A3E"/>
</g>
<defs>
<clipPath id="clip0_1547_4639">
<rect width="1440" height="181" fill="white"/>
</clipPath>
</defs>
</svg>
