<svg width="182" height="56" viewBox="0 0 182 56" fill="none" xmlns="http://www.w3.org/2000/svg">
<g clip-path="url(#clip0_736_5168)">
<path d="M102.571 46H0.122681V10H102.571C102.571 10.0911 102.564 10.1827 102.564 10.2744C102.564 22.0915 102.564 33.9085 102.564 45.7256C102.564 45.8173 102.571 45.9089 102.571 46ZM37.5275 27.4512C37.6964 27.3925 37.8025 27.353 37.9125 27.3168C39.4869 26.7943 40.557 25.75 41.1019 24.1887C41.6777 22.538 41.6409 20.8615 41.1569 19.2025C40.6439 17.4464 39.4687 16.2879 37.7354 15.7018C36.6768 15.3435 35.5798 15.197 34.4662 15.1942C31.5341 15.186 28.6019 15.1915 25.6676 15.1942C25.5703 15.1942 25.473 15.2024 25.3734 15.2068V41.1027C25.4713 41.1076 25.5516 41.1153 25.6319 41.1153C28.5734 41.1153 31.5159 41.1274 34.4563 41.1104C35.66 41.1032 36.85 40.954 37.9823 40.5067C39.6628 39.8482 40.9892 38.7841 41.6667 37.0724C42.386 35.2483 42.529 33.3534 42.0577 31.4474C41.6073 29.6266 40.4904 28.3584 38.6867 27.7459C38.3331 27.6279 37.9614 27.561 37.5275 27.4512ZM43.5215 28.1685C43.5919 29.6288 43.6425 31.0902 43.7415 32.5483C43.8328 33.9202 44.0385 35.2702 44.4949 36.5758C45.312 38.9207 46.8276 40.5501 49.289 41.1592C51.2929 41.6559 53.3226 41.6531 55.338 41.208C57.3149 40.7734 58.8101 39.6616 59.7659 37.8605C60.3158 36.8255 60.6496 35.7175 60.8398 34.5678C61.1698 32.5779 61.2572 30.5672 61.249 28.5576C61.2418 26.841 61.1505 25.1233 61.0466 23.4095C60.9652 22.0655 60.7167 20.7457 60.2377 19.478C59.3314 17.0941 57.6905 15.5191 55.1686 14.9555C53.432 14.567 51.6761 14.5713 49.9291 14.8968C47.7212 15.3084 46.0693 16.5036 45.0233 18.4968C44.4047 19.675 44.0693 20.946 43.8999 22.2587C43.6436 24.22 43.5655 26.1923 43.5204 28.1701L43.5215 28.1685ZM63.1423 15.2134V15.5498C63.1423 21.4112 63.1432 27.2727 63.1451 33.1344C63.1451 34.3604 63.2221 35.5836 63.5817 36.7673C64.3037 39.1408 65.8248 40.6944 68.2955 41.2031C70.4006 41.6366 72.5183 41.6476 74.6195 41.1636C76.3451 40.7668 77.6759 39.8026 78.5893 38.2776C79.4482 36.8436 79.7386 35.2593 79.7441 33.6261C79.7606 27.5895 79.7507 21.5529 79.7507 15.5202V15.2134H74.5073V15.6085C74.5073 21.5354 74.5051 27.4609 74.5007 33.3852C74.4953 33.9971 74.4438 34.6078 74.3467 35.2121C74.1185 36.6801 73.2898 37.5685 71.964 37.7326C70.295 37.9395 69.0412 37.2887 68.6381 35.5375C68.4856 34.8326 68.4118 34.1129 68.4181 33.3918C68.4011 27.4573 68.4082 21.5227 68.4082 15.5882V15.2134H63.1423ZM23.5197 41.1159C23.4845 40.9562 23.4647 40.8415 23.4328 40.7279C21.2002 32.3132 18.9692 23.8964 16.7398 15.4774C16.6772 15.2425 16.5749 15.1893 16.3467 15.1904C14.4137 15.1986 12.4802 15.2024 10.5473 15.1871C10.252 15.1871 10.1459 15.2727 10.0716 15.5531C7.97392 23.4951 5.86997 31.4355 3.75978 39.3746C3.60856 39.9453 3.46063 40.516 3.30831 41.0955C3.35448 41.1044 3.40111 41.1106 3.44798 41.1142C5.1527 41.1142 6.85742 41.1142 8.56214 41.1202C8.77496 41.1202 8.78761 40.9962 8.8195 40.8497C9.17804 39.2088 9.54373 37.5696 9.89237 35.9266C9.94131 35.6945 10.0227 35.6209 10.2636 35.622C12.3708 35.6324 14.4786 35.628 16.5875 35.628H16.8625C16.8938 35.7449 16.923 35.8393 16.9439 35.9354C17.2986 37.5587 17.656 39.1814 18.0008 40.8063C18.0514 41.044 18.1394 41.1252 18.3945 41.123C19.9981 41.1087 21.601 41.1159 23.2046 41.1159H23.5197ZM86.8588 19.4763V41.0983H92.0923V19.4802H92.4558C94.1237 19.4802 95.7921 19.4763 97.46 19.4846C97.6882 19.4846 97.7817 19.4418 97.7789 19.186C97.7657 17.9513 97.7734 16.7165 97.7723 15.4818C97.7723 15.394 97.7624 15.3062 97.7575 15.2156H81.1892V19.4763H86.8588Z" fill="white"/>
<path d="M104.386 10H181.923V46H104.386C104.381 45.8815 104.373 45.7629 104.372 45.6444C104.372 33.8811 104.372 22.1189 104.372 10.3578C104.373 10.2371 104.381 10.1185 104.386 10ZM143.998 28.1339C143.918 26.583 143.858 25.0305 143.754 23.4813C143.664 22.1643 143.443 20.8702 142.99 19.6229C142.103 17.1786 140.464 15.5366 137.883 14.9621C135.989 14.5351 134.023 14.5506 132.136 15.0076C130.333 15.4412 128.943 16.4745 127.972 18.0523C127.445 18.9073 127.102 19.8418 126.872 20.8154C126.395 22.8393 126.332 24.906 126.277 26.9699C126.222 29.0353 126.293 31.102 126.492 33.1585C126.615 34.4361 126.848 35.689 127.312 36.8902C128.157 39.0854 129.661 40.5753 131.972 41.151C133.986 41.6526 136.023 41.6449 138.046 41.202C140.002 40.7712 141.488 39.6748 142.445 37.9C143.125 36.6351 143.479 35.2659 143.65 33.8522C143.877 31.9567 143.963 30.0491 143.998 28.1339V28.1339ZM145.794 15.209V15.5427C145.794 21.4417 145.794 27.3404 145.794 33.2387C145.794 34.3549 145.871 35.4684 146.17 36.5516C146.83 38.9449 148.278 40.5879 150.754 41.157C152.834 41.6343 154.992 41.651 157.078 41.2059C158.861 40.8332 160.253 39.8888 161.207 38.3237C162.094 36.8699 162.387 35.2604 162.391 33.597C162.408 27.5709 162.398 21.5441 162.398 15.5174V15.2134H157.155V15.6102C157.155 21.5176 157.153 27.4262 157.148 33.3358C157.143 33.9658 157.092 34.5946 156.994 35.217C156.774 36.6779 155.934 37.5674 154.608 37.7348C153.638 37.8572 152.719 37.7222 152.001 36.9632C151.597 36.5439 151.335 36.0085 151.252 35.4327C151.142 34.6304 151.045 33.8171 151.042 33.0082C151.025 27.201 151.033 21.3938 151.033 15.5866V15.2107L145.794 15.209ZM117.286 25.1968L117.221 25.1908C117.185 25.098 117.144 25.007 117.111 24.9126C116.038 21.7662 114.968 18.6199 113.901 15.4735C113.824 15.2469 113.718 15.1887 113.492 15.1898C111.742 15.1986 109.991 15.1948 108.241 15.1948H107.914C107.983 15.3654 108.029 15.4922 108.083 15.6162C110.228 20.6284 112.373 25.6406 114.517 30.6528C114.586 30.82 114.622 30.9992 114.622 31.1802C114.628 34.3905 114.628 37.6005 114.622 40.8102C114.622 41.0478 114.68 41.1213 114.927 41.1197C116.476 41.1082 118.024 41.1137 119.574 41.1131C119.663 41.1131 119.752 41.1054 119.878 41.0988V40.7323C119.878 37.5493 119.88 34.3664 119.883 31.1835C119.881 31.0024 119.916 30.8229 119.984 30.655C122.142 25.5993 124.303 20.5446 126.469 15.4911C126.506 15.4049 126.533 15.3149 126.579 15.192H126.258C124.581 15.192 122.904 15.1964 121.227 15.1865C120.999 15.1865 120.897 15.2502 120.816 15.4719C119.728 18.4979 118.632 21.5204 117.528 24.5394C117.45 24.7584 117.367 24.9768 117.286 25.1957V25.1968ZM171.719 26.318C174.998 26.318 177.693 23.6685 177.695 20.446C177.695 17.093 175.049 14.4095 171.737 14.4095C168.457 14.4067 165.757 17.0875 165.755 20.3478C165.753 21.1307 165.906 21.9064 166.205 22.6303C166.504 23.3543 166.943 24.0123 167.497 24.5667C168.051 25.1212 168.709 25.5611 169.433 25.8614C170.158 26.1618 170.935 26.3165 171.719 26.3169V26.318Z" fill="white"/>
<path d="M30.6093 37.2404V29.4916C30.6537 29.4808 30.699 29.4736 30.7446 29.4702C31.6695 29.4746 32.5961 29.4466 33.5189 29.4944C34.9102 29.5657 36.0248 30.1233 36.5395 31.5035C36.7053 31.9574 36.8008 32.4339 36.8227 32.9166C36.8476 33.4906 36.8132 34.0656 36.7199 34.6326C36.5412 35.7439 35.8879 36.4902 34.8293 36.8892C34.2108 37.1193 33.5575 37.2421 32.8975 37.2525C32.2205 37.2673 31.5425 37.2563 30.8628 37.2525C30.7836 37.2547 30.7033 37.2459 30.6093 37.2404Z" fill="white"/>
<path d="M30.6102 25.8172V19.0771C30.6348 19.063 30.6615 19.053 30.6894 19.0475C31.6495 19.0667 32.6102 19.0777 33.5703 19.1161C33.831 19.1265 34.0922 19.2061 34.3463 19.278C35.3257 19.5557 35.9273 20.1939 36.1368 21.1899C36.3044 21.9689 36.3061 22.7744 36.1417 23.5541C35.9401 24.5082 35.3777 25.1496 34.4546 25.4781C33.7733 25.7212 33.0666 25.8013 32.3501 25.8128C31.7754 25.8244 31.2002 25.8172 30.6102 25.8172Z" fill="white"/>
<path d="M56.0599 28.1683C55.9807 29.8745 55.9235 31.5823 55.8136 33.2868C55.7503 34.2631 55.565 35.2262 55.1537 36.1279C54.6587 37.2035 53.8031 37.7298 52.6345 37.7566C52.2777 37.7683 51.9206 37.7435 51.5688 37.6826C50.5493 37.4943 49.9388 36.8314 49.5693 35.9105C49.1877 34.9584 49.0133 33.9547 48.971 32.9394C48.8874 30.9496 48.8176 28.9575 48.8203 26.9665C48.8231 25.2324 48.8445 23.4911 49.1844 21.7789C49.2726 21.3218 49.3991 20.873 49.5627 20.4371C50.1374 18.9329 51.1349 18.4999 52.5289 18.5323C54.0076 18.5674 54.8419 19.2084 55.3252 20.6078C55.438 20.9371 55.5562 21.2696 55.5969 21.6104C55.7338 22.77 55.8762 23.9312 55.9411 25.0963C55.9961 26.1165 55.9532 27.1421 55.9532 28.1656L56.0599 28.1683Z" fill="white"/>
<path d="M15.9597 31.3267H10.8752L13.3751 19.7228L13.4576 19.7189C14.2898 23.5831 15.1238 27.4523 15.9597 31.3267Z" fill="white"/>
<path d="M138.734 28.6677C138.679 29.8366 138.624 31.5263 138.522 33.2127C138.459 34.2076 138.278 35.1883 137.862 36.1102C137.367 37.1974 136.507 37.7324 135.326 37.7566C134.96 37.7664 134.595 37.7387 134.235 37.6737C133.288 37.4948 132.695 36.8829 132.322 36.0274C131.977 35.2399 131.816 34.4052 131.728 33.5579C131.486 31.2179 131.468 28.868 131.525 26.5198C131.557 25.1423 131.651 23.7632 131.792 22.3924C131.87 21.7122 132.034 21.0446 132.281 20.4058C132.85 18.8934 133.87 18.5048 135.263 18.5262C136.655 18.5476 137.561 19.255 138.012 20.5567C138.081 20.7548 138.144 20.9557 138.198 21.1604C138.496 22.2804 138.587 23.4285 138.634 24.5793C138.682 25.769 138.694 26.9571 138.734 28.6677Z" fill="white"/>
<path d="M173.915 16.8768L172.152 18.6329L173.455 19.922L175.209 18.1538C176.199 19.5806 176.195 21.9909 174.439 23.4984C172.749 24.9504 170.29 24.8242 168.727 23.2207C167.224 21.6797 167.194 19.1828 168.667 17.5726C170.152 15.9471 172.516 15.8939 173.915 16.8768Z" fill="white"/>
</g>
<defs>
<clipPath id="clip0_736_5168">
<rect width="181.8" height="36" fill="white" transform="translate(0.122681 10)"/>
</clipPath>
</defs>
</svg>
