<svg width="156" height="56" viewBox="0 0 156 56" fill="none" xmlns="http://www.w3.org/2000/svg">
<g clip-path="url(#clip0_736_5180)">
<path d="M39.555 36.8221V12.9882H53.6419V15.9763H42.472V23.3044H52.5036V26.2925H42.472V33.7629H54.4245V36.751H39.555V36.8221Z" fill="white"/>
<path d="M69.223 36.8221L64.3851 30.4901L59.5471 36.8221H56.1321L62.7487 28.3557L55.7764 19.6047H59.6183L64.3851 26.1502L69.223 19.6047H72.9938L66.3772 28.3557L72.638 36.8221H69.223Z" fill="white"/>
<path d="M77.3336 34.2609V46H74.4166V28.4269C74.4166 23.9447 77.8316 19.1779 83.1676 19.1779C88.5747 19.1779 92.6301 22.5929 92.6301 28.2134C92.6301 33.6917 88.5036 37.4624 83.8079 37.4624C81.5313 37.4624 78.472 36.4664 77.3336 34.2609V34.2609ZM89.5708 28.2134C89.5708 24.3715 87.0807 22.0948 82.6696 22.3083C80.5352 22.3794 77.2625 23.9447 77.5471 29.4229C77.6182 31.2016 79.468 34.5454 83.5233 34.5454C87.0095 34.5454 89.5708 32.5533 89.5708 28.2134V28.2134Z" fill="white"/>
<path d="M95.1202 36.8221V19.6048H98.0372V21.4546C99.4602 19.8182 101.666 19.249 104.014 19.249V22.3795C103.658 22.3083 100.172 21.8814 98.0372 26.4348V36.8933H95.1202V36.8221Z" fill="white"/>
<path d="M104.796 28.2134C104.796 23.2332 108.353 19.1779 113.263 19.1779C119.381 19.1779 121.658 23.2332 121.658 28.4269V29.8498H107.998C108.211 33.1225 111.128 34.83 113.832 34.7589C115.824 34.6877 117.176 34.1186 118.599 32.6956L120.519 34.6877C118.741 36.3952 116.464 37.5336 113.689 37.5336C108.496 37.4624 104.796 33.6205 104.796 28.2134V28.2134ZM113.049 22.0949C110.274 22.0949 108.14 24.5138 107.998 27.1462H118.599C118.599 24.585 116.749 22.0949 113.049 22.0949V22.0949Z" fill="white"/>
<path d="M123.152 34.4032L125.286 32.4823C125.215 32.4823 126.353 33.6206 126.496 33.6917C126.994 34.1186 127.492 34.4032 128.132 34.5455C129.982 35.0435 133.326 34.9012 133.61 32.34C133.753 30.917 132.685 30.1344 131.476 29.6364C129.911 29.0672 128.203 28.8538 126.638 28.1423C124.859 27.3597 123.721 26.0079 123.721 24.0158C123.721 18.8222 131.12 17.9684 134.464 20.3874C134.606 20.5297 136.243 22.0238 136.172 22.0238L134.037 23.7313C132.97 22.4506 131.974 21.8103 129.697 21.8103C128.559 21.8103 126.994 22.3083 126.709 23.5178C126.282 25.2253 128.203 25.8656 129.484 26.2214C131.191 26.6483 133.041 26.9328 134.535 27.8577C136.599 29.1384 137.097 31.9131 136.314 34.0475C135.46 36.3953 132.899 37.3202 130.622 37.3913C127.919 37.5336 125.571 36.6799 123.65 34.7589C123.508 34.7589 123.152 34.4032 123.152 34.4032V34.4032Z" fill="white"/>
<path d="M138.164 34.4032L140.298 32.4823C140.227 32.4823 141.365 33.6206 141.508 33.6917C142.006 34.1186 142.504 34.4032 143.144 34.5455C144.994 35.0435 148.338 34.9012 148.622 32.34C148.764 30.917 147.697 30.1344 146.488 29.6364C144.923 29.0672 143.215 28.8538 141.65 28.1423C139.871 27.3597 138.733 26.0079 138.733 24.0158C138.733 18.8222 146.132 17.9684 149.476 20.3874C149.618 20.5297 151.255 22.0238 151.183 22.0238L149.049 23.7313C147.982 22.4506 146.986 21.8103 144.709 21.8103C143.571 21.8103 142.006 22.3083 141.721 23.5178C141.294 25.2253 143.215 25.8656 144.496 26.2214C146.203 26.6483 148.053 26.9328 149.547 27.8577C151.61 29.1384 152.108 31.9131 151.326 34.0475C150.472 36.3953 147.911 37.3202 145.634 37.3913C142.93 37.5336 140.583 36.6799 138.662 34.7589C138.519 34.7589 138.164 34.4032 138.164 34.4032V34.4032Z" fill="white"/>
<path d="M152.037 19.6048V17.755H151.397V17.3992H153.104V17.755H152.464V19.6048H152.037Z" fill="white"/>
<path d="M155.239 19.6048V17.8973L154.598 19.6048H154.456L153.816 17.8973V19.6048H153.46V17.3992H154.029L154.598 18.8933L155.168 17.3992H155.737V19.6048H155.239Z" fill="white"/>
<path d="M19.7764 36.8221L17.642 31.1305H6.11629L3.9819 36.8221H0.922607L10.1716 12.9882H13.5155L22.6934 36.8221H19.7764ZM11.7368 16.4032L7.39692 28.2135H16.4325L11.7368 16.4032Z" fill="white"/>
<path d="M24.6143 36.8221V12.9882H27.6025V36.8221H24.6143Z" fill="white"/>
<path d="M32.0847 36.8221V19.9604H35.0728V36.8221H32.0847Z" fill="white"/>
<path d="M37.9186 14.4822C37.9186 14.4111 37.9186 14.4111 37.9186 14.3399C37.9186 14.2688 37.9186 14.2688 37.9186 14.1976C35.6419 14.1265 33.7921 12.2767 33.721 10C33.6499 10 33.5787 10 33.5076 10C33.4364 10 33.3653 10 33.2941 10C33.223 12.2767 31.3732 14.1265 29.0965 14.1976C29.0965 14.2688 29.0965 14.2688 29.0965 14.3399C29.0965 14.4111 29.0965 14.4111 29.0965 14.4822C31.3732 14.5534 33.223 16.4032 33.2941 18.6798C33.3653 18.6798 33.4364 18.6798 33.5076 18.6798C33.5787 18.6798 33.6499 18.6798 33.721 18.6798C33.7921 16.4032 35.6419 14.5534 37.9186 14.4822Z" fill="white"/>
</g>
<defs>
<clipPath id="clip0_736_5180">
<rect width="154.814" height="36" fill="white" transform="translate(0.922607 10)"/>
</clipPath>
</defs>
</svg>
