<svg width="151" height="56" viewBox="0 0 151 56" fill="none" xmlns="http://www.w3.org/2000/svg">
<path d="M21.9706 10.0595C22.5143 9.9787 23.0072 9.91867 23.4505 9.87942C23.8938 9.83786 24.2863 9.81824 24.628 9.81824C24.9917 9.81824 25.3992 9.83787 25.8517 9.87942C26.3054 9.91867 26.7937 9.9787 27.3166 10.0595V26.975H34.295C34.3955 27.4795 34.4601 27.917 34.4913 28.2887C34.5214 28.6628 34.5374 28.9987 34.5374 29.3023C34.5374 29.644 34.5214 30.0007 34.4913 30.3747C34.4602 30.7465 34.3955 31.1944 34.295 31.7185H21.9706V10.0595ZM36.3545 14.7118H31.3097C31.1285 13.8448 31.0384 13.0494 31.0384 12.3245C31.0384 11.6607 31.1285 10.8849 31.3097 9.99948H46.7453C46.8261 10.4416 46.8873 10.8549 46.9265 11.2382C46.967 11.6214 46.9877 11.9827 46.9877 12.3245C46.9877 12.9894 46.9069 13.7859 46.7453 14.7118H41.7006V31.6284C40.6339 31.8097 39.7473 31.8997 39.0431 31.8997C38.2974 31.8997 37.4027 31.8097 36.3545 31.6284L36.3545 14.7118ZM123.056 14.7118H118.014C117.83 13.8448 117.74 13.0494 117.74 12.3245C117.74 11.6607 117.83 10.8849 118.014 9.99948H133.447C133.528 10.4416 133.589 10.8549 133.628 11.2382C133.669 11.6214 133.689 11.9827 133.689 12.3245C133.689 12.9894 133.607 13.7859 133.447 14.7118H128.403V31.6284C127.336 31.8097 126.449 31.8997 125.744 31.8997C124.999 31.8997 124.103 31.8097 123.056 31.6284L123.056 14.7118ZM146.925 20.3903C146.925 21.0956 146.835 21.8806 146.652 22.7476H140.824V27.0362H148.406C148.586 27.8824 148.678 28.6478 148.678 29.3323C148.678 30.0769 148.586 30.8723 148.406 31.7185H135.476V9.99948H148.225C148.305 10.4416 148.365 10.8549 148.406 11.2382C148.446 11.6214 148.466 11.9827 148.466 12.3245C148.466 12.9894 148.385 13.7859 148.225 14.7118H140.824V18.0341H146.652C146.835 18.9219 146.925 19.7057 146.925 20.3903" fill="white"/>
<path d="M11.1118 15.5363L13.0881 23.3794C12.4809 23.4452 11.8506 23.481 11.203 23.481C10.4757 23.481 9.77039 23.4336 9.09621 23.3505L11.1118 15.5363ZM14.0763 9.84858C13.4922 9.7874 12.9727 9.73776 12.519 9.69735C12.0653 9.65695 11.6463 9.63617 11.263 9.63617C10.8001 9.63617 10.3407 9.65695 9.88583 9.69735C9.4333 9.73776 8.94383 9.7874 8.41858 9.84858L1.64221 31.451C2.2275 31.5503 2.75621 31.6276 3.23067 31.6773C3.70398 31.7269 4.12303 31.7534 4.48667 31.7534C4.84915 31.7534 5.22318 31.7328 5.60529 31.6923C5.98855 31.653 6.41222 31.5918 6.87629 31.5122L8.00184 27.429C8.99232 27.6241 10.0717 27.7315 11.203 27.7315C12.2397 27.7315 13.229 27.638 14.149 27.4741L15.2273 31.5122C15.6913 31.5918 16.1242 31.653 16.5283 31.6923C16.9312 31.7327 17.3352 31.7534 17.7381 31.7534C18.6051 31.7534 19.6129 31.6622 20.7638 31.481L14.0763 9.84858Z" fill="white"/>
<path d="M109.981 15.5363L111.957 23.3794C111.351 23.4452 110.721 23.481 110.073 23.481C109.344 23.481 108.64 23.4336 107.966 23.3505L109.981 15.5363ZM112.945 9.84858C112.362 9.7874 111.841 9.73776 111.387 9.69735C110.935 9.65695 110.516 9.63617 110.133 9.63617C109.669 9.63617 109.21 9.65695 108.757 9.69735C108.303 9.73776 107.812 9.7874 107.288 9.84858L100.513 31.451C101.097 31.5503 101.626 31.6276 102.1 31.6773C102.575 31.7269 102.994 31.7534 103.356 31.7534C103.719 31.7534 104.092 31.7328 104.475 31.6923C104.858 31.653 105.282 31.5918 105.747 31.5122L106.87 27.429C107.861 27.6241 108.94 27.7315 110.073 27.7315C111.109 27.7315 112.099 27.638 113.019 27.4741L114.097 31.5122C114.56 31.5918 114.994 31.653 115.398 31.6923C115.801 31.7327 116.204 31.7535 116.607 31.7535C117.475 31.7535 118.482 31.6623 119.633 31.481L112.945 9.84858Z" fill="white"/>
<path d="M60.2587 20.3909C60.2587 21.0951 60.1686 21.8812 59.9862 22.747H54.1565V27.0368H61.7386C61.921 27.8818 62.0111 28.6472 62.0111 29.3317C62.0111 30.0775 61.921 30.8729 61.7386 31.7191H48.8104V9.9989H61.5585C61.6382 10.4422 61.6994 10.8555 61.7386 11.2376C61.779 11.6208 61.7998 11.9822 61.7998 12.325C61.7998 12.99 61.719 13.7854 61.5585 14.7123H54.1565V18.0347H59.9862C60.1686 18.9213 60.2587 19.7063 60.2587 20.3909H60.2587ZM64.7158 10.0601C65.7017 9.9585 66.6137 9.86384 67.4495 9.77264C68.2853 9.68144 69.1661 9.63641 70.0931 9.63641C71.2001 9.63641 72.3072 9.74262 73.4143 9.95272C74.5225 10.1651 75.5107 10.5334 76.3753 11.0563C77.2423 11.5816 77.9465 12.295 78.4902 13.2012C79.0328 14.1074 79.3064 15.2561 79.3064 16.6448C79.3064 17.3906 79.2187 18.0601 79.049 18.6546C78.877 19.248 78.6553 19.7767 78.384 20.2396C78.1116 20.7026 77.8103 21.1054 77.4778 21.4483C77.1453 21.79 76.8186 22.0821 76.4966 22.3233L81.2077 31.6279C80.7252 31.7075 80.1976 31.7687 79.6227 31.8091C79.049 31.8495 78.5306 31.8691 78.0666 31.8691C77.6648 31.8691 77.195 31.8495 76.6628 31.8091C76.1283 31.7687 75.6608 31.7075 75.2579 31.6279L70.9681 21.7496L71.2406 21.5984C71.4818 21.4783 71.7485 21.2774 72.0406 20.9946C72.3326 20.7129 72.6039 20.3759 72.8556 19.9834C73.1073 19.5897 73.3196 19.1533 73.4905 18.6685C73.6625 18.1859 73.7468 17.6815 73.7468 17.1585C73.7468 16.1519 73.4663 15.4165 72.9018 14.9536C72.3373 14.4895 71.6435 14.2587 70.8169 14.2587C70.616 14.2587 70.4452 14.269 70.3032 14.2887C70.1624 14.3083 70.0723 14.3291 70.0319 14.3487V31.6278C68.9641 31.8091 68.0891 31.8991 67.4045 31.8991C66.6599 31.8991 65.7618 31.8091 64.7159 31.6278L64.7158 10.0601ZM82.9116 10.0601C83.3549 9.97928 83.7578 9.91809 84.1214 9.87884C84.4827 9.83844 84.8348 9.81766 85.1777 9.81766C85.5413 9.81766 85.9188 9.84305 86.3113 9.8927C86.7027 9.94349 87.0398 9.9989 87.3214 10.0601L94.331 21.9008V10.0601C94.8528 9.97928 95.3284 9.91809 95.7509 9.87884C96.1723 9.83844 96.5555 9.81766 96.8984 9.81766C97.2401 9.81766 97.6026 9.83844 97.9847 9.87884C98.3679 9.91809 98.772 9.97928 99.1945 10.0601L99.1634 31.6279C98.9626 31.6879 98.6693 31.7479 98.2872 31.8091C97.904 31.8691 97.493 31.8992 97.0497 31.8992C96.5464 31.8992 96.0938 31.8645 95.6898 31.7929C95.2869 31.7237 94.9949 31.6671 94.8136 31.6279L87.7751 19.8471V31.6279C86.8897 31.8091 86.0839 31.8991 85.3589 31.8991C84.634 31.8991 83.819 31.8091 82.9116 31.6279L82.9116 10.0601Z" fill="white"/>
<path d="M80.1337 41.8649C80.0875 42.0635 80.0517 42.2851 80.0632 42.5899C80.0632 43.1267 80.3795 43.4199 80.9752 43.4199C82.4367 43.4199 83.3244 41.6779 83.3244 40.4161C83.3244 39.7142 83.0208 39.0712 82.2497 39.0712C81.407 39.0712 80.5435 39.937 80.263 41.2692L80.1337 41.8649ZM81.3608 35.7523L80.6127 39.4222H80.637C81.1391 38.6626 81.8641 38.2655 82.6237 38.2655C83.8624 38.2655 84.3288 39.2929 84.3288 40.2995C84.3288 42.0404 83.0797 44.1795 80.8113 44.1795C79.8185 44.1795 79.0704 43.7697 79.0704 42.7296C79.0704 42.4502 79.1177 42.1108 79.1755 41.8407L80.3911 35.7523H81.3608Z" fill="white"/>
<path d="M88.0328 39.0252C87.1093 39.0252 86.4201 39.9256 86.1742 40.8133C87.7049 40.8366 88.8974 40.6252 88.8974 39.7374C88.8974 39.2826 88.5465 39.0252 88.0328 39.0252ZM89.1075 43.7351C88.6873 43.9683 87.997 44.1796 87.2374 44.1796C85.7413 44.1796 85.0879 43.1499 85.0879 41.8996C85.0879 40.1934 86.3497 38.2656 88.1725 38.2656C89.2484 38.2656 89.8325 38.9074 89.8325 39.7259C89.8325 41.2105 88.1609 41.596 86.0691 41.5614C86.023 41.8061 86.0577 42.3325 86.1857 42.6361C86.4085 43.1499 86.8634 43.3958 87.4486 43.3958C88.1147 43.3958 88.6169 43.1972 88.9678 43.0102L89.1075 43.7351Z" fill="white"/>
<path d="M94.7037 39.2469C94.5282 39.1419 94.1888 39.0484 93.7686 39.0484C92.471 39.0484 91.372 40.4279 91.372 42.006C91.372 42.8821 91.7588 43.3843 92.3544 43.3843C93.2664 43.3843 94.1195 42.3557 94.3412 41.199L94.7037 39.2469ZM93.3484 46.3638L94.0376 43.0218H94.0143C93.5341 43.7699 92.763 44.1786 92.0507 44.1786C90.9286 44.1786 90.3676 43.2319 90.3676 42.1226C90.3676 40.2282 91.7702 38.2657 93.967 38.2657C94.7151 38.2657 95.3696 38.4527 95.7783 38.6397L94.3179 46.3638H93.3484Z" fill="white"/>
<path d="M101.971 38.3935L101.211 42.4027C101.083 43.0331 101.012 43.5825 100.954 44.0501H100.089L100.23 42.9869H100.206C99.7032 43.7234 98.9666 44.1794 98.2186 44.1794C97.4948 44.1794 96.7236 43.8284 96.7236 42.5424C96.7236 42.2734 96.7583 41.9583 96.8275 41.5843L97.4474 38.3935H98.4056L97.8099 41.5496C97.7511 41.8648 97.7164 42.1338 97.7164 42.3797C97.7164 42.9638 97.9507 43.3609 98.6157 43.3609C99.3176 43.3609 100.218 42.5309 100.451 41.2922L101.001 38.3935H101.971Z" fill="white"/>
<path d="M105.604 39.0252C104.68 39.0252 103.991 39.9256 103.746 40.8133C105.276 40.8366 106.468 40.6252 106.468 39.7374C106.468 39.2826 106.117 39.0252 105.604 39.0252ZM106.678 43.7351C106.258 43.9683 105.569 44.1796 104.809 44.1796C103.313 44.1796 102.659 43.1499 102.659 41.8996C102.659 40.1934 103.92 38.2656 105.743 38.2656C106.819 38.2656 107.403 38.9074 107.403 39.7259C107.403 41.2105 105.732 41.596 103.64 41.5614C103.594 41.8061 103.628 42.3325 103.758 42.6361C103.979 43.1499 104.434 43.3958 105.019 43.3958C105.686 43.3958 106.188 43.1972 106.539 43.0102L106.678 43.7351Z" fill="white"/>
<path d="M107.904 44.0503L108.652 40.0422C108.769 39.4107 108.851 38.8612 108.908 38.3937H109.761L109.621 39.4581H109.645C110.171 38.6627 110.883 38.2656 111.631 38.2656C112.497 38.2656 112.906 38.8151 112.952 39.5273C113.455 38.71 114.179 38.2771 115.021 38.2656C115.675 38.2656 116.4 38.6858 116.4 39.7501C116.4 40.0064 116.365 40.392 116.307 40.7071L115.675 44.0503H114.729L115.337 40.7903C115.383 40.5674 115.418 40.2869 115.418 40.0537C115.418 39.4581 115.196 39.0713 114.566 39.0713C113.864 39.0713 113.023 39.8898 112.789 41.1516L112.251 44.0503H111.316L111.947 40.7314C111.994 40.4739 112.018 40.2638 112.018 40.0422C112.018 39.5631 111.889 39.0713 111.176 39.0713C110.475 39.0713 109.587 40.0064 109.364 41.2105L108.851 44.0503H107.904Z" fill="white"/>
<path d="M120.545 41.818C120.545 42.7416 121.06 43.4077 121.878 43.4077C123.022 43.4077 123.888 41.9358 123.888 40.614C123.888 39.9594 123.585 39.0371 122.566 39.0371C121.352 39.0371 120.545 40.5205 120.545 41.818V41.818ZM124.893 40.614C124.893 42.3675 123.654 44.1788 121.749 44.1788C120.335 44.1788 119.54 43.1271 119.54 41.8538C119.54 39.9837 120.837 38.2659 122.671 38.2659C124.203 38.2659 124.893 39.4215 124.893 40.614Z" fill="white"/>
<path d="M125.569 44.0503L126.317 40.0422C126.445 39.4107 126.527 38.8612 126.585 38.3937H127.449L127.31 39.5042H127.333C127.836 38.71 128.607 38.2656 129.425 38.2656C130.102 38.2656 130.863 38.6511 130.863 39.8321C130.863 40.0884 130.816 40.4393 130.758 40.7429L130.127 44.0503H129.169L129.788 40.7776C129.822 40.5559 129.858 40.2996 129.858 40.0537C129.858 39.4927 129.636 39.0713 128.97 39.0713C128.281 39.0713 127.298 39.9014 127.041 41.304L126.527 44.0503H125.569Z" fill="white"/>
<path d="M131.808 44.0503L133.386 35.7524H134.356L132.777 44.0503H131.808Z" fill="white"/>
<path d="M135.733 36.8282C135.745 36.4542 136.025 36.1736 136.365 36.1736C136.714 36.1736 136.949 36.4299 136.949 36.7809C136.937 37.1664 136.668 37.4354 136.283 37.4354C135.943 37.4354 135.733 37.178 135.733 36.8282ZM134.471 44.0502L135.558 38.3936H136.516L135.441 44.0502H134.471Z" fill="white"/>
<path d="M137.158 44.0503L137.906 40.0422C138.034 39.4107 138.116 38.8612 138.175 38.3937H139.04L138.899 39.5042H138.923C139.425 38.71 140.197 38.2656 141.015 38.2656C141.693 38.2656 142.452 38.6511 142.452 39.8321C142.452 40.0884 142.405 40.4393 142.347 40.7429L141.716 44.0503H140.758L141.378 40.7776C141.411 40.5559 141.447 40.2996 141.447 40.0537C141.447 39.4927 141.225 39.0713 140.559 39.0713C139.87 39.0713 138.888 39.9014 138.63 41.304L138.116 44.0503H137.158Z" fill="white"/>
<path d="M146.389 39.0252C145.465 39.0252 144.776 39.9256 144.53 40.8133C146.061 40.8366 147.254 40.6252 147.254 39.7374C147.254 39.2826 146.903 39.0252 146.389 39.0252ZM147.464 43.7351C147.044 43.9683 146.353 44.1796 145.594 44.1796C144.097 44.1796 143.444 43.1499 143.444 41.8996C143.444 40.1934 144.706 38.2656 146.529 38.2656C147.605 38.2656 148.189 38.9074 148.189 39.7259C148.189 41.2105 146.517 41.596 144.425 41.5614C144.379 41.8061 144.414 42.3325 144.542 42.6361C144.765 43.1499 145.22 43.3958 145.804 43.3958C146.471 43.3958 146.973 43.1972 147.324 43.0102L147.464 43.7351Z" fill="white"/>
</svg>
