<svg width="57" height="56" viewBox="0 0 57 56" fill="none" xmlns="http://www.w3.org/2000/svg">
<g clip-path="url(#clip0_736_5165)">
<path d="M5.86796 30.6751C6.56721 30.6751 7.2675 30.6751 7.96675 30.6751C9.3952 30.6751 9.91061 31.048 10.2504 32.4251C10.835 34.8011 11.7264 37.0449 13.1425 39.0563C16.083 43.2546 20.0472 45.9406 25.1082 46.8858C30.8055 47.9488 35.9667 46.6234 40.4659 43.0129C43.6678 40.4457 45.7583 37.0914 46.8005 33.1007C47.4047 30.7877 47.5669 30.6751 49.9611 30.6751C51.1747 30.6751 52.3873 30.6679 53.5999 30.6751C55.1781 30.6865 55.8484 31.4292 55.6129 32.9705C55.1006 36.3953 53.914 39.6843 52.1218 42.6472C48.9922 47.8238 44.6118 51.5842 39.0395 53.9075C34.3524 55.8621 29.4721 56.4395 24.4358 55.6637C19.6939 54.9323 15.4168 53.0811 11.6861 50.111C6.17266 45.7309 2.7735 40.0284 1.62391 33.0418C1.3626 31.4519 2.02776 30.6885 3.62974 30.6741C4.37547 30.6699 5.1212 30.6751 5.86796 30.6751Z" fill="white"/>
<path d="M18.9007 23.8634C18.4184 24.2301 18.0527 24.5545 17.6437 24.8118C14.5895 26.727 11.3938 26.6237 8.2942 25.1082C4.3001 23.1578 1.7138 19.9708 0.857554 15.5308C0.103561 11.6051 1.04967 8.06382 3.51925 4.96465C5.36395 2.64957 7.67964 0.959486 10.6233 0.280767C13.5009 -0.381423 16.1306 0.108247 18.4256 2.0473C18.514 2.12352 18.6083 2.19261 18.7076 2.25391C18.7417 2.27457 18.7964 2.26114 18.8418 2.26321C18.8718 2.23118 18.9203 2.20329 18.9286 2.1661C19.3417 0.251842 19.6516 0.00597355 21.6079 0.00597355C22.7037 0.00597355 23.7996 -0.00435671 24.8955 0.0111392C26.0874 0.026635 26.7887 0.695023 26.7898 1.87064C26.8001 9.35756 26.8001 16.8438 26.7898 24.3293C26.7898 25.569 26.17 26.1723 24.9306 26.1888C23.6488 26.2064 22.366 26.2002 21.0832 26.1888C19.7146 26.1816 19.1806 25.7177 18.972 24.3841C18.9586 24.2477 18.9379 24.1144 18.9007 23.8634ZM8.52762 13.1465C8.52783 14.1793 8.83403 15.189 9.40754 16.0479C9.98105 16.9068 10.7962 17.5765 11.75 17.9724C12.7037 18.3684 13.7534 18.4727 14.7665 18.2724C15.7796 18.072 16.7105 17.5759 17.4419 16.8467C18.1733 16.1176 18.6722 15.188 18.8757 14.1754C19.0792 13.1628 18.9782 12.1126 18.5854 11.1573C18.1925 10.2021 17.5255 9.38475 16.6686 8.80843C15.8116 8.2321 14.8031 7.92267 13.7705 7.9192C13.0817 7.9133 12.3987 8.04436 11.761 8.30476C11.1233 8.56516 10.5437 8.94971 10.0559 9.43607C9.56814 9.92243 9.18183 10.5009 8.91946 11.1379C8.6571 11.7748 8.5239 12.4576 8.52762 13.1465V13.1465Z" fill="white"/>
<path d="M30.4312 13.076C30.4715 5.8198 36.3185 -0.0200783 43.5238 0.00988038C50.7291 0.0398391 56.6412 6.00161 56.6082 13.2C56.5741 20.4314 50.6434 26.2516 43.3678 26.1886C36.1223 26.1245 30.3909 20.3157 30.4312 13.076ZM43.561 7.92517C42.1958 7.89633 40.8741 8.40577 39.8814 9.34343C38.8886 10.2811 38.3045 11.5717 38.2552 12.9365C38.1601 15.8694 40.3942 18.2774 43.2863 18.3652C46.2485 18.4541 48.6148 16.2196 48.7005 13.2506C48.779 10.3735 46.4881 8.00058 43.561 7.92517Z" fill="white"/>
</g>
<defs>
<clipPath id="clip0_736_5165">
<rect width="56" height="56" fill="white" transform="translate(0.608704)"/>
</clipPath>
</defs>
</svg>
