<svg width="176" height="56" viewBox="0 0 176 56" fill="none" xmlns="http://www.w3.org/2000/svg">
<g clip-path="url(#clip0_736_5449)">
<path d="M151.096 12.4833C151.431 12.7796 151.595 13.1305 151.595 13.5358V30.0446C151.595 30.9724 151.883 31.7598 152.476 32.3913C153.068 33.0228 153.844 33.3346 154.76 33.3346C155.181 33.3346 155.524 33.4829 155.813 33.7751C156.128 34.0675 156.292 34.4183 156.319 34.8276C156.292 35.1629 156.16 35.463 155.887 35.7359C155.61 36.0205 155.29 36.2154 154.939 36.3284H154.452C153.657 36.3284 152.897 36.157 152.176 35.8178C151.439 35.4669 150.792 35.0108 150.231 34.4417C149.696 33.8492 149.275 33.1748 148.956 32.4069C148.64 31.6428 148.484 30.8554 148.484 30.0446V13.5358C148.484 13.2162 148.617 12.8771 148.956 12.5106C149.311 12.152 149.677 12 150.078 12C150.425 12 150.768 12.1483 151.096 12.4833Z" fill="white"/>
<path d="M174.333 18.0772C174.625 18.0772 174.918 18.1708 175.21 18.3774L175.342 18.5137C175.666 18.8411 175.814 19.192 175.814 19.574C175.814 20.0301 175.666 20.3887 175.381 20.6772L174.528 21.5426C173.756 22.3495 172.902 23.2266 171.974 24.166C171.047 25.1055 170.092 26.0606 169.113 27.0273C168.158 27.9941 167.203 28.9491 166.248 29.8885L163.005 33.1747H174.313C174.641 33.2138 174.941 33.3266 175.218 33.5255L175.342 33.6503C175.51 33.818 175.615 34.0011 175.674 34.196C175.775 34.4339 175.814 34.617 175.814 34.7924C175.814 35.1822 175.674 35.5175 175.381 35.8137C175.058 36.1451 174.711 36.2893 174.333 36.2893H159.43C158.888 36.2893 158.502 36.1334 158.226 35.8527C157.894 35.4668 157.777 35.1238 157.797 34.8158C157.777 34.387 157.898 34.0596 158.19 33.7672L170.563 21.1528H159.442C159.122 21.1301 158.873 21.0827 158.686 21.024C158.53 20.9384 158.374 20.8252 158.226 20.6771C157.91 20.3535 157.777 20.0027 157.797 19.5934C157.777 19.2387 157.898 18.8917 158.245 18.498C158.53 18.2135 158.865 18.077 159.274 18.077L174.333 18.0772Z" fill="white"/>
<path d="M9.53783 23.7958C11.4986 23.7958 13.089 25.3863 13.089 27.3471C13.089 29.3078 11.4986 30.8983 9.53783 30.8983C7.57702 30.8983 5.98657 29.3078 5.98657 27.3471C5.98657 25.3863 7.57702 23.7958 9.53783 23.7958Z" fill="white"/>
<path d="M4.42749 20.576C4.42749 19.3363 5.4332 18.3306 6.67283 18.3306C7.91245 18.3306 8.91817 19.3363 8.91817 20.576C8.91817 21.8195 7.91245 22.8252 6.67283 22.8252C5.4332 22.8252 4.42749 21.8195 4.42749 20.576Z" fill="white"/>
<path d="M10.0447 20.5019C10.0447 19.2583 11.0504 18.2526 12.29 18.2526C13.5335 18.2526 14.5354 19.2583 14.5354 20.5019C14.5354 21.7415 13.5335 22.7472 12.29 22.7472C11.0504 22.7472 10.0447 21.7415 10.0447 20.5019Z" fill="white"/>
<path d="M14.0168 24.4741C14.0168 23.2306 15.0226 22.2249 16.2622 22.2249C17.5018 22.2249 18.5075 23.2306 18.5075 24.4741C18.5075 25.7137 17.5018 26.7194 16.2622 26.7194C15.0226 26.7194 14.0168 25.7137 14.0168 24.4741" fill="white"/>
<path d="M14.0793 30.1108C14.0793 28.8712 15.0851 27.8655 16.3286 27.8655C17.5682 27.8655 18.5739 28.8712 18.5739 30.1108C18.5739 31.3543 17.5682 32.3601 16.3286 32.3601C15.0851 32.3601 14.0793 31.3543 14.0793 30.1108Z" fill="white"/>
<path d="M10.1069 34.0909C10.1069 32.8512 11.1126 31.8455 12.3562 31.8455C13.5958 31.8455 14.6015 32.8512 14.6015 34.0909C14.6015 35.3344 13.5958 36.3401 12.3562 36.3401C11.1126 36.3401 10.1069 35.3344 10.1069 34.0909" fill="white"/>
<path d="M4.47412 34.0869C4.47412 32.8434 5.47984 31.8377 6.71946 31.8377C7.96296 31.8377 8.96481 32.8434 8.96481 34.0869C8.96481 35.3266 7.96296 36.3323 6.71946 36.3323C5.47984 36.3323 4.47412 35.3266 4.47412 34.0869Z" fill="white"/>
<path d="M0.501953 30.1186C0.501953 28.879 1.50769 27.8733 2.74729 27.8733C3.98691 27.8733 4.99264 28.879 4.99264 30.1186C4.99264 31.3621 3.98691 32.364 2.74729 32.364C1.50769 32.364 0.501953 31.3621 0.501953 30.1186Z" fill="white"/>
<path d="M0.501953 24.5365C0.501953 23.2969 1.50769 22.2911 2.74729 22.2911C3.98691 22.2911 4.99264 23.2969 4.99264 24.5365C4.99264 25.7761 3.98691 26.7818 2.74729 26.7818C1.50769 26.7818 0.501953 25.7761 0.501953 24.5365Z" fill="white"/>
<path d="M26.0194 12.3469C26.343 12.3242 26.6587 12.386 26.9589 12.5339C27.2591 12.6586 27.5202 12.834 27.7463 13.0601C27.9998 13.2861 28.1868 13.563 28.3116 13.8865C28.4363 14.1906 28.4988 14.5025 28.4988 14.8299V19.1491C29.3759 18.7008 30.2803 18.4123 31.208 18.2837C32.1592 18.1354 33.0986 18.1354 34.0225 18.2837C34.9542 18.4124 35.8547 18.6852 36.7317 19.114C37.6088 19.5155 38.4235 20.0651 39.1759 20.7668C40.053 21.6673 40.704 22.6457 41.1289 23.6982C41.581 24.7273 41.8072 25.9007 41.8072 27.23C41.8072 28.4852 41.5537 29.6624 41.0548 30.7656C40.5792 31.8688 39.9244 32.8316 39.0979 33.658C38.2715 34.4844 37.3087 35.1354 36.2055 35.6149C35.1023 36.0905 33.9368 36.3283 32.7088 36.3283C31.5082 36.3283 30.3543 36.0903 29.2512 35.6149C28.148 35.112 27.1734 34.4493 26.3198 33.623C25.4933 32.7926 24.8306 31.8298 24.3278 30.7266C23.8249 29.6234 23.5754 28.4618 23.5754 27.23V14.6389C23.5754 14.3387 23.6495 14.0503 23.8015 13.7735C23.9534 13.4733 24.1406 13.2238 24.3667 13.0211C24.5927 12.7988 24.8423 12.6235 25.119 12.4988C25.4192 12.3701 25.7193 12.3234 26.0195 12.3469H26.0194ZM28.4987 27.2301C28.4987 27.807 28.6119 28.3606 28.8379 28.8868C29.0639 29.3858 29.3641 29.8263 29.7422 30.2005C30.1399 30.5786 30.592 30.8788 31.091 31.1049C31.5939 31.3272 32.1318 31.4401 32.7088 31.4401C33.2623 31.4401 33.7885 31.327 34.2875 31.1049C34.8138 30.8788 35.266 30.5786 35.6402 30.2005C36.0417 29.8263 36.3535 29.3858 36.5796 28.8868C36.8056 28.3606 36.9188 27.807 36.9188 27.2301C36.9188 26.6532 36.8056 26.1152 36.5796 25.6162C36.3536 25.09 36.0417 24.6378 35.6402 24.2636C35.266 23.8854 34.8138 23.5853 34.2875 23.3592C33.7885 23.1332 33.2623 23.0201 32.7088 23.0201C32.1318 23.0201 31.5939 23.1448 31.091 23.3982C30.592 23.6242 30.1399 23.9362 29.7422 24.3377C29.3641 24.7119 29.064 25.1641 28.8379 25.6903C28.6118 26.1932 28.4987 26.7039 28.4987 27.2301Z" fill="white"/>
<path d="M53.1546 18.1747C54.285 18.2994 55.3375 18.623 56.3121 19.1492C57.3178 19.6755 58.1676 20.3538 58.8693 21.1802C59.5943 21.9832 60.1596 22.9071 60.5611 23.9596C60.986 24.9887 61.2004 26.0802 61.2004 27.2301V33.8843C61.2004 34.5626 60.9509 35.1356 60.448 35.6151C59.9452 36.0906 59.3838 36.3284 58.7562 36.3284C57.8792 36.3284 57.1775 35.9269 56.6512 35.1239C56.5265 35.1746 56.4133 35.237 56.3121 35.3109C56.2145 35.3616 56.1132 35.4121 56.0119 35.4628C55.4116 35.7394 54.7996 35.95 54.172 36.1021C53.521 36.2503 52.831 36.3281 52.1021 36.3281C50.2231 36.3281 48.547 35.8253 47.0656 34.8234C45.5882 33.7982 44.4851 32.4806 43.76 30.8785C43.5105 30.3015 43.3078 29.7129 43.1597 29.1087C43.031 28.5084 42.9688 27.8847 42.9688 27.2298C42.9688 26.5788 43.031 25.9551 43.1597 25.3509C43.3079 24.7506 43.5105 24.1619 43.76 23.585C44.4851 21.9556 45.5882 20.6419 47.0656 19.6401C48.547 18.6382 50.2231 18.1354 52.1021 18.1354H52.6322C52.8076 18.1354 52.9792 18.147 53.1546 18.1745V18.1747ZM52.067 31.4399C52.6439 31.4399 53.1819 31.3424 53.6808 31.1398C54.2071 30.9138 54.6593 30.6135 55.0374 30.2393C55.4116 29.8612 55.7118 29.4246 55.9379 28.9217C56.1639 28.3955 56.277 27.8341 56.277 27.2299C56.277 26.6803 56.1638 26.154 55.9379 25.6511C55.7118 25.1249 55.3999 24.6766 54.9984 24.2985C54.6203 23.9009 54.172 23.5851 53.6457 23.359C53.1429 23.133 52.6166 23.0238 52.067 23.0238C51.5134 23.0238 50.9911 23.1329 50.4882 23.359C49.9854 23.585 49.5371 23.9009 49.1356 24.2985C48.7574 24.6766 48.4573 25.1249 48.2312 25.6511C48.0091 26.154 47.8921 26.6803 47.8921 27.2299C47.8921 27.8068 48.0088 28.3604 48.2312 28.8866C48.4846 29.3856 48.7964 29.8261 49.1706 30.2003C49.5722 30.5784 50.0243 30.8786 50.5233 31.1047C51.0262 31.327 51.5407 31.4399 52.067 31.4399" fill="white"/>
<path d="M65.2582 12.3469C65.5856 12.3242 65.8975 12.386 66.1976 12.5339C66.5017 12.6586 66.7629 12.834 66.989 13.0601C67.2385 13.2861 67.4256 13.563 67.5542 13.8865C67.679 14.1906 67.7415 14.5025 67.7415 14.8299V19.1491C68.6186 18.7008 69.519 18.4123 70.4468 18.2837C71.398 18.1354 72.3374 18.1354 73.2652 18.2837C74.1929 18.4124 75.0934 18.6852 75.9705 19.114C76.8476 19.5155 77.6623 20.0651 78.4147 20.7668C79.2917 21.6673 79.9427 22.6457 80.3715 23.6982C80.8198 24.7273 81.0459 25.9007 81.0459 27.23C81.0459 28.4852 80.7964 29.6624 80.2936 30.7656C79.818 31.8688 79.167 32.8316 78.3406 33.658C77.5142 34.4844 76.5474 35.1354 75.4442 35.6149C74.345 36.0905 73.1794 36.3283 71.9515 36.3283C70.747 36.3283 69.5931 36.0903 68.4899 35.6149C67.3906 35.112 66.4122 34.4493 65.5585 33.623C64.7321 32.7926 64.0694 31.8298 63.5666 30.7266C63.0676 29.6234 62.8142 28.4618 62.8142 27.23V14.6389C62.8142 14.3387 62.892 14.0503 63.0402 13.7735C63.1921 13.4733 63.3794 13.2238 63.6054 13.0211C63.8315 12.7988 64.081 12.6235 64.3578 12.4988C64.6579 12.3701 64.9581 12.3234 65.2583 12.3469H65.2582ZM67.7414 27.2301C67.7414 27.807 67.8546 28.3606 68.0766 28.8868C68.3027 29.3858 68.6029 29.8263 68.981 30.2005C69.3825 30.5786 69.8308 30.8788 70.3337 31.1049C70.8326 31.3272 71.3745 31.4401 71.9514 31.4401C72.5011 31.4401 73.0273 31.327 73.5302 31.1049C74.0564 30.8788 74.5047 30.5786 74.8828 30.2005C75.2843 29.8263 75.5962 29.3858 75.8223 28.8868C76.0483 28.3606 76.1614 27.807 76.1614 27.2301C76.1614 26.6532 76.0483 26.1152 75.8223 25.6162C75.5963 25.09 75.2843 24.6378 74.8828 24.2636C74.5047 23.8854 74.0564 23.5853 73.5301 23.3592C73.0273 23.1332 72.501 23.0201 71.9514 23.0201C71.3745 23.0201 70.8326 23.1448 70.3337 23.3982C69.8308 23.6242 69.3825 23.9362 68.981 24.3377C68.6029 24.7119 68.3027 25.1641 68.0766 25.6903C67.8543 26.1932 67.7414 26.7039 67.7414 27.2301" fill="white"/>
<path d="M108.411 35.8099C107.659 35.463 107.004 35.0069 106.446 34.4417C105.885 33.8726 105.433 33.2216 105.094 32.477C104.778 31.7442 104.622 30.9645 104.622 30.1264V19.5156C104.583 19.1063 104.712 18.7984 105.031 18.5372C105.378 18.2292 105.76 18.0772 106.177 18.0772C106.54 18.0772 106.863 18.2059 107.16 18.4826C107.456 18.7672 107.627 19.0751 107.698 19.4143V30.0134C107.725 30.9178 108.049 31.6896 108.668 32.2899C109.304 32.8746 110.056 33.1748 110.902 33.1748C111.697 33.1748 112.414 32.8902 113.046 32.3367C113.705 31.7637 114.04 30.984 114.067 30.0524V19.4182C114.067 19.0713 114.204 18.7672 114.519 18.4943C114.839 18.2097 115.19 18.0772 115.588 18.0772C116.024 18.0772 116.383 18.241 116.671 18.5528C116.983 18.8491 117.143 19.2038 117.143 19.6131V30.0056C117.143 31.0074 117.459 31.826 118.137 32.3874C118.792 32.9058 119.521 33.1748 120.308 33.1748C121.228 33.1748 121.996 32.8707 122.593 32.2353C123.205 31.6194 123.513 30.871 123.513 30.0056V19.6131C123.513 19.1921 123.657 18.8451 123.945 18.5528C124.265 18.2292 124.623 18.0772 125.033 18.0772C125.45 18.0772 125.816 18.2291 126.136 18.5333C126.483 18.8178 126.627 19.1141 126.627 19.4182V30.1264C126.627 30.9879 126.456 31.7949 126.12 32.5511C125.777 33.2956 125.317 33.9427 124.733 34.5119C124.148 35.0537 123.466 35.4864 122.678 35.8099C121.926 36.1296 121.139 36.2894 120.308 36.2894C118.843 36.2894 117.35 35.6969 115.825 34.4534L115.576 34.2506L115.338 34.461C114.59 35.1198 113.841 35.5876 113.089 35.8839C112.356 36.1569 111.631 36.2893 110.902 36.2893C110.017 36.2893 109.191 36.1294 108.411 35.8098" fill="white"/>
<path d="M141.693 19.0907C142.684 19.617 143.529 20.2991 144.219 21.1216C144.933 21.9208 145.498 22.8563 145.892 23.9127C146.313 24.938 146.523 26.0294 146.523 27.1833V34.7535C146.523 35.1667 146.379 35.5254 146.059 35.8489C145.736 36.153 145.393 36.2894 145.007 36.2894C144.839 36.2894 144.648 36.2778 144.434 36.2543C144.278 36.2344 144.122 36.1842 143.954 36.102C143.791 35.9969 143.635 35.8605 143.483 35.6889C143.389 35.5562 143.315 35.3497 143.296 35.0379L143.26 34.5155L142.777 34.7104C142.641 34.7651 142.395 34.8858 142.04 35.0808C141.709 35.2601 141.467 35.3887 141.315 35.4666C141.046 35.5914 140.766 35.7006 140.473 35.798C140.173 35.8992 139.857 36.0045 139.534 36.106C138.918 36.2267 138.251 36.2893 137.534 36.2893C135.671 36.2893 134.018 35.7903 132.564 34.7885C131.094 33.7555 130.007 32.4379 129.286 30.8279C129.04 30.2744 128.841 29.6936 128.689 29.0894C128.568 28.4657 128.51 27.8303 128.51 27.1831C128.51 26.5322 128.568 25.9046 128.693 25.3003C128.845 24.7 129.04 24.1114 129.289 23.5345C130.007 21.9011 131.098 20.5835 132.56 19.5778C134.018 18.5799 135.671 18.077 137.534 18.077H138.076C138.216 18.077 138.388 18.0886 138.575 18.1121C139.69 18.2369 140.731 18.5643 141.693 19.0906L141.693 19.0907ZM139.772 32.7536C140.512 32.4496 141.148 32.0325 141.674 31.4945C142.227 30.9371 142.652 30.2978 142.952 29.5727C143.288 28.8399 143.451 28.0447 143.451 27.1832C143.451 26.3957 143.284 25.6356 142.952 24.9066C142.648 24.1582 142.224 23.5189 141.674 22.9888C141.124 22.4313 140.497 21.9908 139.783 21.6556C139.062 21.3203 138.298 21.1527 137.499 21.1527C136.696 21.1527 135.932 21.3205 135.211 21.6556C134.521 21.9635 133.905 22.3962 133.355 22.9498C132.809 23.5072 132.369 24.1504 132.038 24.8716C131.734 25.6005 131.582 26.3763 131.582 27.1832C131.582 28.0213 131.749 28.8087 132.08 29.5416C132.408 30.2627 132.852 30.9059 133.402 31.4633C133.971 31.9818 134.61 32.4184 135.289 32.7498C136.006 33.0577 136.747 33.2136 137.499 33.2136C138.294 33.2136 139.05 33.0617 139.772 32.7536" fill="white"/>
<path d="M85.4429 18.0967C86.0705 18.0967 86.6319 18.3111 87.1347 18.736C87.661 19.1609 87.9222 19.7144 87.9222 20.3888V27.195C87.9222 27.7681 88.0234 28.3099 88.2223 28.8089C88.4483 29.3117 88.7486 29.7483 89.1267 30.1264C89.5009 30.5007 89.9414 30.8008 90.4404 31.0269C90.9666 31.253 91.5319 31.3661 92.1322 31.3661C92.6584 31.3661 93.173 31.2649 93.6759 31.0659C94.2021 30.867 94.6504 30.5903 95.0285 30.2395C95.43 29.8887 95.7419 29.4755 95.968 28.9999C96.2175 28.497 96.3422 27.9591 96.3422 27.3821V20.5019C96.3422 19.8509 96.5682 19.2896 97.0205 18.814C97.496 18.3384 98.0847 18.0967 98.7863 18.0967C99.4373 18.0967 100.014 18.3227 100.513 18.775C101.016 19.1999 101.266 19.7378 101.266 20.3888V34.8666C101.266 36.0945 101.028 37.2601 100.552 38.3633C100.077 39.4626 99.4217 40.441 98.5953 41.2947C97.7689 42.1211 96.7944 42.7838 95.6639 43.2866C94.5139 43.7622 93.2587 44 91.9061 44H90.1246C89.4736 44 88.9084 43.774 88.4367 43.3217C87.9572 42.8461 87.7194 42.2575 87.7194 41.5559C87.7194 40.9283 87.9339 40.3669 88.3587 39.864C88.7837 39.3378 89.3372 39.0766 90.0116 39.0766H92.1711C92.7442 39.0766 93.2821 38.9754 93.785 38.7765C94.2879 38.5504 94.7245 38.2502 95.1025 37.8721C95.4768 37.4979 95.7769 37.0574 96.0031 36.5545C96.1745 36.1569 96.2797 35.732 96.3227 35.2876C95.7497 35.6307 95.0948 35.8918 94.3502 36.0634C93.6252 36.2153 92.8845 36.2894 92.1322 36.2894C90.9042 36.2894 89.7426 36.0515 88.6394 35.576C87.5362 35.1005 86.5578 34.4495 85.708 33.6231C84.8777 32.7927 84.215 31.8182 83.7121 30.6916C83.2366 29.5378 82.9988 28.2826 82.9988 26.9299V20.5018C82.9988 19.8509 83.2248 19.2895 83.6771 18.8139C84.1526 18.3384 84.7412 18.0967 85.4429 18.0967" fill="white"/>
</g>
<defs>
<clipPath id="clip0_736_5449">
<rect width="175.312" height="32" fill="white" transform="translate(0.501953 12)"/>
</clipPath>
</defs>
</svg>
