<svg width="147" height="56" viewBox="0 0 147 56" fill="none" xmlns="http://www.w3.org/2000/svg">
<path d="M14.3119 45.3053C13.221 46.6145 11.8148 46.2751 11.8148 46.2751C11.8148 46.2751 8.22666 46.0569 5.63254 43.5597C2.4808 40.5292 3.78998 38.2503 4.54155 37.5957C7.13568 35.2198 10.0692 37.5957 10.0692 37.5957C11.2572 33.9106 15.0635 33.159 16.6879 36.1895C18.2153 39.1231 15.6211 43.7779 14.3119 45.3053ZM17.9971 35.2198C16.6879 30.7831 10.6268 31.3164 9.43887 36.0925C9.43887 36.0925 5.75376 33.3772 2.82022 36.4077C1.41405 37.9351 0.444288 40.7474 4.66277 44.5295C7.59632 47.0267 10.845 47.6813 11.936 47.7782H12.3724C12.5906 47.7782 14.118 47.9964 15.306 46.469C16.8091 44.7477 19.6214 40.5292 17.9971 35.2198Z" fill="white"/>
<path d="M141.23 40.8686H142.854V29.2799H146.006V27.7525H142.854V23.1946H141.23V27.8495H138.515V29.3769H141.23V40.8686ZM127.459 40.8686H129.084V38.3715L131.145 35.6561L135.484 40.8686H137.642L132.211 34.3712L137.424 27.7525H135.266L129.205 35.7774V23.1946H127.581V40.8686H127.459ZM120.526 40.8686H122.15V33.1832C122.15 32.0922 122.465 31.2437 123.023 30.4679C123.677 29.7163 124.647 29.2799 125.835 29.1587V27.4131C124.429 27.5101 122.902 27.8495 122.15 29.6921V27.8495H120.526C120.526 27.8495 120.526 40.8686 120.526 40.8686ZM105.349 34.347C105.349 30.977 107.846 28.9163 110.658 28.9163C113.689 28.9163 115.871 31.4134 115.871 34.347C115.871 37.3775 113.495 39.6564 110.658 39.6564C107.531 39.6564 105.349 37.2805 105.349 34.347ZM117.616 27.7525H115.992V30.0315C114.586 27.8738 112.307 27.4374 110.901 27.4374C106.561 27.4374 103.846 30.8073 103.846 34.2742C103.846 38.0563 106.779 41.2081 110.901 41.2081C112.307 41.2081 114.586 40.7717 115.992 38.6139V40.8929H117.616C117.616 40.8686 117.616 27.7525 117.616 27.7525ZM83.8927 27.7525H82.2683V40.8686H83.8927V33.2802C83.8927 30.4679 85.2019 28.9405 87.4808 28.9405C89.7598 28.9405 91.0689 30.4679 91.0689 33.2802V40.8686H92.6933V33.2802C92.6933 30.4679 94.0025 28.9405 96.2814 28.9405C98.5604 28.9405 99.8696 30.4679 99.8696 33.2802V40.8686H101.494V33.062C101.494 29.5951 99.3362 27.4374 96.2814 27.4374C94.4389 27.4374 92.9115 28.3102 91.8448 29.9345C90.972 28.3102 89.3476 27.4374 87.4081 27.4374C85.8807 27.4374 84.5957 28.092 83.8199 29.2799C83.7957 29.2557 83.8927 27.7525 83.8927 27.7525Z" fill="white"/>
<path d="M80.7651 27.6313H78.0498L74.0495 37.9351L70.1462 27.6313H67.4309L72.7403 40.6262L70.8008 45.2811H73.3949L80.7651 27.6313ZM55.7209 34.1287C55.7209 31.7528 57.5635 29.4739 60.2788 29.4739C62.873 29.4739 64.8367 31.7528 64.8367 34.1287C64.8367 36.7229 62.679 38.7836 60.2788 38.7836C57.9999 38.9048 55.7209 37.1835 55.7209 34.1287ZM55.8179 40.8686V38.9291C57.2241 40.7716 59.1878 41.208 60.4728 41.208C64.3761 41.208 67.3096 38.0563 67.3096 34.2742C67.3096 30.1527 63.9397 27.3404 60.4728 27.3404C58.6302 27.3404 57.0059 27.995 55.9149 29.4981V23.2189H53.4177V40.8929H55.8179V40.8686ZM47.8173 34.25C47.8173 36.7471 45.7566 38.9048 43.1624 38.9048C40.5683 38.9048 38.6045 36.6259 38.6045 34.25C38.6045 32.1892 40.1319 29.4739 43.1624 29.4739C45.8535 29.4739 47.8173 31.4376 47.8173 34.25ZM50.2902 40.8686V27.6556H47.7931V29.4981C46.8233 28.0919 45.0777 27.2192 43.2352 27.2192C38.4591 27.2192 36.1801 31.0012 36.1801 34.2742C36.1801 37.7411 38.7743 41.208 43.2352 41.208C45.0777 41.208 46.8233 40.4565 47.7931 38.8321V40.8929C47.8173 40.8686 50.2902 40.8686 50.2902 40.8686ZM23.2095 34.1287C23.2095 31.7528 25.0521 29.4739 27.7674 29.4739C30.3615 29.4739 32.3253 31.7528 32.3253 34.1287C32.3253 36.7229 30.1676 38.7836 27.7674 38.7836C25.4884 38.9048 23.2095 37.1835 23.2095 34.1287ZM23.2095 40.8686V38.9291C24.6157 40.7716 26.5794 41.208 27.8644 41.208C31.7677 41.208 34.7012 38.0563 34.7012 34.2742C34.7012 30.1527 31.3313 27.3404 27.8644 27.3404C26.0218 27.3404 24.3975 27.995 23.3065 29.4981V23.2189H20.8093V40.8929C20.8093 40.8686 23.2095 40.8686 23.2095 40.8686Z" fill="white"/>
<path d="M18.2153 43.9962L17.5607 45.3054C19.088 45.9599 22.7732 47.3661 27.0886 47.8995C31.4041 48.4329 33.2709 46.7115 34.1437 45.8387C35.8892 44.3113 37.9258 40.7475 37.9258 40.7475C37.4894 40.4323 36.956 39.8747 36.956 39.8747C35.865 41.499 33.4891 47.0267 28.4948 46.9297C23.4277 46.7115 18.2153 43.9962 18.2153 43.9962ZM41.9503 15.6063C40.4229 10.612 36.7378 8.9876 34.7983 8.33301C32.8587 7.79963 29.0524 7.58144 25.2703 10.2725C21.4882 12.9636 20.3972 17.8852 20.3972 17.8852C14.3362 14.1031 10.3117 14.9517 7.71753 15.9457C5.12341 16.9154 2.18986 20.1642 1.31707 22.3461C0.444283 24.4069 0.444283 25.4979 0.662481 28.092C0.880678 30.6861 3.59602 34.4925 3.59602 34.4925C5.12341 33.7409 6.40835 34.0561 6.40835 34.0561C4.66277 31.3407 3.37783 27.995 4.46881 24.8433C5.5598 21.5946 8.15393 18.564 12.2754 17.7882C16.3969 17.0124 21.173 20.1642 21.173 20.1642C21.7064 16.6972 24.3248 14.3213 25.3915 13.4485C26.4825 12.5757 29.9494 10.7332 33.4163 11.9211C36.8833 13.1091 38.0712 14.7335 39.4774 17.764C40.8835 20.9157 40.8835 26.3222 40.8835 26.3222C42.5079 25.8858 43.2595 26.007 43.2595 26.007C43.3565 24.6008 43.4777 20.6005 41.9503 15.6063Z" fill="white"/>
</svg>
