<svg width="193" height="56" viewBox="0 0 193 56" fill="none" xmlns="http://www.w3.org/2000/svg">
<g clip-path="url(#clip0_736_5162)">
<path d="M75.8258 14.9347C75.8258 13.3123 77.1353 12 78.7473 12C80.3648 12 81.6794 13.3123 81.6794 14.9347C81.6794 16.555 80.3648 17.8687 78.7473 17.8687C77.1353 17.8687 75.8258 16.555 75.8258 14.9347Z" fill="white"/>
<path d="M122.009 34.454C122.009 32.8309 123.318 31.5172 124.93 31.5172C126.547 31.5172 127.862 32.8309 127.862 34.454C127.862 36.0729 126.547 37.388 124.93 37.388C123.318 37.388 122.009 36.0729 122.009 34.454Z" fill="white"/>
<path d="M27.786 33.1857C25.2651 33.1857 23.5132 31.1836 23.5132 28.3226C23.5132 25.4623 25.2651 23.4616 27.786 23.4616C30.3214 23.4616 32.0926 25.4623 32.0926 28.3226C32.0926 31.2288 30.3583 33.1857 27.786 33.1857ZM27.786 19.1875C22.4526 19.1875 18.582 23.0304 18.582 28.3226C18.582 33.6148 22.4526 37.457 27.786 37.457C33.1393 37.457 37.026 33.6148 37.026 28.3226C37.026 23.0304 33.1393 19.1875 27.786 19.1875Z" fill="white"/>
<path d="M70.1561 28.7797C69.9488 28.3895 69.7111 28.0592 69.4579 27.7971L69.2967 27.626L69.4663 27.4632C69.7111 27.2052 69.9614 26.8992 70.2027 26.5446L74.9093 19.5479H69.1958L65.6595 25.0209C65.4593 25.3144 65.0551 25.4625 64.4501 25.4625H63.6441V15.1153C63.6441 13.0457 62.3548 12.764 60.9619 12.764H58.5773L58.5814 37.1881H63.6441V29.8618H64.1184C64.6955 29.8618 65.0885 29.9285 65.2687 30.2422L68.0616 35.5135C68.8417 36.944 69.6191 37.1881 71.0817 37.1881H74.9615L72.072 32.4084L70.1561 28.7797" fill="white"/>
<path d="M94.7338 19.1484C92.1586 19.1484 90.5154 20.2924 89.5947 21.2597L89.2873 21.5706L89.1788 21.1478C88.9083 20.1116 87.9965 19.5413 86.6245 19.5413H84.3555L84.3697 37.1815H89.3979V29.0513C89.3979 28.2564 89.5013 27.5666 89.7114 26.9372C90.2712 25.0324 91.8324 23.8481 93.7838 23.8481C95.3534 23.8481 95.9668 24.6764 95.9668 26.8169V34.5C95.9668 36.3268 96.8117 37.1815 98.64 37.1815H101.033L101.025 25.9622C101.025 21.5045 98.8508 19.1484 94.7352 19.1484" fill="white"/>
<path d="M78.8138 19.55H76.4305L76.4468 33.1894H76.4452V37.1867H78.9892C79.0212 37.1867 79.0469 37.1901 79.0789 37.1901L80.2638 37.1867H81.4433V37.1797H81.4514L81.4616 22.2281C81.4616 20.4242 80.5992 19.55 78.8156 19.55" fill="white"/>
<path d="M47.5358 33.1857C45.0151 33.1857 43.2598 31.1836 43.2598 28.3226C43.2598 25.4623 45.0151 23.4616 47.5358 23.4616C50.066 23.4616 51.842 25.4623 51.842 28.3226C51.842 31.2288 50.1084 33.1857 47.5358 33.1857ZM47.5358 19.1875C42.1972 19.1875 38.3258 23.0304 38.3258 28.3226C38.3258 33.6148 42.1972 37.457 47.5358 37.457C52.8837 37.457 56.7767 33.6148 56.7767 28.3226C56.7767 23.0304 52.8837 19.1875 47.5358 19.1875Z" fill="white"/>
<path d="M155.317 33.1857C152.798 33.1857 151.041 31.1836 151.041 28.3226C151.041 25.4623 152.798 23.4616 155.317 23.4616C157.848 23.4616 159.625 25.4623 159.625 28.3226C159.625 31.2288 157.89 33.1857 155.317 33.1857ZM155.317 19.1875C149.98 19.1875 146.109 23.0304 146.109 28.3226C146.109 33.6148 149.98 37.457 155.317 37.457C160.666 37.457 164.558 33.6148 164.558 28.3226C164.558 23.0304 160.666 19.1875 155.317 19.1875Z" fill="white"/>
<path d="M111.627 32.41C108.878 32.41 107.9 30.0115 107.9 27.7639C107.9 26.7736 108.15 23.5461 111.363 23.5461C112.96 23.5461 115.088 24.0037 115.088 27.9301C115.088 31.6332 113.205 32.41 111.627 32.41V32.41ZM117.698 19.5022C116.744 19.5022 116.01 19.8826 115.642 20.5773L115.503 20.8472L115.27 20.6448C114.458 19.9424 113.003 19.1093 110.64 19.1093C105.938 19.1093 102.773 22.6407 102.773 27.896C102.773 33.1451 106.048 36.8134 110.735 36.8134C112.335 36.8134 113.6 36.44 114.603 35.6806L114.991 35.3892V35.8795C114.991 38.2356 113.467 39.5353 110.705 39.5353C109.363 39.5353 108.141 39.2085 107.324 38.9122C106.257 38.5903 105.632 38.8566 105.2 39.9269L104.8 40.9144L104.236 42.3567L104.586 42.543C106.353 43.4812 108.655 44.041 110.735 44.041C115.017 44.041 120.017 41.849 120.017 35.6806L120.035 19.5022H117.699" fill="white"/>
<path d="M9.05908 32.9841L4.96589 32.98V28.0863C4.96589 27.0404 5.37134 26.4965 6.26764 26.3714H9.05908C11.0514 26.3714 12.3387 27.628 12.3401 29.6607C12.3387 31.747 11.0834 32.9828 9.05908 32.9842V32.9841ZM4.96589 19.7828V18.4949C4.96589 17.3676 5.44289 16.8314 6.48963 16.7626H8.58412C10.3804 16.7626 11.4563 17.8377 11.4563 19.6361C11.4563 21.0074 10.7198 22.6076 8.65017 22.6076H4.96589V19.7828V19.7828ZM14.2867 24.6668L13.5467 24.2509L14.1927 23.6987C14.9438 23.0527 16.2032 21.6006 16.2032 19.0915C16.2032 15.2528 13.2254 12.775 8.61674 12.775H3.35736V12.7734H2.75847C1.3921 12.8235 0.298888 13.9348 0.2836 15.3097V37.0994H2.69731C2.70343 37.101 2.70547 37.0994 2.70751 37.101L8.7207 37.0994C13.8439 37.0994 17.1507 34.3108 17.1507 29.9915C17.1507 27.666 16.0819 25.6778 14.2856 24.6666" fill="white"/>
<path d="M187.02 19.2062C184.934 19.2062 182.917 20.1833 181.622 21.8217L181.258 22.2835L180.972 21.7668C180.041 20.0686 178.438 19.2062 176.209 19.2062C173.872 19.2062 172.304 20.5101 171.576 21.2855L171.1 21.8016L170.916 21.1228C170.65 20.1457 169.781 19.6075 168.463 19.6075H166.349L166.329 37.1795H171.131V29.4227C171.131 28.7433 171.215 28.0708 171.385 27.3677C171.844 25.4936 173.104 23.4775 175.221 23.6792C176.527 23.8044 177.165 24.8134 177.165 26.7627V37.1795H182.001V29.4227C182.001 28.5736 182.08 27.938 182.272 27.3003C182.661 25.511 183.976 23.6764 186.019 23.6764C187.498 23.6764 188.044 24.5137 188.044 26.7627V34.6106C188.044 36.386 188.836 37.1795 190.61 37.1795H192.871L192.875 25.9616C192.875 21.4803 190.902 19.2062 187.019 19.2062" fill="white"/>
<path d="M143.328 31.0786C143.314 31.0959 141.247 33.2748 138.527 33.2748C136.048 33.2748 133.544 31.7539 133.544 28.3588C133.544 25.4276 135.486 23.3789 138.265 23.3789C139.167 23.3789 140.194 23.7022 140.354 24.2461L140.378 24.3379C140.748 25.5709 141.868 25.6369 142.089 25.6369L144.72 25.6396V23.3399C144.72 20.3064 140.861 19.2062 138.265 19.2062C132.712 19.2062 128.684 23.0721 128.684 28.3956C128.684 33.717 132.669 37.5773 138.163 37.5773C142.93 37.5773 145.523 34.4437 145.547 34.4124L145.685 34.2427L143.602 30.7865L143.328 31.0785" fill="white"/>
</g>
<defs>
<clipPath id="clip0_736_5162">
<rect width="192.591" height="32" fill="white" transform="translate(0.2836 12)"/>
</clipPath>
</defs>
</svg>
