<svg width="1939" height="879" viewBox="0 0 1939 879" fill="none" xmlns="http://www.w3.org/2000/svg">
<g clip-path="url(#clip0_805_6898)">
<path d="M839.259 996.287L834.931 1005.1L829.666 996.183L824.416 1005.1L819.166 996.183L813.916 1005.1L808.651 996.183L803.386 1005.1L798.121 996.183L793.258 1005.1L788.409 996.183L783.546 1005.1L778.697 996.183L773.834 1005.1L768.97 996.183L764.107 1005.1L759.244 996.183L754.395 1005.1L749.532 996.183L744.683 1005.1L739.82 996.183L734.957 1005.1L730.108 996.183L725.23 1005.1L720.366 996.183L715.518 1005.1L710.655 996.183L705.806 1005.1L700.943 996.183L696.094 1005.1L691.231 996.183L686.367 1005.1L681.504 996.183L676.641 1005.1L671.777 996.183L666.929 1005.1L662.08 996.183L657.217 1005.1L652.353 996.183L647.49 1005.1L642.627 996.183L637.763 1005.1L632.9 996.183L628.051 1005.1L623.203 996.183L618.339 1005.1L613.476 996.183L608.613 1005.1L603.749 996.183L598.886 1005.1L594.038 996.183L589.189 1005.1L584.326 996.183L579.462 1005.1L574.614 996.183L569.736 1005.1L564.872 996.183L560.024 1005.1L555.16 996.183L550.312 1005.1L545.448 996.183L540.6 1005.1L535.736 996.183L530.873 1005.1L525.995 996.183L521.146 1005.1L516.283 996.183L511.434 1005.1L506.571 996.183L501.722 1005.1L496.859 996.183L491.996 1005.1L487.132 996.183L482.269 1005.1L477.42 996.183L472.557 1005.1L467.709 996.183L462.845 1005.1L457.982 996.183L453.119 1005.1L448.255 996.183L443.392 1005.1L438.543 996.183L433.68 1005.1L428.831 996.183L423.968 1005.1L419.12 996.183L414.241 1005.1L409.378 996.183L405.883 1005.1L402.403 996.183L398.907 1005.1L395.412 996.183L391.917 1005.1L388.422 996.183L384.927 1005.1L382.875 996.435L377 996.971L385.998 993.55L377.223 989.595L386.325 986.472L377.684 982.234L386.875 979.394L378.368 974.903L387.649 972.345L379.335 967.274L388.749 964.716L380.599 959.348L390.088 957.132L382.146 951.496L391.709 949.593L383.96 943.689L393.583 942.128L386.206 935.347L396.067 933.577L388.972 926.514L398.878 925.131L392.081 917.8L402.031 916.818L395.531 909.204L405.526 908.624L399.145 901.115L408.991 901.263L402.893 893.531L412.724 894.021L406.924 886.08L416.725 886.928L411.207 878.779L420.979 879.984L416.472 870.556L426.913 871.15L422.853 861.514L433.249 862.6L429.664 852.785L439.986 854.362L436.863 844.398L447.095 846.45L444.18 836.606L454.07 839.372L451.587 829.423L461.328 832.621L459.291 822.568L468.884 826.182L467.292 816.055L476.722 820.085L475.249 810.121L484.203 814.746L483.146 804.723L491.907 809.72L491.267 799.667L499.804 805.021L499.581 794.939L507.077 792.381L501.96 801.14L498.064 792.217L494.167 801.14L490.271 792.217L486.374 801.14L482.477 792.217L478.566 801.14L474.669 792.217L470.237 801.14L465.805 792.217L461.373 801.14L456.941 792.217L452.509 801.14L448.062 792.217L443.63 801.14L440.908 792.559L434.81 790.998L443.987 785.882L435.524 779.651L445.013 775.131L436.967 768.38L446.723 764.484L439.138 757.227L449.118 753.955L442.053 746.089L452.271 743.352L445.756 735.01L456.138 732.958L450.189 724.214L460.674 722.861L455.32 713.745L465.879 713.076L461.581 702.889L472.617 702.295L469.107 691.826L480.157 692.064L477.45 681.342L488.441 682.413L486.537 671.527L497.439 673.431L495.803 662.902L505.991 666.01L505.054 655.408L515.019 659.17L514.796 648.537L524.478 652.969L524.983 642.336L534.026 639.347L528.464 647.913L524.641 638.99L520.819 647.913L516.982 638.99L513.16 647.913L509.337 638.99L505.5 647.913L503.284 639.303L497.29 638.842L506.437 634.856L497.93 629.637L507.33 626.306L499.239 620.491L508.847 617.874L501.217 611.465L511.018 609.621L503.76 603.108L513.487 602.483L506.735 595.449L516.491 595.583L510.319 588.029L520.031 588.936L514.468 580.921L524.076 582.616L520.328 572.712L530.843 574.065L528.285 563.79L538.562 566.362L537.209 555.849L547.129 559.581L546.95 548.993L556.409 553.782L556.945 543.447L565.452 549.335L566.954 539.09L574.881 545.752L577.321 535.684L584.623 543.015L587.925 533.201L594.573 541.142L599.957 531.52L606.992 539.997L613.357 531L619.485 540.16L626.728 531.848L631.889 541.588L639.964 534.093L644.04 544.324L652.77 537.707L655.625 548.28L665.025 542.673L666.661 553.499L676.655 549.008L676.983 559.953L687.453 556.726L686.412 567.626L697.105 565.634L694.592 576.207L705.434 575.567L701.612 585.739L712.439 586.512L707.353 596.104L718.016 598.215L711.785 607.123L721.72 609.071L714.298 615.971L724.04 618.766L716.068 625.012L725.542 628.596L717.109 634.202L726.286 638.485L720.188 639.347L718.106 647.913L714.283 638.99L710.461 647.913L706.639 638.99L702.802 647.913L698.979 638.99L695.142 647.913L690.085 639.169L697.507 641.727L697.061 651.749L705.613 646.5L704.646 656.493L713.465 651.705L711.948 661.623L721.021 657.311L718.983 667.14L729.513 664.419L728.011 675.171L738.704 673.208L736.444 683.84L747.241 682.636L744.237 693.075L755.094 692.658L751.346 702.845L762.248 703.261L757.801 713.224L768.643 714.429L763.482 724.05L774.206 726.043L768.375 735.248L778.92 738.014L772.421 746.773L782.802 750.535L775.708 758.996L785.776 763.532L778.058 771.428L787.755 776.722L779.47 784.023L788.751 790.016L782.43 792.678L780.021 801.14L775.633 792.217L771.261 801.14L766.873 792.217L762.501 801.14L758.113 792.217L753.711 801.14L749.324 792.217L745.129 801.14L740.935 792.217L736.741 801.14L732.547 792.217L728.353 801.14L724.159 792.217L719.965 801.14L714.402 792.425L722.672 795.295L723.029 805.72L732.235 800.798L732.086 811.237L741.515 806.761L740.891 817.17L750.513 813.14L749.383 823.52L759.169 819.936L757.548 830.226L767.498 827.104L765.386 837.305L775.47 834.643L772.897 844.74L783.085 842.554L780.036 852.517L790.521 851.06L787.19 861.098L797.734 860.146L793.897 870.02L804.486 869.589L800.173 879.255L810.748 879.359L805.974 888.802L816.712 889.754L811.625 899.271L822.304 900.788L816.712 910.022L827.301 912.119L821.218 921.026L831.674 923.673L825.13 932.254L835.273 934.916L828.164 942.604L838.158 945.741L830.677 953.087L840.523 956.701L832.7 963.675L842.352 967.765L834.202 974.353L843.438 976.732L834.871 980.91L844.033 983.543L835.347 987.483L844.42 990.383L835.63 994.056L844.628 997.223L839.259 996.287Z" fill="#096343"/>
<path d="M643.176 591.67C643.429 594.56 644.794 596.858 648.904 596.44C651.811 596.185 653.421 593.635 653.709 590.75C653.934 588.431 650.883 586.348 647.989 585.971C644.653 585.539 642.923 588.781 643.176 591.67Z" fill="black"/>
<path d="M610.877 598.044C611.13 600.936 612.488 603.237 616.601 602.818C619.51 602.563 621.13 600.011 621.41 597.123C621.636 594.812 618.582 592.727 615.686 592.35C612.347 591.917 610.624 595.152 610.877 598.044Z" fill="black"/>
<path d="M645.93 606.588C645.93 606.588 638.393 616.159 625.79 609.833" stroke="black" stroke-width="5" stroke-linecap="round" stroke-linejoin="round"/>
<path d="M1168.64 891L1164.16 879.788L1155.59 878.131L1166.66 869.828L1155 862.392L1166.71 855.033L1155.61 846.769L1167.79 840.16L1157.2 831.261L1169.69 825.327L1159.57 815.906L1172.33 810.55L1162.62 800.687L1175.59 795.871L1166.25 785.641L1179.39 781.307L1170.43 770.769L1183.7 766.858L1175.08 756.031L1188.45 752.544L1180.18 741.448L1193.66 738.385L1185.71 727.038L1199.26 724.36L1191.64 712.802L1205.28 710.509L1197.97 698.739L1211.67 696.831L1204.71 684.868L1218.46 683.346L1211.84 671.189L1225.61 670.072L1219.42 657.627L1233.27 656.857L1227.46 644.218L1241.35 643.892L1235.94 631.08L1249.83 631.215L1244.89 618.211L1258.76 618.867L1254.31 605.689L1268.15 606.884L1264.24 593.533L1277.99 595.345L1274.71 581.84L1288.38 584.287L1285.79 570.627L1299.28 573.826L1297.5 560.051L1310.77 564.078L1309.9 550.207L1322.85 555.196L1323.06 541.288L1335.57 547.356L1337.03 533.524L1348.86 540.768L1351.78 527.185L1362.7 535.759L1367.31 522.62L1376.99 532.56L1383.36 520.211L1391.51 531.463L1397.93 520L1403.51 531.887L1410.76 520.944L1415.39 533.215L1423.49 522.89L1427.09 535.508L1436.03 525.914L1438.55 538.803L1448.29 530.018L1449.69 543.06L1460.12 535.123L1460.46 548.242L1471.47 541.133L1470.87 554.233L1482.33 547.876L1480.95 560.918L1492.74 555.177L1490.74 568.142L1502.74 562.884L1500.32 575.791L1512.46 570.859L1509.77 583.708L1522 578.95L1519.19 591.781L1531.42 587.06L1528.67 599.91L1540.85 595.055L1538.3 607.924L1550.37 602.839L1548.14 615.785L1559.34 609.774L1556.74 622.218L1567.72 615.842L1565.57 628.384L1576.3 621.602L1574.66 634.201L1585.09 626.977L1584.01 639.634L1594.11 631.928L1593.63 644.642L1603.35 636.455L1603.5 649.15L1612.79 640.482L1613.6 653.177L1622.41 644.026L1623.87 656.664L1632.22 647.089L1634.32 659.63L1642.18 649.651L1644.87 662.077L1652.27 651.732L1655.53 664.023L1662.46 653.351L1666.26 665.487L1672.71 654.545L1677.01 666.489L1683.02 655.297L1687.77 667.086L1693.36 655.662L1698.54 667.259L1704.6 655.797L1709.92 667.625L1716.69 656.587L1721.19 668.742L1728.69 658.185L1732.32 670.611L1740.56 660.613L1743.28 673.29L1752.23 663.927L1754.04 676.758L1763.64 668.088L1764.48 681.015L1774.7 673.077L1774.6 686.023L1785.38 678.857L1784.33 691.765L1795.59 685.369L1793.69 698.198L1805.32 692.554L1802.57 705.23L1814.57 700.357L1811.03 712.821L1823.28 708.678L1819.06 720.912L1831.52 717.463L1826.61 729.465L1839.26 726.652L1833.75 738.404L1846.52 736.208L1840.46 747.67L1852.89 745.417L1845.98 755.993L1858.47 754.182L1851.18 764.508L1863.72 763.14L1856.1 773.196L1868.68 772.233L1860.76 782.058L1873.36 781.48L1865.12 791.055L1877.75 790.843L1869.26 800.186L1881.85 800.321L1873.13 809.433L1885.73 809.877L1876.76 818.757L1889.36 819.547L1880.16 828.197L1892.72 829.296L1883.34 837.733L1895.88 839.12L1886.28 847.327L1898.79 849.003L1888.99 856.979L1901.44 858.963L1891.48 866.688L1903.87 869L1893.68 876.436L1906 879.133L1899.61 879.691L1894.98 891L1888.73 879.441L1882.48 891L1876.22 879.441L1869.97 891L1863.72 879.441L1857.46 891L1851.23 879.441L1844.98 891L1838.74 879.441L1832.48 891L1826.25 879.441L1820 891L1813.77 879.441L1807.51 891L1801.28 879.441L1795.05 891L1788.82 879.441L1782.57 891L1776.31 879.441L1770.08 891L1763.83 879.441L1757.6 891L1751.34 879.441L1745.11 891L1738.86 879.441L1732.63 891L1726.37 879.441L1720.14 891L1713.9 879.441L1707.79 891L1701.68 879.441L1695.58 891L1689.47 879.441L1683.36 891L1677.27 879.441L1671.17 891L1665.08 879.441L1658.97 891L1652.88 879.441L1646.78 891L1640.68 879.441L1634.58 891L1628.49 879.441L1622.41 891L1616.31 879.441L1610.24 891L1604.13 879.441L1598.04 891L1591.94 879.441L1585.84 891L1579.74 879.441L1573.67 891L1567.56 879.441L1561.47 891L1555.37 879.441L1549.27 891L1543.2 879.441L1537.1 891L1531 879.441L1525.16 891L1519.28 879.441L1513.44 891L1507.59 879.441L1501.74 891L1495.9 879.441L1490.05 891L1484.2 879.441L1478.35 891L1472.5 879.441L1466.66 891L1460.83 879.441L1454.98 891L1449.14 879.441L1443.28 891L1437.45 879.441L1431.62 891L1425.78 879.441L1419.95 891L1414.1 879.441L1408.26 891L1402.41 879.441L1396.58 891L1390.74 879.441L1384.88 891L1379.05 879.441L1373.21 891L1367.38 879.441L1361.53 891L1355.69 879.441L1349.22 891L1342.76 879.441L1336.3 891L1329.83 879.441L1323.39 891L1316.95 879.441L1310.48 891L1304.04 879.441L1297.57 891L1291.13 879.441L1284.67 891L1278.22 879.441L1271.78 891L1265.34 879.441L1258.89 891L1252.45 879.441L1246.01 891L1239.56 879.441L1233.1 891L1226.66 879.441L1220.21 891L1213.77 879.441L1207.32 891L1200.86 879.441L1194.41 891L1187.97 879.441L1181.52 891L1175.08 879.441L1168.64 891Z" fill="#BBE603"/>
<path d="M1616.84 767.725C1616.56 770.825 1615.1 773.29 1610.69 772.841C1607.57 772.568 1605.84 769.833 1605.54 766.737C1605.29 764.25 1608.57 762.015 1611.67 761.611C1615.25 761.148 1617.11 764.625 1616.84 767.725Z" fill="black"/>
<path d="M1651.49 774.562C1651.21 777.664 1649.76 780.132 1645.34 779.683C1642.22 779.41 1640.49 776.671 1640.19 773.574C1639.94 771.094 1643.22 768.858 1646.33 768.453C1649.91 767.989 1651.76 771.46 1651.49 774.562Z" fill="black"/>
<path d="M1613.88 783.726C1613.88 783.726 1621.97 793.993 1635.49 787.206" stroke="black" stroke-width="5" stroke-linecap="round" stroke-linejoin="round"/>
<path d="M409 368L409 879" stroke="#054A3E" stroke-width="6"/>
<path d="M539.724 305.752L533.661 309.13L539.603 312.71L533.44 315.887L539.261 319.647L532.998 322.633L538.709 326.575L532.364 329.37L537.954 333.472L531.52 336.076L536.989 340.349L530.494 342.773L535.833 347.197L529.257 349.419L534.465 354.004L527.829 356.035L532.897 360.78L526.201 362.6L531.117 367.497L524.371 369.105L529.127 374.163L522.33 375.55L526.915 380.758L520.078 381.925L524.481 387.284L517.604 388.199L521.807 393.719L514.899 394.382L518.901 400.053L511.974 400.455L515.734 406.277L508.796 406.387L512.315 412.37L505.378 412.179L508.625 418.312L501.708 417.809L504.654 424.083L497.767 423.239L500.401 429.664L493.574 428.457L495.866 435.013L489.11 433.444L491.03 440.11L484.374 438.17L485.912 444.936L479.377 442.594L480.503 449.441L474.128 446.716L474.822 453.613L468.639 450.486L468.89 457.414L462.908 453.895L462.717 460.833L456.986 456.931L456.342 463.839L450.862 459.566L449.776 466.423L444.588 461.808L443.07 468.585L438.184 463.658L436.243 470.314L431.668 465.106L429.336 471.641L425.073 466.171L422.368 472.566L418.417 466.865L415.37 473.099L411.71 467.197L408.352 473.28L405.004 467.197L401.354 473.099L398.328 466.855L394.356 472.546L391.692 466.141L387.408 471.601L385.106 465.055L380.511 470.254L378.611 463.577L373.704 468.474L372.226 461.697L367.018 466.282L365.982 459.425L360.483 463.658L359.889 456.74L354.138 460.611L353.997 453.674L347.995 457.163L348.296 450.235L342.093 453.332L342.837 446.434L336.452 449.139L337.619 442.302L331.073 444.605L332.642 437.848L325.985 439.778L327.936 433.122L321.169 434.681L323.482 428.135L316.655 429.332L319.299 422.917L312.412 423.772L315.368 417.498L308.45 418.02L311.688 411.887L304.76 412.088L308.269 406.106L301.332 406.025L305.082 400.194L298.155 399.822L302.136 394.141L295.229 393.508L299.412 387.978L292.534 387.093L296.918 381.724L290.071 380.598L294.636 375.379L287.839 374.022L292.564 368.955L285.818 367.386L290.704 362.469L283.998 360.68L289.045 355.924L282.399 353.933L287.587 349.328L281.002 347.136L286.321 342.692L279.805 340.309L285.255 336.016L278.82 333.442L284.4 329.32L278.036 326.545L283.736 322.593L277.462 319.627L283.284 315.857L277.111 312.7L283.053 309.12L277 305.752L283.103 301.62L277.312 297.065L283.666 293.315L278.106 288.458L284.621 284.999L279.252 279.932L285.888 276.694L280.68 271.456L287.396 268.41L282.329 263.04L289.116 260.155L284.159 254.675L291.016 251.93L286.17 246.36L293.077 243.746L288.342 238.085L295.289 235.592L290.654 229.851L297.642 227.478L293.107 221.656L300.135 219.394L295.691 213.502L302.75 211.35L298.396 205.388L305.494 203.357L301.241 197.324L308.36 195.394L304.197 189.301L311.356 187.491L307.294 181.328L314.473 179.628L310.512 173.395L317.721 171.816L313.87 165.522L321.109 164.064L317.369 157.7L324.628 156.382L321.009 149.948L328.298 148.771L324.809 142.266L332.119 141.24L328.771 134.655L336.1 133.8L332.903 127.144L340.253 126.46L337.237 119.734L344.606 119.251L341.791 112.434L349.171 112.183L346.577 105.265L353.967 105.285L351.645 98.2775L359.014 98.5992L357.014 91.5008L364.364 92.1844L362.745 84.9854L370.034 86.1015L368.888 78.812L376.077 80.4609L375.534 73.101L382.542 75.4136L382.773 68.0335L389.449 71.1504L390.676 63.8811L396.789 67.9933L399.263 61.0356L404.461 66.2539L408.352 60L412.253 66.2539L417.451 61.0457L419.925 67.9933L426.048 63.8811L427.264 71.1605L433.951 68.0335L434.172 75.4136L441.18 73.1111L440.637 80.4609L447.826 78.812L446.68 86.1015L453.969 84.9854L452.35 92.1844L459.7 91.4907L457.689 98.5992L465.059 98.2674L462.737 105.275L470.117 105.255L467.533 112.163L474.903 112.404L472.087 119.221L479.447 119.684L476.431 126.42L483.781 127.094L480.593 133.75L487.923 134.604L484.575 141.18L491.875 142.206L488.386 148.711L495.675 149.887L492.056 156.322L499.315 157.629L495.575 163.994L502.814 165.441L498.953 171.746L506.162 173.314L502.211 179.548L509.39 181.247L505.328 187.411L512.486 189.22L508.324 195.323L515.452 197.244L511.189 203.277L518.288 205.318L513.944 211.28L521.002 213.432L516.558 219.334L523.587 221.596L519.052 227.417L526.04 229.79L521.415 235.541L528.362 238.035L523.627 243.706L530.524 246.32L525.688 251.9L532.545 254.645L527.598 260.125L534.385 263.02L529.318 268.389L536.034 271.456L530.826 276.684L537.462 279.922L532.093 284.989L538.608 288.458L533.048 293.315L539.402 297.065L533.601 301.63L539.724 305.752Z" fill="#00AA3D"/>
<path d="M448.921 347.926C448.921 350.666 447.82 352.939 443.914 352.896C441.154 352.896 439.407 350.622 438.908 347.926C438.497 345.754 441.213 343.553 443.914 342.955C447.027 342.212 448.921 345.113 448.921 347.926Z" fill="black"/>
<path d="M481.095 350.941C481.095 353.689 479.994 355.97 476.087 355.911C473.326 355.911 471.593 353.645 471.079 350.941C470.683 348.763 473.385 346.555 476.087 345.956C479.201 345.269 481.095 348.178 481.095 350.941Z" fill="black"/>
<path d="M440.878 359.934L475.063 364.015C475.063 364.015 472.15 369.634 470.183 371.409C468.217 373.183 467.751 374.721 463.017 375.49C459.126 376.207 455.14 376.207 451.249 375.49C446.879 374.824 442.218 370.418 442.073 369.102C441.927 367.786 440.835 364.252 440.878 363.365C440.922 362.477 440.878 359.934 440.878 359.934Z" fill="black"/>
<path d="M1689 443V879" stroke="#054A3E" stroke-width="6"/>
<path d="M1442.76 688.147L1447.4 697.607L1453.05 688.035L1458.68 697.607L1464.32 688.035L1469.95 697.607L1475.6 688.035L1481.24 697.607L1486.89 688.035L1492.11 697.607L1497.31 688.035L1502.53 697.607L1507.73 688.035L1512.95 697.607L1518.16 688.035L1523.38 697.607L1528.6 688.035L1533.8 697.607L1539.02 688.035L1544.22 697.607L1549.44 688.035L1554.65 697.607L1559.85 688.035L1565.09 697.607L1570.3 688.035L1575.51 697.607L1580.72 688.035L1585.92 697.607L1591.14 688.035L1596.34 697.607L1601.56 688.035L1606.78 697.607L1612 688.035L1617.21 697.607L1622.43 688.035L1627.63 697.607L1632.83 688.035L1638.05 697.607L1643.27 688.035L1648.48 697.607L1653.7 688.035L1658.92 697.607L1664.14 688.035L1669.34 697.607L1674.54 688.035L1679.76 697.607L1684.97 688.035L1690.19 697.607L1695.41 688.035L1700.63 697.607L1705.83 688.035L1711.03 697.607L1716.25 688.035L1721.46 697.607L1726.66 688.035L1731.9 697.607L1737.11 688.035L1742.32 697.607L1747.53 688.035L1752.73 697.607L1757.95 688.035L1763.15 697.607L1768.37 688.035L1773.59 697.607L1778.82 688.035L1784.02 697.607L1789.24 688.035L1794.44 697.607L1799.66 688.035L1804.86 697.607L1810.08 688.035L1815.29 697.607L1820.51 688.035L1825.73 697.607L1830.93 688.035L1836.15 697.607L1841.35 688.035L1846.57 697.607L1851.78 688.035L1857 697.607L1862.22 688.035L1867.44 697.607L1872.64 688.035L1877.85 697.607L1883.06 688.035L1888.27 697.607L1893.47 688.035L1898.71 697.607L1903.92 688.035L1907.67 697.607L1911.41 688.035L1915.16 697.607L1918.91 688.035L1922.66 697.607L1926.41 688.035L1930.15 697.607L1932.36 688.306L1938.66 688.881L1929.01 685.211L1938.42 680.968L1928.65 677.618L1937.92 673.071L1928.06 670.024L1937.19 665.207L1927.23 662.463L1936.15 657.023L1926.05 654.279L1934.8 648.52L1924.62 646.143L1933.14 640.097L1922.88 638.055L1931.19 631.722L1920.87 630.047L1928.78 622.772L1918.2 620.874L1925.81 613.296L1915.19 611.813L1922.48 603.948L1911.81 602.895L1918.78 594.727L1908.06 594.105L1914.9 586.049L1904.34 586.208L1910.88 577.913L1900.33 578.439L1906.56 569.921L1896.04 570.83L1901.96 562.088L1891.48 563.38L1896.31 553.266L1885.11 553.904L1889.47 543.567L1878.32 544.731L1882.16 534.202L1871.09 535.893L1874.44 525.205L1863.46 527.406L1866.59 516.846L1855.98 519.813L1858.64 509.141L1848.19 512.57L1850.38 501.786L1840.09 505.663L1841.8 494.799L1831.68 499.122L1833.26 488.434L1823.65 493.395L1824.79 482.643L1815.39 488.003L1816.08 477.219L1806.92 482.962L1807.16 472.146L1799.12 469.402L1804.6 478.798L1808.78 469.227L1812.96 478.798L1817.14 469.227L1821.33 478.798L1825.51 469.227L1829.7 478.798L1833.88 469.227L1838.64 478.798L1843.39 469.227L1848.15 478.798L1852.9 469.227L1857.65 478.798L1862.43 469.227L1867.18 478.798L1870.1 469.594L1876.64 467.918L1866.8 462.431L1875.88 455.746L1865.7 450.897L1874.33 443.654L1863.86 439.475L1872 431.69L1861.29 428.18L1868.87 419.741L1857.91 416.806L1864.9 407.856L1853.76 405.655L1860.14 396.275L1848.9 394.823L1854.64 385.044L1843.31 384.326L1847.92 373.398L1836.08 372.76L1839.85 361.529L1827.99 361.785L1830.9 350.283L1819.11 351.431L1821.15 339.754L1809.45 341.796L1811.21 330.501L1800.28 333.835L1801.29 322.461L1790.6 326.497L1790.84 315.091L1780.45 319.845L1779.91 308.439L1770.21 305.232L1776.17 314.421L1780.27 304.849L1784.37 314.421L1788.49 304.849L1792.59 314.421L1796.69 304.849L1800.81 314.421L1803.18 305.184L1809.61 304.69L1799.8 300.414L1808.93 294.815L1798.84 291.241L1807.52 285.004L1797.22 282.196L1805.4 275.321L1794.89 273.342L1802.67 266.355L1792.24 265.685L1799.48 258.139L1789.02 258.283L1795.64 250.179L1785.22 251.152L1791.19 242.554L1780.88 244.372L1784.9 233.748L1773.62 235.199L1776.36 224.176L1765.34 226.936L1766.79 215.657L1756.15 219.661L1756.34 208.303L1746.19 213.44L1745.62 202.352L1736.49 208.67L1734.88 197.678L1726.38 204.825L1723.76 194.025L1715.93 201.89L1712.38 191.361L1705.25 199.88L1699.48 189.558L1691.93 198.651L1685.1 189L1678.53 198.827L1670.76 189.909L1665.22 200.358L1656.56 192.318L1652.19 203.294L1642.82 196.195L1639.76 207.537L1629.67 201.523L1627.92 213.137L1617.2 208.319L1616.85 220.06L1605.61 216.598L1606.73 228.292L1595.26 226.154L1597.95 237.496L1586.32 236.81L1590.42 247.722L1578.81 248.552L1584.27 258.841L1572.83 261.107L1579.51 270.662L1568.85 272.752L1576.81 280.154L1566.36 283.153L1574.92 289.853L1564.75 293.698L1573.8 299.712L1563.95 304.307L1570.5 305.232L1572.73 314.421L1576.83 304.849L1580.93 314.421L1585.03 304.849L1589.15 314.421L1593.25 304.849L1597.36 314.421L1602.79 305.041L1594.83 307.784L1595.31 318.537L1586.13 312.905L1587.17 323.626L1577.71 318.489L1579.33 329.129L1569.6 324.503L1571.79 335.048L1560.49 332.128L1562.1 343.662L1550.63 341.557L1553.06 352.963L1541.47 351.671L1544.7 362.869L1533.05 362.423L1537.07 373.35L1525.38 373.797L1530.15 384.485L1518.51 385.778L1524.05 396.099L1512.55 398.237L1518.8 408.111L1507.49 411.079L1514.46 420.475L1503.33 424.511L1510.94 433.588L1500.13 438.454L1508.41 446.925L1498.01 452.604L1506.9 460.437L1496.94 466.866L1503.72 469.721L1506.31 478.798L1511.02 469.227L1515.71 478.798L1520.41 469.227L1525.1 478.798L1529.81 469.227L1534.53 478.798L1539.24 469.227L1543.74 478.798L1548.24 469.227L1552.74 478.798L1557.24 469.227L1561.74 478.798L1566.24 469.227L1570.74 478.798L1576.7 469.45L1567.83 472.529L1567.45 483.712L1557.57 478.431L1557.73 489.63L1547.62 484.828L1548.29 495.995L1537.96 491.672L1539.18 502.807L1528.68 498.963L1530.42 510.002L1519.74 506.652L1522.01 517.595L1511.19 514.74L1513.95 525.572L1503.02 523.227L1506.29 533.915L1495.04 532.352L1498.62 543.12L1487.31 542.099L1491.42 552.692L1480.06 552.229L1484.69 562.598L1473.35 562.71L1478.47 572.84L1466.95 573.861L1472.4 584.071L1460.95 585.698L1466.95 595.605L1455.59 597.854L1462.11 607.41L1450.9 610.249L1457.92 619.454L1447.04 622.31L1454.66 630.557L1443.94 633.923L1451.97 641.804L1441.4 645.68L1449.8 653.162L1439.44 657.549L1448.18 664.616L1438.28 667.169L1447.47 671.652L1437.64 674.475L1446.96 678.703L1437.22 681.813L1446.65 685.754L1437 689.152L1442.76 688.147Z" fill="#096343"/>
<path d="M1643.11 254.084C1642.84 257.184 1641.37 259.65 1636.97 259.2C1633.85 258.928 1632.12 256.192 1631.81 253.096C1631.57 250.609 1634.84 248.375 1637.95 247.97C1641.53 247.507 1643.38 250.984 1643.11 254.084Z" fill="black"/>
<path d="M1677.76 260.921C1677.49 264.024 1676.03 266.492 1671.62 266.042C1668.5 265.769 1666.76 263.031 1666.46 259.934C1666.22 257.454 1669.5 255.217 1672.6 254.813C1676.18 254.349 1678.03 257.819 1677.76 260.921Z" fill="black"/>
<path d="M1640.16 270.085C1640.16 270.085 1648.24 280.352 1661.76 273.565" stroke="black" stroke-width="5" stroke-linecap="round" stroke-linejoin="round"/>
<g clip-path="url(#clip1_805_6898)">
<path d="M670.534 812.694L681.346 808.431L672.586 801.524L682.67 796.821L673.022 791.26L682.332 785.131L671.971 781.029L680.311 773.619L669.677 771.657L677.224 763.892L666.429 763.227L673.022 754.617L662.227 755.216L667.786 745.91L657.12 747.727L661.612 737.852L651.204 740.787L654.614 730.475L644.562 734.495L646.889 723.892L637.305 728.935L638.55 718.136L630.324 724.589L631.503 714.196L623.827 721.265L624.167 710.823L617.087 718.493L616.586 708.051L610.138 716.271L608.004 705.716L601.588 714.358L598.453 704.046L592.91 713.272L588.773 703.332L584.15 713.044L583.358 705.554L576.473 702.489L587.107 701.014L578.833 694.172L589.208 691.448L580.174 685.643L590.162 681.671L580.498 677.017L589.919 671.846L579.754 668.375L588.482 662.117L577.976 659.88L585.928 652.633L575.229 651.627L582.308 643.52L571.738 644.055L578.138 635.607L567.682 637.18L573.225 628.133L562.962 630.711L567.617 621.194L557.645 624.728L560.587 614.06L550.276 617.983L551.972 607.039L542.162 612.098L542.631 601.039L533.452 607.185L532.676 596.143L523.965 603.196L521.605 592.22L513.799 600.245L510.162 589.641L503.359 598.543L498.51 588.426L489.33 596.695L497.475 587.598L487.375 583.01L496.183 576.281L485.565 573.12L493.338 565.207L482.381 563.602L488.943 554.652L477.128 553.436L481.185 542.232L469.354 543.156L471.423 531.434L459.901 534.304L460.078 522.403L449.121 526.991L449.007 515.869L440.006 522.37L438.713 511.312L430.422 518.706L428.013 507.842L420.498 516.031L417.056 505.459L409.379 514.198L403.739 504L397.113 513.583L390.342 504.113L384.895 514.426L377.008 505.848L372.903 516.76L365.533 508.783L364.111 519.565L355.966 512.398L355.691 523.278L346.802 517.052L347.771 527.883L338.221 522.727L340.305 533.51L330.043 529.715L333.468 540.124L322.818 537.677L327.537 547.567L316.66 546.496L318.697 558.283L317.372 545.946L307.077 550.258L307.61 539.086L298.236 545.151L296.862 534.044L288.604 541.584L285.501 530.833L277.291 539.395L271.15 529.245L264.508 539.07L256.815 530.055L251.805 540.822L242.786 533.12L239.522 544.535L230.811 537.709L230.471 548.799L220.92 543.189L222.115 554.215L211.853 550.048L214.698 560.765L203.934 558.3L209.025 567.655L198.52 566.05L204.952 574.53L194.334 574.563L202.011 581.923L191.522 583.642L197.987 593.16L190.294 583.642L184.314 593.095L178.819 583.35L173.68 593.29L167.361 584.064L163.11 594.425L156.015 585.783L152.508 596.5L144.492 588.571L141.939 599.58L133.26 592.397L131.692 603.569L122.415 597.197L121.85 608.466L112.719 602.515L113.721 613.395L104.153 608.174L105.995 618.924L96.056 614.481L98.7548 625.052L88.4924 621.437L91.5469 632.267L80.5086 630.16L84.5975 640.65L73.4137 639.645L78.5207 649.682L67.3046 649.811L73.4299 659.263L61.7612 661.89L68.6138 671.715L57.4138 675.898L65.543 684.687L55.0381 690.41L64.3148 697.966L54.9734 703.251L58.4966 710.921L50.3674 704.403L52.1937 714.683L43.6442 708.716L46.1653 718.866L37.228 713.498L40.4603 723.438L30.2624 719.547L33.5271 729.988L23.0059 727.102L27.2564 737.17L16.509 735.307L21.713 744.921L10.8364 744.111L16.3151 754.422L4.80805 756.206L11.5151 765.756L0.315149 768.934L8.10503 777.592L-2.62626 782.083L6.13333 789.768L-4 795.281L5.56764 801.718L-3.88686 808.301L6.32725 813.635L-2.36768 821.239L8.37974 825.422L0.573742 833.919L11.2888 835.735L3.85453 843.696L14.6989 844.555L7.97571 853.132L18.8524 853.035L12.9211 862.179L23.7493 861.109L18.2706 870.222L28.5978 867.773L23.8463 877.29L33.9473 874.032L29.9715 883.89L39.7654 879.836L36.5977 889.986L47.7492 886.452L47.5391 898.19L58.1896 893.342L59.3693 905.016L69.3895 898.952L71.8945 910.415L83.1268 904.433L74.9652 912.231L84.953 915.539L75.9511 920.987L86.2782 922.933L78.1005 929.547L88.5894 930.035L81.4298 937.736L91.8379 936.649L85.7126 945.162L95.8782 942.697L90.9167 951.939L100.694 948.194L96.8964 957.987L106.173 953.106L105.365 964.554L115.612 959.43L116.646 970.86L125.971 964.213L128.702 975.352L136.977 967.423L141.243 978.076L147.902 969.045L153.09 979L158.504 969.158L164.984 978.335L168.993 967.828L176.702 975.984L179.126 965.008L188.387 971.688L189.276 960.273L199.587 965.186L198.358 953.804L209.413 956.674L206.051 945.729L215.474 948.194L218.996 940.298L221.712 950.756L227.594 941.708L231.667 951.712L236.371 941.984L241.623 951.421L245.146 941.205L250.641 950.123L252.37 939.779L258.673 948.145L259.417 937.687L266.496 945.405L266.204 934.915L274.01 941.886L272.524 931.575L280.847 937.817L278.309 927.716L287.247 933.002L283.578 923.257L293.097 927.44L291.109 916.528L295.376 927.473L302.568 919.284L305.477 929.807L311.812 920.938L315.739 931.121L321.218 921.685L326.05 931.462L330.479 921.57L335.942 930.926L339.545 920.711L345.751 929.564L348.515 919.09L355.416 927.424L357.323 916.755L365.129 924.425L366.39 913.545L374.826 920.5L375.133 909.556L384.151 915.75L383.472 904.822L393.008 910.14L391.133 899.455L400.975 903.962L398.066 893.505L408.313 896.975L404.305 886.889L414.874 889.175L411.788 877.875L416.07 888.138L422.39 879.804L423.828 890.181L429.646 881.491L431.666 891.754L436.984 882.739L437.29 891.98L446.001 889.419L438.745 896.828L449.04 895.758L442.236 903.573L452.45 901.887L446.115 910.092L456.215 907.772L450.914 917.079L461.322 914.696L456.782 924.392L466.963 921.149L463.229 931.186L473.104 927.148L470.179 937.444L479.327 932.321L476.756 942.503L485.5 936.714L483.658 947.059L491.981 940.687L490.85 951.129L498.704 944.189L498.736 954.874L506.51 947.561L507.318 958.23L514.526 950.367L516.094 960.938L522.752 952.588L525.031 963.03L531.156 954.241L534.179 964.521L539.706 955.36L543.39 965.413L548.32 955.912L552.635 965.721L556.95 955.928L562.72 965.381L567.196 955.247L573.629 964.262L577.363 953.82L584.409 962.365L587.399 951.679L595.043 959.69L597.064 948.891L605.031 956.43L606.275 945.519L614.76 952.458L615.229 941.481L624.198 947.788L623.859 936.812L632.537 942.892L630.76 932.418L639.81 937.915L637.338 927.602L646.744 932.45L643.544 922.333L653.289 926.499L649.167 916.853L658.962 920.533L654.178 911.21L664.214 914.178L658.751 905.227L668.981 907.433L662.856 898.92L673.782 899.325L667.366 890.44L678.274 889.742L670.986 881.571L681.766 879.739L673.685 872.362L684.206 869.427L675.365 863.395L685.531 860.006L676.173 854.786L686 850.522L676.254 846.095L685.693 841.053L675.624 837.421L684.788 832.719L674.671 830.758L683.575 825.537L673.362 824.142L681.976 818.451L671.697 817.575L670.534 812.694Z" fill="#FFB6E6"/>
<path d="M459.876 665.722C459.876 668.782 458.646 671.321 454.285 671.273C451.202 671.273 449.251 668.733 448.694 665.722C448.234 663.297 451.268 660.839 454.285 660.172C457.761 659.342 459.876 662.581 459.876 665.722Z" fill="black"/>
<path d="M495.806 669.084C495.806 672.153 494.576 674.7 490.214 674.635C487.131 674.635 485.196 672.104 484.622 669.084C484.179 666.652 487.196 664.186 490.214 663.517C493.691 662.75 495.806 665.999 495.806 669.084Z" fill="black"/>
<path d="M450.895 679.136L489.07 683.694C489.07 683.694 485.817 689.969 483.621 691.95C481.426 693.932 480.905 695.649 475.619 696.508C471.273 697.309 466.821 697.309 462.476 696.508C457.597 695.765 452.392 690.844 452.229 689.374C452.066 687.904 450.846 683.958 450.895 682.967C450.944 681.976 450.895 679.136 450.895 679.136Z" fill="black"/>
</g>
<path d="M212 528L212 879" stroke="#054A3E" stroke-width="6"/>
<path d="M63.517 511.608L55.1121 511.254L57.6372 503.673L50.2814 506.818L53.0139 499.297L45.5727 502.234L48.537 494.811L40.9982 497.517L44.1942 490.191L36.5822 492.641L40.0345 485.425L32.3371 487.607L36.0455 480.525L28.2749 482.402L32.276 475.479L24.4201 477.015L28.7262 470.286L20.8215 471.456L25.457 464.935L17.4912 465.703L22.4683 459.45L14.4781 459.767L19.8211 453.818L11.831 453.635L17.296 447.333L9.09845 445.712L15.1368 439.947L7.13447 437.521L13.7462 432.426L6.07319 429.123L13.2461 424.844L6.06098 420.602L13.734 417.311L7.20766 412.118L15.271 409.961L9.57422 403.866L17.8693 402.94L13.1484 396.053L21.4924 396.382L17.845 388.873L26.0547 390.397L23.493 382.462L31.4222 385.058L29.8851 376.855L37.4483 380.39L36.8506 372.064L43.9868 376.391L44.1454 368.103L50.7572 373.113L51.6355 364.86L57.8202 370.407L59.3207 362.24L65.0907 368.225L67.1523 360.18L72.5197 366.518L75.0692 358.632L80.0463 365.263L83.035 357.522L87.6583 364.422L91.0374 356.84L95.3313 363.946L99.0519 356.523L103.029 363.812L107.054 356.559L110.738 363.995L115.044 356.901L118.448 364.482L123.01 357.547L126.145 365.226L128.061 359.314L128.597 357.486L122.034 362.301L123.083 354.219L115.691 357.656L118.094 349.867L110.275 352.147L113.751 344.772L105.688 345.991L110.092 339.129L101.943 339.299L107.201 333.071L99.1007 332.132L105.188 326.72L97.3319 324.55L104.236 320.235L96.9172 316.664L104.554 313.848L98.2346 308.716L106.335 307.863L101.577 301.256L109.604 302.634L106.81 294.991L114.154 298.416L114.459 289.811L121.766 294.503L123.559 286.02L130.22 291.578L132.818 283.314L139.039 289.36L142.162 281.266L148.042 287.653L151.531 279.706L157.167 286.312L160.936 278.499L166.352 285.288L170.341 277.572L175.575 284.508L179.759 276.89L184.846 283.935L189.188 276.414L194.117 283.557L198.606 276.122L203.4 283.35L208.023 276L212.683 283.326L217.392 276.073L221.576 283.362L225.821 276.073L229.908 283.448L234.287 276.244L238.239 283.704L242.753 276.573L246.559 284.106L251.219 277.073L254.866 284.679L259.685 277.755L263.149 285.447L268.139 278.645L271.383 286.434L276.592 279.791L279.557 287.69L285.034 281.266L287.632 289.286L293.439 283.167L295.525 291.346L301.783 285.691L303.064 294.016L309.992 289.189L309.773 297.539L317.177 294.382L313.811 301.756L321.874 300.939L316.653 307.144L324.68 308.314L318.227 313.251L325.887 315.92L318.702 319.699L325.875 323.502L318.239 326.257L324.875 330.925L316.97 332.778L323.045 338.153L314.982 339.129L320.447 345.138L312.322 345.223L317.055 351.818L308.992 350.916L312.798 358.083L304.967 355.962L307.443 363.69L300.246 359.972L300.636 361.386L303.991 367.408L306.711 359.424L312.03 365.957L315.189 358.144L320.13 364.97L323.765 357.364L328.254 364.495L332.377 357.145L336.366 364.568L341.002 357.535L344.417 365.238L349.602 358.595L352.371 366.542L358.104 360.362L360.166 368.529L366.436 362.886L367.705 371.211L374.499 366.226L374.914 374.636L382.197 370.382L381.697 378.793L389.394 375.368L387.955 383.669L395.225 380.402L392.261 387.789L399.787 385.168L396.176 392.262L403.898 390.336L399.665 397.077L407.533 395.858L402.703 402.184L410.644 401.684L405.265 407.547L413.23 407.767L407.338 413.118L415.243 414.044L408.912 418.871L416.719 420.468L409.985 424.734L417.634 426.989L410.571 430.671L418 433.547L410.669 436.656L417.854 440.105L410.303 442.641L417.195 446.627L409.424 448.942L415.914 453.818L407.973 455.513L414.072 460.864L406.033 461.973L411.718 467.763L403.618 468.287L408.9 474.455L400.788 474.443L405.655 480.927L397.555 480.403L402.007 487.18L393.956 486.181L398.018 493.202L390.028 491.751L393.7 498.98L385.795 497.115L389.089 504.526L381.294 502.259L384.222 509.828L376.549 507.195L379.123 514.887L370.449 515.399L378.769 512.559L378.952 520.689L385.515 515.899L384.734 523.98L391.846 520.043L390.041 527.966L397.604 524.967L394.786 532.598L402.666 530.587L398.921 537.803L406.985 536.779L402.398 543.483L410.522 543.41L405.204 549.566L413.303 550.37L407.375 555.928L415.341 557.537L408.912 562.511L416.707 564.839L409.851 569.239L417.427 572.213L410.242 576.029L417.561 579.6L410.144 582.16L417.268 585.439L409.729 587.572L416.646 591.253L408.997 592.96L415.707 597.019L407.973 598.311L414.45 602.723L406.655 603.601L412.901 608.355L405.057 608.806L411.035 613.889L403.191 613.913L408.863 619.325L401.032 618.911L406.399 624.628L398.604 623.762L403.618 629.784L395.896 628.455L400.531 634.781L392.895 632.965L397.104 639.572L389.638 637.219L392.261 645.398L383.783 643.923L386.113 652.188L377.708 650.42L379.733 658.77L371.389 656.686L373.096 665.108L364.838 662.707L366.229 671.191L358.068 668.46L359.117 676.993L351.078 673.946L351.773 682.503L343.868 679.126L344.21 687.72L336.451 684.002L336.427 692.595L328.839 688.561L328.437 697.142L321.032 692.778L320.264 701.335L313.054 696.654L311.92 705.175L304.381 700.397L302.283 709.051L295 703.907L292.475 712.464L285.461 706.954L282.521 715.377L275.775 709.526L272.42 717.791L265.979 711.635L262.234 719.717L256.086 713.256L251.963 721.167L246.12 714.427L241.631 722.118L236.117 715.121L231.286 722.606L226.09 715.365L220.917 722.63L216.05 715.17L210.573 722.203L206.023 714.536L200.253 721.326L196.044 713.476L191.384 720.229L188.798 712.452L183.955 719.058L181.601 711.209L176.55 717.681L174.428 709.758L169.207 716.084L167.304 708.1L161.9 714.28L160.229 706.247L154.654 712.257L153.214 704.187L147.469 710.051L146.249 701.945L140.345 707.637L139.344 699.495L133.294 705.029L132.525 696.862L126.316 702.237L125.767 694.046L119.424 699.239L119.094 691.047L112.605 696.069L112.495 687.854L105.834 692.668L105.956 684.465L99.1617 689.097L99.5155 680.894L92.5988 685.331L93.1843 677.139L86.1335 681.369L86.963 673.202L79.8023 677.225L80.8636 669.082L73.581 672.885L74.8984 664.779L67.506 668.351L69.0796 660.294L61.5774 663.633L63.4194 655.625L55.7952 658.709L57.9178 650.774L50.196 653.577L52.5991 645.727L44.7797 648.238L47.3903 640.388L39.5221 643.046L42.0229 635.208L34.1059 637.475L37.0823 629.808L29.0434 631.575L32.5078 624.116L24.3713 625.359L28.3115 618.143L20.1017 618.85L24.5299 611.902L16.2957 612.036L21.2118 605.442L12.9899 604.954L18.3939 598.75L10.233 597.628L16.1249 591.875L8.09818 590.059L14.4781 584.866L6.65871 582.306L13.5144 577.76L6 574.42L13.307 570.629L6.20736 566.472L13.8682 563.839L7.23205 559.183L15.1491 557.44L9.12287 552.04L17.1862 551.272L11.8554 545.165L19.9554 545.397L15.4174 538.693L23.432 539.899L19.7357 532.695L27.543 534.841L24.6884 527.259L32.2273 530.245L30.1779 522.408L37.3751 526.125L36.0821 518.129L42.9133 522.481L42.3034 514.399L48.7688 519.287L48.7565 511.181L54.8681 516.508L55.4049 508.426L63.517 511.608Z" fill="#BBE603"/>
<path d="M363.335 589.488C363.637 592.94 365.27 595.686 370.182 595.185C373.658 594.882 375.583 591.835 375.927 588.388C376.196 585.619 372.548 583.131 369.088 582.68C365.101 582.164 363.033 586.037 363.335 589.488Z" fill="black"/>
<path d="M324.723 597.1C325.025 600.555 326.649 603.303 331.566 602.802C335.044 602.499 336.981 599.449 337.315 596C337.586 593.239 333.934 590.749 330.472 590.298C326.481 589.781 324.421 593.646 324.723 597.1Z" fill="black"/>
<path d="M364.527 603.11C364.527 603.11 355.516 614.543 340.449 606.985" stroke="black" stroke-width="5" stroke-linecap="round" stroke-linejoin="round"/>
<path d="M1417 567L1417 879" stroke="#054A3E" stroke-width="6"/>
<path d="M1641.44 608.89L1648.82 605.988L1642.84 601.289L1649.73 598.089L1643.14 594.305L1649.5 590.135L1642.42 587.344L1648.12 582.303L1640.86 580.968L1646.01 575.683L1638.64 575.231L1643.14 569.373L1635.77 569.781L1639.57 563.449L1632.29 564.685L1635.35 557.966L1628.25 559.963L1630.58 552.946L1623.71 555.682L1625.3 548.468L1618.76 551.898L1619.61 544.551L1613.99 548.942L1614.8 541.87L1609.56 546.68L1609.79 539.576L1604.96 544.794L1604.62 537.689L1600.22 543.282L1598.76 536.101L1594.38 541.981L1592.24 534.964L1588.46 541.242L1585.63 534.479L1582.48 541.087L1581.94 535.99L1577.24 533.905L1584.5 532.901L1578.85 528.246L1585.93 526.392L1579.76 522.443L1586.58 519.74L1579.98 516.574L1586.41 513.055L1579.48 510.694L1585.43 506.436L1578.26 504.913L1583.69 499.982L1576.39 499.298L1581.22 493.782L1574 494.146L1578.37 488.398L1571.23 489.468L1575.02 483.313L1568.01 485.067L1571.19 478.591L1564.38 480.996L1566.39 473.737L1559.35 476.406L1560.51 468.96L1553.82 472.402L1554.14 464.878L1547.87 469.059L1547.34 461.546L1541.39 466.345L1539.78 458.877L1534.45 464.337L1531.97 457.123L1527.33 463.179L1524.02 456.295L1517.75 461.921L1523.31 455.733L1516.42 452.61L1522.43 448.032L1515.18 445.881L1520.49 440.497L1513.01 439.405L1517.49 433.316L1509.42 432.488L1512.19 424.865L1504.12 425.494L1505.53 417.518L1497.66 419.47L1497.78 411.373L1490.3 414.495L1490.23 406.927L1484.08 411.351L1483.2 403.827L1477.54 408.858L1475.9 401.466L1470.77 407.037L1468.42 399.844L1463.18 405.791L1459.33 398.852L1454.8 405.371L1450.18 398.929L1446.46 405.945L1441.08 400.109L1438.28 407.534L1433.25 402.106L1432.28 409.442L1426.72 404.566L1426.53 411.969L1420.46 407.732L1421.12 415.102L1414.6 411.594L1416.03 418.93L1409.02 416.348L1411.36 423.431L1404.09 421.765L1407.31 428.495L1399.89 427.766L1401.28 435.787L1400.37 427.391L1393.34 430.326L1393.71 422.725L1387.31 426.851L1386.37 419.294L1380.73 424.424L1378.62 417.11L1373.01 422.934L1368.82 416.028L1364.29 422.714L1359.03 416.58L1355.61 423.905L1349.46 418.665L1347.23 426.432L1341.28 421.787L1341.05 429.333L1334.53 425.516L1335.35 433.018L1328.34 430.182L1330.28 437.475L1322.94 435.798L1326.41 442.163L1319.24 441.071L1323.63 446.841L1316.38 446.863L1321.62 451.871L1314.47 453.041L1318.88 459.517L1313.63 453.041L1309.54 459.472L1305.79 452.842L1302.29 459.605L1297.97 453.328L1295.07 460.377L1290.23 454.497L1287.83 461.789L1282.36 456.394L1280.62 463.885L1274.69 458.998L1273.62 466.599L1267.29 462.263L1266.91 469.931L1260.67 465.882L1261.36 473.284L1254.83 469.732L1256.08 477.046L1249.3 474.024L1251.14 481.216L1244.14 478.756L1246.22 486.126L1238.69 484.692L1241.48 491.829L1233.84 491.145L1237.33 497.974L1229.67 498.062L1233.85 504.494L1225.89 506.281L1230.57 512.967L1222.92 515.813L1228.47 521.792L1221.3 525.686L1227.63 530.827L1221.26 534.424L1223.66 539.642L1218.11 535.207L1219.36 542.201L1213.52 538.142L1215.24 545.048L1209.14 541.396L1211.35 548.159L1204.39 545.511L1206.62 552.616L1199.43 550.652L1202.34 557.503L1195 556.234L1198.55 562.776L1191.13 562.224L1194.87 569.241L1187.01 570.454L1191.59 576.952L1183.95 579.114L1189.26 585.005L1181.94 588.061L1187.92 593.29L1181 597.041L1187.53 601.421L1181.08 605.9L1188.05 609.53L1182.11 614.704L1189.45 617.55L1184.12 623.331L1191.44 624.566L1186.36 629.983L1193.76 630.568L1189.17 636.404L1196.6 636.337L1192.55 642.559L1199.94 641.831L1196.2 648.031L1203.25 646.365L1200.01 652.841L1206.9 650.624L1204.19 657.331L1210.87 654.573L1208.71 661.479L1216.32 659.074L1216.18 667.061L1223.45 663.763L1224.26 671.706L1231.1 667.58L1232.81 675.38L1240.47 671.309L1234.9 676.615L1241.72 678.866L1235.58 682.572L1242.62 683.896L1237.04 688.397L1244.2 688.728L1239.32 693.968L1246.42 693.229L1242.24 699.021L1249.18 697.344L1245.79 703.633L1252.47 701.084L1249.87 707.747L1256.21 704.427L1255.65 712.215L1262.65 708.729L1263.35 716.507L1269.72 711.984L1271.58 719.563L1277.23 714.168L1280.14 721.416L1284.69 715.271L1288.23 722.045L1291.93 715.349L1296.35 721.593L1299.09 714.444L1304.35 719.993L1306 712.524L1312.32 717.07L1312.93 709.303L1319.97 712.646L1319.13 704.901L1326.68 706.854L1324.38 699.407L1330.81 701.084L1333.22 695.712L1335.07 702.827L1339.09 696.671L1341.87 703.478L1345.08 696.859L1348.66 703.28L1351.07 696.329L1354.82 702.397L1356 695.359L1360.3 701.051L1360.81 693.935L1365.64 699.187L1365.44 692.049L1370.77 696.793L1369.76 689.776L1375.44 694.024L1373.71 687.151L1379.81 690.747L1377.3 684.117L1383.8 686.963L1382.44 679.539L1385.36 686.985L1390.27 681.414L1392.25 688.574L1396.58 682.539L1399.26 689.467L1403 683.047L1406.3 689.699L1409.32 682.97L1413.05 689.335L1415.51 682.385L1419.74 688.408L1421.63 681.282L1426.34 686.952L1427.64 679.693L1432.97 684.911L1433.83 677.509L1439.59 682.241L1439.8 674.795L1445.96 679.009L1445.49 671.574L1452 675.192L1450.72 667.922L1457.44 670.989L1455.45 663.873L1462.45 666.234L1459.71 659.372L1466.93 660.928L1464.82 653.238L1467.74 660.222L1472.06 654.551L1473.04 661.612L1477.01 655.699L1478.39 662.682L1482.02 656.548L1482.23 662.836L1488.17 661.093L1483.22 666.135L1490.25 665.407L1485.6 670.724L1492.58 669.577L1488.25 675.159L1495.15 673.581L1491.53 679.914L1498.63 678.292L1495.53 684.889L1502.48 682.683L1499.93 689.512L1506.68 686.765L1504.68 693.77L1510.92 690.284L1509.17 697.212L1515.14 693.273L1513.88 700.312L1519.56 695.976L1518.79 703.081L1524.15 698.359L1524.17 705.629L1529.48 700.654L1530.03 707.913L1534.95 702.562L1536.02 709.755L1540.57 704.074L1542.12 711.178L1546.3 705.199L1548.37 712.193L1552.14 705.96L1554.65 712.8L1558.02 706.335L1560.96 713.01L1563.91 706.346L1567.85 712.778L1570.9 705.883L1575.29 712.017L1577.84 704.912L1582.65 710.726L1584.69 703.456L1589.91 708.906L1591.29 701.559L1596.73 706.688L1597.58 699.264L1603.37 703.986L1603.69 696.517L1609.81 700.808L1609.58 693.34L1615.51 697.477L1614.29 690.35L1620.47 694.09L1618.78 687.074L1625.2 690.372L1623.02 683.488L1629.67 686.323L1626.86 679.759L1633.54 682.264L1630.28 675.92L1637.13 677.939L1633.4 671.849L1640.38 673.35L1636.2 667.558L1643.66 667.834L1639.28 661.788L1646.73 661.314L1641.75 655.754L1649.11 654.507L1643.59 649.487L1650.78 647.491L1644.74 643.387L1651.68 641.081L1645.29 637.529L1652 634.627L1645.35 631.616L1651.79 628.185L1644.92 625.714L1651.17 622.514L1644.27 621.179L1650.35 617.627L1643.37 616.678L1649.25 612.806L1642.24 612.21L1641.44 608.89Z" fill="#00AA3D"/>
<path d="M1329.5 628.559C1329.5 630.684 1328.64 632.447 1325.61 632.414C1323.47 632.414 1322.12 630.65 1321.73 628.559C1321.41 626.875 1323.52 625.168 1325.61 624.704C1328.03 624.128 1329.5 626.377 1329.5 628.559Z" fill="black"/>
<path d="M1354.45 630.899C1354.45 633.03 1353.6 634.799 1350.57 634.754C1348.43 634.754 1347.08 632.996 1346.68 630.899C1346.38 629.21 1348.47 627.498 1350.57 627.033C1352.98 626.5 1354.45 628.756 1354.45 630.899Z" fill="black"/>
<path d="M1323.26 637.877L1349.77 641.042C1349.77 641.042 1347.51 645.4 1345.99 646.776C1344.46 648.152 1344.1 649.345 1340.43 649.941C1337.41 650.498 1334.32 650.498 1331.3 649.941C1327.91 649.425 1324.3 646.008 1324.19 644.987C1324.07 643.966 1323.23 641.226 1323.26 640.538C1323.29 639.849 1323.26 637.877 1323.26 637.877Z" fill="black"/>
<path d="M1479 361L1479 879" stroke="#054A3E" stroke-width="6"/>
<path d="M1578.03 424.095L1585.44 419.644L1577.82 415.641L1584.97 410.83L1577.14 407.237L1584.03 402.053L1576.02 398.87L1582.63 393.351L1574.49 390.553L1580.86 384.748L1572.6 382.286L1578.73 376.232L1570.39 374.093L1576.3 367.828L1567.89 365.95L1573.63 359.523L1565.17 357.832L1570.75 351.243L1562.26 349.726L1567.73 343.05L1559.21 341.646L1564.61 334.92L1556.09 333.565L1561.46 326.814L1552.93 325.484L1558.32 318.746L1549.8 317.366L1555.24 310.677L1546.74 309.198L1552.29 302.597L1543.81 300.968L1548.99 292.962L1540.09 289.506L1545.61 281.723L1536.88 277.857L1542.8 270.373L1534.32 265.984L1540.72 258.91L1532.58 253.937L1539.51 247.373L1531.79 241.754L1539.23 235.787L1532.03 229.533L1539.98 224.25L1533.36 217.375L1541.77 212.688L1535.02 205.962L1542.9 200.765L1535.73 194.612L1543.29 188.943L1535.78 183.211L1543.02 177.145L1535.22 171.811L1542.13 165.371L1534.06 160.461L1540.61 153.66L1532.27 149.21L1538.41 142.024L1529.8 138.133L1535.4 130.524L1526.6 127.578L1531.39 120.206L1522.71 118.067L1528.59 111.329L1520.29 107.997L1526.91 101.968L1518.94 97.8901L1525.98 92.3578L1518.26 87.8326L1525.51 82.5987L1517.91 77.862L1525.26 72.74L1517.69 67.9661L1524.99 62.7819L1517.31 58.1696L1524.45 52.7617L1516.59 48.684L1523.39 43.0025L1515.23 39.5588L1521.4 33.2061L1512.88 30.8564L1517.95 23.6085L1509.13 22.962L1512.4 14.7444L1503.73 16.4103L1504.6 7.60843L1496.7 11.6116L1495.26 2.88424L1488.51 8.60299L1485.36 0.335666L1479.89 7.12357L1475.49 0L1472.42 7.94409L1466.83 1.51671L1465.01 9.83377L1458.35 4.51284L1458.3 13.0288L1450.6 9.37378L1452.62 17.6411L1444.28 16.0001L1448.2 23.5588L1439.69 23.7825L1445.02 30.4337L1436.67 32.0747L1442.87 37.9178L1434.75 40.5161L1441.28 47.4283L1433.27 52.5255L1440.31 58.9156L1432.6 64.4478L1439.86 70.5768L1432.23 76.2459L1439.5 82.3749L1431.81 87.932L1438.88 94.2724L1430.92 99.469L1437.56 106.269L1429.17 110.708L1434.94 118.266L1425.99 121.374L1430.35 129.604L1422.11 131.22L1428.21 137.312L1419.96 139.823L1426.4 145.555L1418.29 148.501L1425.02 153.909L1417.06 157.228L1424.01 162.338L1416.2 165.981L1423.33 170.829L1415.65 174.72L1422.92 179.357L1415.35 183.46L1422.72 187.923L1415.24 192.187L1422.69 197.707L1415.28 203.302L1422.83 208.722L1415.47 214.379L1423.03 219.774L1415.67 225.431L1423.2 230.863L1415.78 236.445L1423.24 241.99L1415.72 247.435L1423.03 253.154L1415.36 258.376L1422.48 264.331L1414.61 269.254L1421.46 275.519L1413.53 278.814L1420.28 284.11L1412.21 287.044L1418.7 292.663L1410.5 295.187L1416.68 301.142L1408.34 303.193L1414.15 309.509L1405.71 311.038L1411.11 317.714L1402.58 318.684L1407.51 325.708L1398.94 326.081L1403.37 333.44L1394.72 333.316L1398.76 341.559L1389.74 342.864L1394.2 350.808L1385.26 352.573L1390.15 360.269L1381.32 362.531L1386.67 369.929L1377.99 372.738L1383.79 379.775L1375.32 383.144L1381.59 389.77L1373.38 393.724L1380.1 399.877L1372.18 404.415L1379.33 410.072L1371.77 415.057L1379.29 420.129L1372.07 425.612L1379.9 430.162L1373.05 436.092L1381.15 440.17L1374.63 446.485L1382.94 450.128L1376.73 456.742L1385.19 460.011L1379.27 466.874L1387.83 469.833L1382.14 476.882L1390.79 479.604L1385.26 486.79L1393.6 488.257L1387.8 494.411L1396.14 495.803L1390.38 502.007L1398.74 503.35L1392.99 509.566L1401.35 510.908L1395.59 517.112L1403.93 518.492L1398.14 524.658L1406.47 526.125L1400.6 532.229L1408.92 533.808L1402.95 539.825L1411.24 541.553L1405.23 547.707L1413.54 549.895L1407.38 555.887L1415.63 558.299L1409.3 564.105L1417.47 566.778L1410.95 572.372L1419.03 575.331L1412.3 580.689L1420.27 583.934L1413.33 589.031L1421.17 592.599L1414.03 597.411L1421.7 601.302L1414.36 605.728L1421.77 610.352L1414.35 615.027L1421.94 619.428L1414.7 624.388L1422.46 628.491L1415.45 633.762L1423.39 637.492L1416.64 643.086L1424.75 646.418L1418.31 652.36L1426.59 655.232L1420.51 661.548L1428.96 663.885L1423.3 670.598L1431.89 672.326L1426.83 679.562L1435.6 680.693L1431.21 688.364L1440.04 688.625L1436.49 696.718L1445.28 695.96L1442.78 704.438L1451.4 702.474L1450.19 711.226L1458.36 707.882L1458.76 716.709L1466.11 711.823L1468.36 720.364L1474.42 713.974L1478.6 721.744L1482.87 714.086L1488.67 720.65L1491.05 712.208L1498.17 717.305L1498.68 708.541L1506.69 712.134L1505.59 703.419L1514.08 705.619L1511.65 697.178L1520.37 698.148L1516.88 690.104L1525.66 690.042L1521.32 682.409L1530.05 681.476L1525.02 674.266L1533.64 672.625L1528.07 665.849L1536.55 663.574L1530.53 657.196L1538.83 654.399L1532.46 648.394L1540.6 645.125L1533.9 639.456L1541.88 635.788L1534.92 630.443L1542.73 626.427L1535.55 621.38L1543.17 617.053L1535.81 612.267L1543.29 607.543L1535.6 603.701L1542.96 599.387L1535.54 595.198L1543.16 591.356L1536 586.707L1543.83 583.325L1536.96 578.278L1544.96 575.344L1538.37 569.936L1546.52 567.412L1540.19 561.693L1548.43 559.53L1542.34 553.563L1550.67 551.71L1544.79 545.532L1553.29 543.58L1547.72 536.866L1556.26 535.126L1550.84 528.301L1559.42 526.709L1554.09 519.81L1562.68 518.305L1557.38 511.368L1565.97 509.876L1560.65 502.964L1569.23 501.385L1563.82 494.548L1572.38 492.832L1566.84 486.094L1575.36 484.192L1569.48 478.1L1577.78 476.434L1571.72 470.529L1579.96 468.59L1573.68 462.908L1581.84 460.645L1575.32 455.237L1583.37 452.602L1576.62 447.505L1584.52 444.484L1577.51 439.747L1585.26 436.303L1578 431.952L1585.53 428.098L1578.03 424.095Z" fill="#054A3E"/>
<path d="M1469.58 425.643C1469.58 427.908 1468.68 429.796 1465.45 429.749C1463.17 429.749 1461.73 427.875 1461.32 425.643C1460.98 423.857 1463.22 422.023 1465.45 421.538C1468 420.972 1469.58 423.372 1469.58 425.643Z" fill="black" stroke="black" stroke-width="1.22" stroke-miterlimit="10"/>
<path d="M1494.98 427.97C1494.98 430.099 1494.13 431.86 1491.11 431.823C1488.98 431.823 1487.63 430.061 1487.24 427.97C1486.92 426.297 1489.03 424.586 1491.11 424.125C1493.52 423.594 1494.98 425.849 1494.98 427.97Z" fill="black" stroke="black" stroke-width="1.22" stroke-miterlimit="10"/>
<path d="M1483.06 443.279C1483.06 446.113 1481.12 448.456 1474.28 448.41C1469.43 448.372 1466.39 446.068 1465.5 443.279C1464.79 441.047 1469.55 438.749 1474.28 438.148C1479.74 437.436 1483.06 440.445 1483.06 443.279Z" fill="black" stroke="black" stroke-width="1.22" stroke-miterlimit="10"/>
</g>
<defs>
<clipPath id="clip0_805_6898">
<rect width="1939" height="879" fill="white"/>
</clipPath>
<clipPath id="clip1_805_6898">
<rect width="690" height="375" fill="white" transform="translate(-4 504)"/>
</clipPath>
</defs>
</svg>
