<svg width="1000" height="435" viewBox="0 0 1000 435" fill="none" xmlns="http://www.w3.org/2000/svg">
<path d="M9.07996 432.835L6.096 425.376L0.397008 424.273L7.76087 418.749L0 413.802L7.79929 408.906L0.409815 403.407L8.51647 399.011L1.45997 393.089L9.78433 389.141L3.048 382.874L11.5389 379.31L5.07146 372.748L13.7032 369.544L7.49193 362.738L16.2389 359.854L10.271 352.843L19.1076 350.241L13.3702 343.037L22.2709 340.718L16.764 333.335L25.7415 331.297L20.4395 323.747L29.4683 321.966L24.3968 314.275L33.4768 312.75L28.6102 304.919L37.7286 303.65L33.0926 295.69L42.2494 294.678L37.8439 286.59L47.0135 285.847L42.8897 277.567L52.1105 277.054L48.2429 268.646L57.4894 268.428L53.8907 259.905L63.1371 259.994L59.8458 251.343L69.0795 251.778L66.1211 243.011L75.3291 243.806L72.7294 234.924L81.8862 236.128L79.6962 227.144L88.8018 228.771L87.0729 219.684L96.0632 221.812L94.8722 212.647L103.709 215.326L103.133 206.098L111.751 209.417L111.892 200.163L120.217 204.201L121.19 194.998L129.066 199.817L131.013 190.781L138.287 196.485L141.348 187.743L147.802 194.357L152.041 186.141L157.459 193.626L161.736 186L165.45 193.908L170.278 186.628L173.365 194.793L178.756 187.923L181.151 196.318L187.106 189.935L188.784 198.51L195.264 192.665L196.199 201.342L203.14 196.062L203.371 204.79L210.696 200.061L210.299 208.776L217.932 204.547L217.01 213.224L224.86 209.404L223.528 218.03L231.52 214.531L229.906 223.119L237.987 219.838L236.194 228.387L244.339 225.221L242.47 233.757L250.615 230.617L248.783 239.166L256.89 235.936L255.187 244.498L263.229 241.114L261.744 249.728L269.197 245.729L267.468 254.009L274.781 249.766L273.347 258.11L280.493 253.598L279.404 261.981L286.345 257.174L285.628 265.595L292.352 260.468L292.032 268.928L298.499 263.481L298.601 271.927L304.787 266.159L305.325 274.606L311.19 268.518L312.164 276.926L317.722 270.556L319.118 278.9L324.356 272.26L326.149 280.528L331.067 273.645L333.244 281.822L337.854 274.721L340.39 282.796L344.68 275.516L347.549 283.463L351.544 276.016L354.708 283.86L358.434 276.259L361.88 283.975L365.914 276.349L369.448 284.219L373.956 276.875L376.953 284.962L381.948 277.938L384.368 286.206L389.849 279.553L391.668 287.987L397.623 281.758L398.827 290.294L405.217 284.527L405.781 293.127L412.581 287.846L412.517 296.459L419.689 291.691L418.997 300.279L426.489 296.024L425.222 304.56L432.97 300.805L431.138 309.238L439.13 305.996L436.773 314.288L444.931 311.533L442.114 319.672L450.412 317.377L447.147 325.362L455.561 323.491L451.898 331.31L460.402 329.849L456.367 337.475L464.641 335.975L460.043 343.012L468.355 341.807L463.501 348.677L471.851 347.767L466.779 354.458L475.155 353.817L469.879 360.354L478.267 359.969L472.786 366.339L481.187 366.198L475.539 372.415L483.928 372.504L478.113 378.567L486.502 378.862L480.534 384.771L488.922 385.296L482.801 391.051L491.163 391.782L484.914 397.396L493.264 398.318L486.873 403.779L495.197 404.894L488.679 410.2L496.965 411.52L490.331 416.66L498.578 418.198L491.804 423.146L500 424.94L495.748 425.312L492.662 432.835L488.5 425.145L484.337 432.835L480.175 425.145L476.013 432.835L471.851 425.145L467.689 432.835L463.539 425.145L459.377 432.835L455.215 425.145L451.053 432.835L446.903 425.145L442.741 432.835L438.592 425.145L434.43 432.835L430.28 425.145L426.131 432.835L421.981 425.145L417.819 432.835L413.657 425.145L409.508 432.835L405.345 425.145L401.196 432.835L397.034 425.145L392.885 432.835L388.722 425.145L384.573 432.835L380.411 425.145L376.261 432.835L372.099 425.145L368.04 432.835L363.967 425.145L359.907 432.835L355.835 425.145L351.775 432.835L347.715 425.145L343.656 432.835L339.596 425.145L335.536 432.835L331.476 425.145L327.417 432.835L323.357 425.145L319.297 432.835L315.237 425.145L311.19 432.835L307.131 425.145L303.084 432.835L299.024 425.145L294.964 432.835L290.905 425.145L286.845 432.835L282.785 425.145L278.738 432.835L274.679 425.145L270.619 432.835L266.559 425.145L262.499 432.835L258.452 425.145L254.393 432.835L250.333 425.145L246.44 432.835L242.534 425.145L238.64 432.835L234.747 425.145L230.854 432.835L226.961 425.145L223.067 432.835L219.174 425.145L215.281 432.835L211.388 425.145L207.494 432.835L203.614 425.145L199.721 432.835L195.828 425.145L191.934 432.835L188.054 425.145L184.173 432.835L180.28 425.145L176.4 432.835L172.507 425.145L168.613 432.835L164.72 425.145L160.84 432.835L156.946 425.145L153.053 432.835L149.173 425.145L145.279 432.835L141.399 425.145L137.506 432.835L133.613 425.145L129.309 432.835L125.006 425.145L120.703 432.835L116.4 425.145L112.11 432.835L107.82 425.145L103.517 432.835L99.2265 425.145L94.9234 432.835L90.6332 425.145L86.3301 432.835L82.0399 425.145L77.7496 432.835L73.4594 425.145L69.1691 432.835L64.8789 425.145L60.5886 432.835L56.2983 425.145L51.9953 432.835L47.705 425.145L43.4148 432.835L39.1245 425.145L34.8343 432.835L30.5312 425.145L26.241 432.835L21.9507 425.145L17.6605 432.835L13.3702 425.145L9.07996 432.835Z" fill="#00AA3D"/>
<path d="M328.297 327.584C328.153 329.236 327.374 330.549 325.028 330.31C323.368 330.165 322.449 328.707 322.285 327.057C322.156 325.732 323.898 324.541 325.55 324.326C327.454 324.079 328.442 325.932 328.297 327.584Z" fill="black"/>
<path d="M346.733 331.227C346.589 332.88 345.814 334.196 343.466 333.956C341.805 333.811 340.88 332.351 340.721 330.701C340.592 329.379 342.335 328.187 343.988 327.972C345.894 327.725 346.878 329.574 346.733 331.227Z" fill="black"/>
<path d="M326.725 336.11C326.725 336.11 331.028 341.582 338.222 337.965" stroke="black" stroke-width="5" stroke-linecap="round" stroke-linejoin="round"/>
<path d="M387.697 396L384.511 388.052L378.424 386.877L386.289 380.991L378 375.72L386.33 370.503L378.438 364.644L387.096 359.96L379.559 353.651L388.45 349.444L381.255 342.766L390.323 338.97L383.416 331.978L392.635 328.563L386.001 321.312L395.343 318.239L388.969 310.769L398.407 307.997L392.279 300.321L401.785 297.85L395.904 289.983L405.492 287.812L399.829 279.768L409.472 277.87L404.056 269.676L413.753 268.051L408.556 259.707L418.294 258.355L413.343 249.874L423.122 248.795L418.417 240.177L428.21 239.385L423.806 230.563L433.654 230.017L429.523 221.058L439.399 220.826L435.555 211.744L445.43 211.84L441.915 202.622L451.777 203.086L448.617 193.745L458.452 194.592L455.675 185.127L465.454 186.411L463.116 176.838L472.84 178.572L470.994 168.89L480.596 171.157L479.324 161.392L488.761 164.246L488.146 154.414L497.351 157.951L497.501 148.091L506.391 152.392L507.431 142.587L515.843 147.722L517.922 138.094L525.69 144.171L528.959 134.857L535.853 141.904L540.38 133.15L546.166 141.126L550.734 133L554.701 141.426L559.857 133.669L563.153 142.368L568.912 135.048L571.469 143.994L577.829 137.193L579.621 146.329L586.542 140.101L587.54 149.347L594.954 143.72L595.2 153.021L603.023 147.981L602.599 157.268L610.751 152.761L609.767 162.007L618.151 157.937L616.728 167.128L625.263 163.4L623.54 172.55L632.17 169.054L630.256 178.163L638.954 174.789L636.958 183.885L645.656 180.539L643.701 189.648L652.359 186.206L650.539 195.329L659.129 191.724L657.542 200.901L665.503 196.64L663.656 205.462L671.466 200.942L669.934 209.832L677.566 205.025L676.404 213.957L683.817 208.835L683.051 217.808L690.232 212.345L689.89 221.359L696.797 215.555L696.906 224.554L703.513 218.409L704.087 227.409L710.351 220.922L711.391 229.88L717.327 223.093L718.818 231.983L724.412 224.909L726.327 233.718L731.579 226.384L733.904 235.097L738.828 227.531L741.536 236.135L746.118 228.378L749.182 236.845L753.449 228.911L756.828 237.269L760.808 229.17L764.487 237.392L768.796 229.266L772.571 237.651L777.385 229.826L780.586 238.443L785.92 230.959L788.505 239.768L794.359 232.68L796.301 241.666L802.661 235.029L803.947 244.124L810.772 237.979L811.374 247.142L818.637 241.516L818.568 250.693L826.228 245.613L825.489 254.763L833.491 250.229L832.137 259.324L840.412 255.323L838.456 264.309L846.99 260.854L844.474 269.69L853.186 266.753L850.177 275.425L859.04 272.981L855.553 281.489L864.539 279.495L860.627 287.826L869.709 286.269L865.4 294.394L874.236 292.797L869.326 300.294L878.203 299.01L873.019 306.33L881.937 305.361L876.52 312.49L885.466 311.807L879.83 318.772L888.789 318.362L882.935 325.149L891.908 324.999L885.876 331.623L894.835 331.718L888.625 338.178L897.584 338.492L891.21 344.788L900.169 345.347L893.631 351.479L902.562 352.258L895.888 358.239L904.806 359.223L897.98 365.04L906.871 366.229L899.909 371.882L908.758 373.289L901.673 378.765L910.482 380.404L903.246 385.676L912 387.588L907.459 387.984L904.163 396L899.718 387.806L895.272 396L890.827 387.806L886.382 396L881.937 387.806L877.491 396L873.06 387.806L868.615 396L864.169 387.806L859.724 396L855.293 387.806L850.848 396L846.416 387.806L841.971 396L837.539 387.806L833.108 396L828.676 387.806L824.231 396L819.786 387.806L815.354 396L810.909 387.806L806.477 396L802.032 387.806L797.601 396L793.156 387.806L788.724 396L784.279 387.806L779.847 396L775.402 387.806L771.066 396L766.717 387.806L762.381 396L758.032 387.806L753.696 396L749.36 387.806L745.024 396L740.688 387.806L736.353 396L732.017 387.806L727.681 396L723.345 387.806L719.009 396L714.674 387.806L710.351 396L706.016 387.806L701.694 396L697.358 387.806L693.022 396L688.686 387.806L684.35 396L680.015 387.806L675.692 396L671.357 387.806L667.021 396L662.685 387.806L658.349 396L654.027 387.806L649.691 396L645.356 387.806L641.198 396L637.026 387.806L632.868 396L628.71 387.806L624.552 396L620.394 387.806L616.236 396L612.078 387.806L607.92 396L603.762 387.806L599.604 396L595.46 387.806L591.302 396L587.144 387.806L582.986 396L578.842 387.806L574.697 396L570.539 387.806L566.395 396L562.237 387.806L558.079 396L553.921 387.806L549.777 396L545.619 387.806L541.461 396L537.316 387.806L533.158 396L529.014 387.806L524.856 396L520.698 387.806L516.103 396L511.507 387.806L506.911 396L502.315 387.806L497.734 396L493.152 387.806L488.556 396L483.974 387.806L479.378 396L474.796 387.806L470.201 396L465.619 387.806L461.037 396L456.455 387.806L451.873 396L447.291 387.806L442.709 396L438.127 387.806L433.531 396L428.949 387.806L424.367 396L419.785 387.806L415.203 396L410.607 387.806L406.025 396L401.443 387.806L396.861 396L392.279 387.806L387.697 396Z" fill="#BBE603"/>
<path d="M534.628 178.329C534.802 180.325 535.746 181.912 538.584 181.623C540.592 181.447 541.704 179.686 541.902 177.693C542.058 176.092 539.95 174.654 537.952 174.393C535.648 174.095 534.453 176.334 534.628 178.329Z" fill="black"/>
<path d="M512.323 182.731C512.497 184.728 513.435 186.317 516.276 186.027C518.285 185.852 519.404 184.089 519.597 182.095C519.753 180.498 517.644 179.059 515.644 178.798C513.338 178.5 512.148 180.734 512.323 182.731Z" fill="black"/>
<path d="M536.53 188.63C536.53 188.63 531.325 195.24 522.621 190.87" stroke="black" stroke-width="5" stroke-linecap="round" stroke-linejoin="round"/>
<path d="M676.999 131L676.999 435" stroke="#054A3E" stroke-width="6"/>
<path d="M360 131L360 435" stroke="#054A3E" stroke-width="6"/>
<path d="M764.713 122.105L769.069 121.922L767.761 117.993L771.573 119.623L770.157 115.725L774.013 117.248L772.477 113.4L776.384 114.803L774.727 111.006L778.672 112.276L776.883 108.536L780.872 109.667L778.951 105.997L782.978 106.969L780.904 103.381L784.976 104.177L782.744 100.69L786.841 101.297L784.438 97.9168L788.566 98.3148L785.987 95.0741L790.128 95.2383L787.359 92.1555L791.5 92.0608L788.668 88.7948L792.916 87.9546L789.787 84.9665L793.934 83.7094L790.507 81.0688L794.484 79.3568L790.767 77.1395L794.49 74.9411L790.514 73.2355L793.896 70.5443L789.717 69.4262L792.669 66.2676L788.37 65.7875L790.817 62.2182L786.493 62.3888L788.383 58.4974L784.128 59.2871L785.456 55.1745L781.347 56.5201L782.143 52.2686L778.224 54.1006L778.533 49.786L774.835 52.0286L774.753 47.7329L771.326 50.3293L770.871 46.0525L767.666 48.9268L766.888 44.6943L763.898 47.796L762.829 43.6267L760.048 46.9116L758.726 42.8244L756.147 46.261L754.598 42.2495L752.202 45.8251L750.451 41.8958L748.225 45.5787L746.297 41.7315L744.236 45.5092L742.15 41.7505L740.241 45.604L738.009 41.9273L736.245 45.8567L733.88 42.2622L732.256 46.242L731.263 43.1782L730.985 42.2306L734.386 44.7259L733.843 40.5376L737.674 42.319L736.428 38.2823L740.481 39.4636L738.679 35.6417L742.858 36.2735L740.576 32.7169L744.799 32.8053L742.074 29.5772L746.272 29.0908L743.117 26.2859L747.188 25.1615L743.61 22.9252L747.403 21.0742L743.446 19.6149L746.721 16.9554L742.523 16.5132L744.988 13.0893L740.828 13.8031L742.276 9.84222L738.47 11.6174L738.312 7.15741L734.525 9.58954L733.596 5.19275L730.144 8.0734L728.798 3.79033L725.573 6.92367L723.955 2.72904L720.908 6.03926L719.099 1.92044L716.179 5.34437L714.225 1.29503L711.418 4.81371L709.351 0.814926L706.639 4.40941L704.47 0.461154L701.834 4.1125L699.583 0.214783L697.029 3.91667L694.703 0.063176L692.218 3.80928L689.822 0L687.407 3.79664L684.967 0.0379017L682.798 3.8156L680.598 0.0379017L678.48 3.85982L676.211 0.126342L674.162 3.99248L671.823 0.29691L669.85 4.20094L667.435 0.555918L665.545 4.49785L663.048 0.90968L661.252 4.89584L658.667 1.37083L656.985 5.40753L654.286 1.96465L652.749 6.05821L649.911 2.72904L648.564 6.88576L645.555 3.71453L644.474 7.95337L641.23 5.02218L640.567 9.33684L636.976 6.83523L637.089 11.1625L633.252 9.52636L634.997 13.3483L630.818 12.925L633.524 16.1405L629.364 16.7469L632.708 19.3054L628.738 20.6889L632.462 22.6472L628.744 24.6182L632.702 26.0459L629.263 28.4654L633.359 29.4256L630.211 32.2115L634.39 32.7169L631.558 35.8312L635.768 35.8755L633.315 39.2931L637.494 38.8256L635.522 42.5401L639.58 41.4409L638.297 45.446L642.027 43.5193L641.825 44.2521L640.086 47.3728L638.676 43.235L635.92 46.621L634.282 42.5717L631.722 46.1093L629.838 42.1674L627.512 45.863L625.375 42.0537L623.307 45.9009L620.905 42.2559L619.135 46.2483L616.448 42.8055L615.013 46.9243L612.041 43.7214L610.973 47.954L607.723 45.0291L607.066 49.3438L603.545 46.76L603.33 51.1189L599.555 48.9142L599.815 53.2731L595.825 51.4979L596.571 55.7999L592.803 54.1069L594.34 57.9352L590.439 56.577L592.31 60.2536L588.308 59.2555L590.502 62.7489L586.424 62.1172L588.928 65.3958L584.812 65.1368L587.6 68.1754L583.472 68.2891L586.525 71.0623L582.429 71.5425L585.71 74.0441L581.664 74.8716L585.154 77.0826L581.19 78.2513L584.85 80.1591L581 81.65L584.8 83.2609L581.076 85.0487L584.989 86.3626L581.417 88.4284L585.444 89.6286L582.081 92.1555L586.197 93.0336L583.036 95.8069L587.202 96.3817L584.256 99.3824L588.454 99.6541L585.716 102.851L589.92 102.844L587.398 106.205L591.596 105.933L589.288 109.446L593.461 108.928L591.356 112.566L595.497 111.815L593.594 115.561L597.69 114.594L595.983 118.435L600.023 117.26L598.506 121.183L602.482 119.819L601.148 123.805L605.643 124.07L601.332 122.598L601.237 126.812L597.836 124.329L598.24 128.517L594.555 126.477L595.49 130.583L591.571 129.029L593.031 132.984L588.947 131.941L590.888 135.681L586.709 135.15L589.086 138.625L584.875 138.587L587.632 141.777L583.434 142.194L586.507 145.075L582.378 145.909L585.71 148.486L581.67 149.693L585.223 151.973L581.297 153.515L585.021 155.492L581.228 157.343L585.071 158.669L581.379 160.369L585.286 161.474L581.702 163.382L585.666 164.267L582.189 166.37L586.197 167.04L582.84 169.327L586.88 169.781L583.643 172.245L587.708 172.479L584.61 175.113L588.675 175.126L585.735 177.931L589.794 177.716L587.012 180.679L591.052 180.23L588.454 183.351L592.456 182.662L590.053 185.941L594.011 185L591.83 188.424L595.699 187.204L594.34 191.443L598.733 190.679L597.526 194.962L601.882 194.046L600.832 198.373L605.157 197.293L604.272 201.658L608.552 200.414L607.831 204.81L612.06 203.395L611.517 207.817L615.683 206.238L615.323 210.673L619.419 208.923L619.242 213.377L623.263 211.45L623.276 215.903L627.208 213.812L627.417 218.26L631.254 215.998L631.652 220.433L635.389 218.007L635.977 222.423L639.884 219.946L640.971 224.432L644.746 221.766L646.054 226.2L649.689 223.345L651.213 227.71L654.709 224.678L656.448 228.961L659.786 225.771L661.727 229.959L664.913 226.611L667.05 230.711L670.078 227.218L672.405 231.204L675.262 227.578L677.766 231.456L680.459 227.704L683.139 231.469L685.662 227.603L688.501 231.248L690.859 227.274L693.849 230.793L696.03 226.725L698.445 230.225L699.786 226.194L702.295 229.618L703.516 225.55L706.133 228.904L707.233 224.798L709.939 228.077L710.925 223.939L713.726 227.142L714.592 222.979L717.481 226.093L718.227 221.911L721.205 224.95L721.837 220.749L724.897 223.699L725.415 219.479L728.551 222.347L728.949 218.114L732.167 220.9L732.452 216.655L735.739 219.346L735.91 215.101L739.273 217.704L739.33 213.446L742.782 215.941L742.719 211.69L746.24 214.09L746.057 209.839L749.641 212.138L749.338 207.893L752.992 210.085L752.562 205.853L756.273 207.937L755.723 203.718L759.498 205.689L758.815 201.488L762.646 203.338L761.83 199.163L765.718 200.894L764.764 196.743L768.715 198.342L767.615 194.229L771.617 195.682L770.372 191.614L774.424 192.915L773.071 188.847L777.149 190.224L775.853 186.162L779.956 187.337L778.413 183.363L782.579 184.279L780.784 180.413L785.001 181.058L782.959 177.318L787.214 177.684L784.919 174.083L789.186 174.153L786.638 170.735L790.899 170.483L788.099 167.267L792.328 166.686L789.275 163.704L793.434 162.763L790.128 160.072L794.18 158.745L790.627 156.389L794.522 154.658L790.735 152.693L794.414 150.539L790.444 149.175L793.883 146.762L789.78 145.858L792.903 143.06L788.725 142.662L791.487 139.497L787.289 139.617L789.641 136.142L785.488 136.768L787.403 133.034L783.357 134.146L784.836 130.217L780.929 131.764L781.992 127.702L778.261 129.629L778.932 125.485L775.391 127.74L775.707 123.552L772.357 126.085L772.363 121.884L769.196 124.645L768.917 120.457L764.713 122.105Z" fill="#00AA3D"/>
<path d="M619.33 151.467C619.173 153.256 618.327 154.679 615.781 154.42C613.98 154.263 612.982 152.684 612.804 150.897C612.664 149.462 614.555 148.173 616.348 147.939C618.415 147.672 619.486 149.679 619.33 151.467Z" fill="black"/>
<path d="M639.342 155.413C639.185 157.203 638.344 158.627 635.795 158.368C633.993 158.21 632.989 156.63 632.816 154.842C632.676 153.411 634.568 152.121 636.362 151.887C638.431 151.62 639.498 153.622 639.342 155.413Z" fill="black"/>
<path d="M618.713 160.527C618.713 160.527 623.383 166.452 631.191 162.535" stroke="black" stroke-width="5" stroke-linecap="round" stroke-linejoin="round"/>
<path d="M501.549 251.095L507.457 248.764L502.671 244.989L508.181 242.419L502.909 239.379L507.995 236.029L502.335 233.786L506.892 229.736L501.081 228.664L505.205 224.418L499.306 224.055L502.909 219.349L497.011 219.677L500.048 214.59L494.22 215.582L496.675 210.185L490.988 211.789L492.852 206.152L487.359 208.35L488.631 202.554L483.394 205.311L484.074 199.408L479.58 202.935L480.224 197.254L476.03 201.118L476.215 195.411L472.348 199.603L472.074 193.895L468.551 198.389L467.385 192.619L463.879 197.343L462.166 191.706L459.138 196.749L456.877 191.316L454.352 196.625L453.919 192.53L450.157 190.855L455.968 190.049L451.446 186.309L457.115 184.82L452.179 181.647L457.636 179.476L452.356 176.932L457.504 174.105L451.95 172.208L456.718 168.787L450.978 167.564L455.323 163.603L449.477 163.053L453.345 158.622L447.57 158.914L451.067 154.297L445.353 155.156L448.382 150.211L442.775 151.62L445.318 146.418L439.87 148.35L441.477 142.518L435.843 144.663L436.77 138.681L431.411 141.446L431.667 135.401L426.651 138.76L426.227 132.725L421.468 136.58L420.178 130.58L415.913 134.967L413.927 129.171L410.209 134.037L407.56 128.506L402.544 133.026L406.995 128.054L401.476 125.546L406.288 121.868L400.487 120.14L404.734 115.815L398.747 114.937L402.332 110.045L395.877 109.381L398.094 103.256L391.63 103.762L392.76 97.3539L386.464 98.9226L386.561 92.4173L380.575 94.9255L380.513 88.8457L375.594 92.3996L374.888 86.3552L370.358 90.3966L369.042 84.4586L364.936 88.9343L363.055 83.1558L358.861 87.9328L355.779 82.3582L352.159 87.596L348.459 82.4202L345.483 88.0569L341.174 83.3685L338.931 89.3331L334.904 84.9727L334.127 90.8664L329.677 86.949L329.527 92.8959L324.67 89.4926L325.2 95.4129L319.981 92.5946L321.12 98.4883L315.513 96.4144L317.385 102.104L311.566 100.766L314.144 106.172L308.202 105.587L309.314 112.03L308.59 105.286L302.965 107.643L303.257 101.537L298.135 104.852L297.384 98.7808L292.872 102.902L291.177 97.0259L286.691 101.705L283.336 96.1574L279.706 101.528L275.503 96.6005L272.766 102.485L267.838 98.2756L266.055 104.515L261.295 100.784L261.11 106.846L255.891 103.779L256.544 109.806L250.937 107.528L252.491 113.386L246.61 112.039L249.392 117.153L243.652 116.276L247.167 120.911L241.365 120.929L245.56 124.952L239.829 125.892L243.361 131.094L239.158 125.892L235.89 131.059L232.888 125.732L230.08 131.165L226.627 126.122L224.305 131.785L220.429 127.062L218.512 132.92L214.133 128.586L212.737 134.604L207.996 130.678L207.139 136.784L202.07 133.301L201.761 139.461L196.772 136.208L197.32 142.155L192.092 139.301L193.099 145.177L187.668 142.749L189.143 148.527L183.536 146.551L185.205 152.471L179.174 151.319L181.408 157.053L175.297 156.504L178.087 161.99L171.959 162.06L175.306 167.227L168.93 168.663L172.674 174.034L166.555 176.321L170.997 181.124L165.257 184.253L170.326 188.383L165.222 191.272L167.147 195.464L162.705 191.901L163.703 197.52L159.032 194.259L160.409 199.807L155.526 196.873L157.292 202.306L151.72 200.179L153.504 205.887L147.755 204.309L150.078 209.813L144.206 208.794L147.049 214.049L141.106 213.606L144.1 219.243L137.813 220.218L141.477 225.438L135.358 227.175L139.614 231.907L133.751 234.362L138.537 238.563L133 241.577L138.228 245.095L133.062 248.693L138.643 251.609L133.892 255.766L139.764 258.052L135.499 262.697L141.353 263.689L137.292 268.041L143.217 268.51L139.543 273.199L145.486 273.146L142.245 278.144L148.162 277.559L145.168 282.54L150.811 281.202L148.215 286.404L153.734 284.623L151.561 290.011L156.912 287.796L155.182 293.344L161.275 291.412L161.16 297.828L166.979 295.178L167.624 301.56L173.098 298.245L174.467 304.511L180.604 301.24L176.145 305.503L181.602 307.311L176.683 310.289L182.326 311.353L177.858 314.969L183.589 315.235L179.677 319.444L185.364 318.851L182.017 323.504L187.571 322.156L184.86 327.208L190.203 325.161L188.127 330.514L193.196 327.846L192.755 334.103L198.353 331.303L198.918 337.551L204.013 333.917L205.505 340.006L210.027 335.672L212.358 341.495L215.996 336.558L218.83 342L221.788 336.62L225.329 341.637L227.519 335.894L231.731 340.352L233.056 334.352L238.116 338.003L238.601 331.764L244.235 334.449L243.564 328.227L249.604 329.796L247.767 323.814L252.915 325.161L254.84 320.845L256.324 326.561L259.538 321.616L261.763 327.084L264.333 321.766L267.203 326.925L269.128 321.341L272.13 326.216L273.075 320.561L276.519 325.134L276.925 319.418L280.792 323.636L280.633 317.902L284.898 321.713L284.086 316.077L288.634 319.489L287.247 313.967L292.13 316.857L290.126 311.53L295.327 313.817L294.241 307.852L296.572 313.834L300.502 309.359L302.091 315.111L305.552 310.263L307.698 315.828L310.692 310.67L313.332 316.015L315.751 310.608L318.736 315.722L320.705 310.139L324.096 314.978L325.606 309.252L329.377 313.808L330.419 307.976L334.684 312.168L335.372 306.221L339.982 310.023L340.15 304.041L345.077 307.427L344.706 301.453L349.916 304.36L348.892 298.52L354.269 300.983L352.68 295.267L358.278 297.164L356.088 291.651L361.863 292.901L360.177 286.723L362.517 292.333L365.969 287.778L366.755 293.45L369.934 288.7L371.038 294.31L373.943 289.382L374.111 294.434L378.87 293.034L374.906 297.084L380.53 296.499L376.813 300.771L382.394 299.849L378.932 304.334L384.451 303.066L381.555 308.153L387.241 306.851L384.76 312.15L390.323 310.378L388.283 315.864L393.679 313.657L392.08 319.285L397.078 316.484L395.674 322.05L400.452 318.886L399.445 324.541L403.992 321.057L403.374 326.765L407.666 322.972L407.684 328.812L411.931 324.815L412.372 330.647L416.311 326.349L417.167 332.127L420.805 327.563L422.05 333.27L425.397 328.467L427.048 334.086L430.068 329.078L432.082 334.573L434.775 329.38L437.133 334.741L439.49 329.388L442.643 334.555L445.089 329.016L448.603 333.944L450.643 328.236L454.493 332.907L456.126 327.066L460.303 331.445L461.407 325.542L465.76 329.663L466.44 323.699L471.076 327.492L471.332 321.492L476.233 324.939L476.048 318.939L480.789 322.263L479.818 316.537L484.763 319.542L483.412 313.905L488.551 316.555L486.803 311.025L492.127 313.303L489.876 308.029L495.227 310.041L492.613 304.945L498.097 306.567L495.112 301.675L500.702 302.88L497.355 298.227L503.324 298.449L499.819 293.592L505.779 293.211L501.797 288.744L507.686 287.743L503.271 283.71L509.02 282.106L504.19 278.809L509.744 276.957L504.631 274.103L510 271.772L504.675 269.352L509.832 266.596L504.331 264.611L509.338 262.041L503.81 260.968L508.675 258.115L503.095 257.352L507.801 254.242L502.185 253.763L501.549 251.095Z" fill="#FFB6E6"/>
<path d="M387.048 171.698C387.048 173.389 386.369 174.792 383.96 174.765C382.257 174.765 381.179 173.362 380.871 171.698C380.618 170.359 382.293 169.001 383.96 168.632C385.88 168.174 387.048 169.963 387.048 171.698Z" fill="black"/>
<path d="M406.897 173.555C406.897 175.251 406.218 176.658 403.808 176.622C402.104 176.622 401.035 175.224 400.718 173.555C400.474 172.212 402.141 170.85 403.808 170.48C405.728 170.056 406.897 171.851 406.897 173.555Z" fill="black"/>
<path d="M382.087 179.108L403.176 181.626C403.176 181.626 401.379 185.093 400.166 186.187C398.953 187.282 398.666 188.231 395.745 188.705C393.345 189.148 390.885 189.148 388.485 188.705C385.789 188.295 382.914 185.576 382.824 184.764C382.734 183.952 382.06 181.772 382.087 181.225C382.114 180.677 382.087 179.108 382.087 179.108Z" fill="black"/>
<path d="M119 232L119 435" stroke="#054A3E" stroke-width="6"/>
<path d="M205.013 190.837L201.021 193.061L204.934 195.419L200.875 197.511L204.709 199.987L200.584 201.954L204.345 204.549L200.167 206.39L203.848 209.091L199.61 210.806L203.212 213.62L198.935 215.216L202.451 218.129L198.121 219.593L201.55 222.612L197.18 223.95L200.518 227.075L196.108 228.273L199.346 231.498L194.903 232.557L198.035 235.888L193.559 236.801L196.578 240.231L192.075 240.999L194.976 244.528L190.447 245.131L193.214 248.766L188.665 249.203L191.301 252.937L186.739 253.202L189.215 257.036L184.646 257.109L186.964 261.048L182.395 260.923L184.534 264.962L179.978 264.631L181.918 268.762L177.383 268.206L179.118 272.437L174.622 271.642L176.131 275.959L171.682 274.927L172.947 279.316L168.563 278.039L169.576 282.495L165.273 280.952L166.014 285.461L161.816 283.667L162.273 288.209L158.201 286.15L158.367 290.712L154.427 288.394L154.301 292.963L150.527 290.394L150.103 294.943L146.495 292.129L145.78 296.644L142.363 293.605L141.363 298.068L138.145 294.823L136.867 299.207L133.855 295.777L132.319 300.081L129.511 296.479L127.73 300.69L125.128 296.936L123.122 301.041L120.712 297.154L118.5 301.16L116.295 297.154L113.892 301.041L111.899 296.929L109.283 300.677L107.529 296.459L104.708 300.054L103.192 295.744L100.166 299.167L98.9143 294.77L95.6832 297.995L94.7099 293.532L91.2801 296.552L90.5981 292.036L86.9763 294.823L86.5856 290.268L82.7982 292.817L82.7055 288.249L78.7527 290.546L78.9513 285.984L74.866 288.023L75.356 283.481L71.1515 285.262L71.9196 280.76L67.6091 282.276L68.642 277.827L64.2587 279.098L65.5433 274.715L61.0871 275.741L62.61 271.431L58.1142 272.218L59.8556 267.994L55.32 268.557L57.2667 264.425L52.7113 264.77L54.8433 260.731L50.2813 260.863L52.5921 256.923L48.0234 256.87L50.4931 253.03L45.9311 252.785L48.5531 249.044L44.0043 248.627L46.7588 244.985L42.2298 244.403L45.1167 240.867L40.6076 240.125L43.6137 236.689L39.1377 235.795L42.2497 232.458L37.8069 231.425L41.0248 228.187L36.6084 227.009L39.9322 223.877L35.5556 222.566L38.9722 219.533L34.6352 218.09L38.1379 215.163L33.8474 213.594L37.436 210.767L33.1984 209.072L36.8732 206.357L32.682 204.529L36.4362 201.927L32.3046 199.974L36.1383 197.491L32.0728 195.412L35.986 193.055L32 190.837L36.0191 188.115L32.2052 185.116L36.3899 182.646L32.7283 179.448L37.0189 177.17L33.4832 173.833L37.8532 171.701L34.4234 168.252L38.8464 166.245L35.5093 162.71L39.9786 160.809L36.7143 157.201L41.23 155.393L38.0386 151.725L42.5874 150.003L39.4688 146.276L44.044 144.634L40.9916 140.853L45.5935 139.29L42.6073 135.457L47.2355 133.967L44.3089 130.087L48.957 128.67L46.09 124.743L50.7646 123.406L47.9638 119.433L52.6516 118.162L49.9105 114.149L54.6249 112.957L51.9498 108.899L56.6774 107.78L54.0686 103.674L58.8161 102.635L56.2802 98.4901L61.0474 97.53L58.5843 93.3387L63.3649 92.4713L60.9812 88.2337L65.7816 87.459L63.4841 83.1751L68.2977 82.4997L66.0928 78.1628L70.9197 77.6L68.8141 73.2167L73.6543 72.7665L71.6679 68.3369L76.5213 68.019L74.6673 63.5298L79.5274 63.3643L77.819 58.8089L82.6857 58.8221L81.1562 54.2071L86.0095 54.419L84.6919 49.7444L89.5321 50.1946L88.4661 45.4538L93.2665 46.1888L92.5116 41.3884L97.2459 42.4743L96.8883 37.6275L101.503 39.1504L101.656 34.2904L106.052 36.343L106.86 31.5558L110.886 34.2639L112.514 29.682L115.938 33.1184L118.5 29L121.069 33.1184L124.492 29.6886L126.121 34.2639L130.153 31.5558L130.955 36.3496L135.358 34.2904L135.503 39.1504L140.118 37.6341L139.761 42.4743L144.495 41.3884L143.74 46.1888L148.541 45.4538L147.475 50.1946L152.315 49.7378L150.991 54.419L155.844 54.2005L154.314 58.8155L159.174 58.8023L157.473 63.3511L162.326 63.51L160.472 67.9992L165.319 68.3038L163.333 72.74L168.173 73.1836L166.074 77.5669L170.901 78.1297L168.696 82.46L173.503 83.1354L171.205 87.4193L176.006 88.194L173.622 92.4316L178.403 93.2924L175.939 97.4836L180.707 98.4371L178.164 102.589L182.912 103.622L180.309 107.727L185.037 108.846L182.362 112.905L187.076 114.096L184.335 118.115L189.03 119.38L186.222 123.353L190.897 124.697L188.036 128.623L192.685 130.04L189.758 133.927L194.386 135.417L191.4 139.25L196.002 140.813L192.956 144.6L197.531 146.243L194.413 149.977L198.955 151.698L195.77 155.373L200.286 157.181L197.028 160.789L201.497 162.696L198.16 166.232L202.583 168.252L199.153 171.695L203.524 173.827L199.988 177.164L204.278 179.448L200.617 182.646L204.801 185.116L200.981 188.122L205.013 190.837Z" fill="#096343"/>
<path d="M145.216 218.609C145.216 220.414 144.491 221.911 141.919 221.882C140.101 221.882 138.951 220.385 138.622 218.609C138.351 217.179 140.14 215.73 141.919 215.336C143.969 214.847 145.216 216.757 145.216 218.609Z" fill="black"/>
<path d="M166.404 220.595C166.404 222.405 165.679 223.907 163.107 223.868C161.289 223.868 160.147 222.376 159.809 220.595C159.548 219.161 161.327 217.707 163.107 217.312C165.157 216.86 166.404 218.776 166.404 220.595Z" fill="black"/>
<path d="M139.92 226.517L162.432 229.205C162.432 229.205 160.513 232.905 159.218 234.074C157.923 235.242 157.617 236.255 154.499 236.761C151.937 237.234 149.312 237.234 146.749 236.761C143.872 236.323 140.802 233.421 140.707 232.555C140.611 231.688 139.891 229.361 139.92 228.776C139.949 228.192 139.92 226.517 139.92 226.517Z" fill="black"/>
<g clip-path="url(#clip0_805_6955)">
<path d="M725.937 444.186L729.109 450.653L732.971 444.11L736.819 450.653L740.674 444.11L744.523 450.653L748.385 444.11L752.24 450.653L756.102 444.11L759.67 450.653L763.224 444.11L766.792 450.653L770.347 444.11L773.915 450.653L777.476 444.11L781.044 450.653L784.612 444.11L788.167 450.653L791.735 444.11L795.289 450.653L798.857 444.11L802.418 450.653L805.973 444.11L809.554 450.653L813.116 444.11L816.677 450.653L820.238 444.11L823.793 450.653L827.361 444.11L830.915 450.653L834.483 444.11L838.051 450.653L841.619 444.11L845.181 450.653L848.749 444.11L852.303 450.653L855.857 444.11L859.426 450.653L862.994 444.11L866.555 450.653L870.123 444.11L873.691 450.653L877.259 444.11L880.813 450.653L884.368 444.11L887.936 450.653L891.497 444.11L895.065 450.653L898.633 444.11L902.201 450.653L905.756 444.11L909.31 450.653L912.878 444.11L916.439 450.653L919.994 444.11L923.576 450.653L927.137 444.11L930.698 450.653L934.259 444.11L937.814 450.653L941.382 444.11L944.936 450.653L948.504 444.11L952.072 450.653L955.647 444.11L959.202 450.653L962.77 444.11L966.324 450.653L969.892 444.11L973.447 450.653L977.015 444.11L980.576 450.653L984.144 444.11L987.712 450.653L991.267 444.11L994.835 450.653L998.389 444.11L1001.96 450.653L1005.52 444.11L1009.09 450.653L1012.65 444.11L1016.22 450.653L1019.78 444.11L1023.34 450.653L1026.9 444.11L1030.46 450.653L1034.02 444.11L1037.6 450.653L1041.16 444.11L1043.72 450.653L1046.28 444.11L1048.84 450.653L1051.4 444.11L1053.97 450.653L1056.53 444.11L1059.09 450.653L1060.6 444.295L1064.9 444.688L1058.31 442.18L1064.74 439.279L1058.06 436.989L1064.4 433.881L1057.66 431.799L1063.9 428.506L1057.09 426.63L1063.19 422.912L1056.28 421.036L1062.27 417.1L1055.31 415.475L1061.13 411.342L1054.12 409.947L1059.8 405.618L1052.74 404.473L1058.15 399.5L1050.92 398.203L1056.12 393.023L1048.86 392.009L1053.84 386.633L1046.55 385.913L1051.32 380.33L1043.99 379.905L1048.66 374.398L1041.45 374.507L1045.92 368.837L1038.7 369.197L1042.96 363.374L1035.77 363.996L1039.82 358.02L1032.65 358.903L1035.96 351.99L1028.3 352.426L1031.28 345.36L1023.66 346.156L1026.28 338.959L1018.72 340.115L1021.01 332.809L1013.5 334.314L1015.64 327.096L1008.39 329.124L1010.21 321.829L1003.06 324.173L1004.56 316.801L997.528 319.451L998.697 312.026L991.779 314.98L992.859 307.675L986.29 311.066L987.07 303.716L980.644 307.38L981.116 300.009L974.855 303.934L975.019 296.541L969.523 294.666L973.269 301.088L976.126 294.546L978.983 301.088L981.841 294.546L984.705 301.088L987.562 294.546L990.426 301.088L993.283 294.546L996.537 301.088L999.783 294.546L1003.04 301.088L1006.28 294.546L1009.53 301.088L1012.8 294.546L1016.04 301.088L1018.04 294.797L1022.51 293.651L1015.79 289.901L1021.99 285.331L1015.03 282.017L1020.93 277.066L1013.78 274.209L1019.34 268.888L1012.02 266.489L1017.2 260.72L1009.71 258.714L1014.49 252.597L1006.87 251.092L1011.23 244.681L1003.55 243.688L1007.47 237.004L999.729 236.513L1002.88 229.043L994.787 228.607L997.364 220.93L989.257 221.105L991.246 213.243L983.187 214.028L984.582 206.046L976.584 207.442L977.787 199.721L970.316 202L971.006 194.226L963.699 196.985L963.863 189.188L956.761 192.438L956.392 184.641L949.762 182.449L953.836 188.73L956.638 182.187L959.441 188.73L962.257 182.187L965.06 188.73L967.862 182.187L970.678 188.73L972.298 182.416L976.693 182.079L969.988 179.156L976.229 175.329L969.332 172.886L975.265 168.622L968.224 166.703L973.816 162.004L966.632 160.651L971.95 155.875L964.82 155.417L969.769 150.259L962.619 150.358L967.144 144.818L960.022 145.483L964.103 139.606L957.055 140.849L959.803 133.587L952.093 134.579L953.966 127.044L946.433 128.931L947.424 121.221L940.151 123.958L940.281 116.194L933.343 119.706L932.954 112.127L926.713 116.445L925.613 108.932L919.803 113.817L918.012 106.435L912.66 111.811L910.233 104.614L905.359 110.437L901.415 103.381L896.255 109.597L891.586 103L887.095 109.717L881.784 103.621L877.997 110.764L872.078 105.268L869.091 112.771L862.686 107.918L860.594 115.671L853.697 111.56L852.501 119.499L845.174 116.205L844.934 124.231L837.252 121.864L838.017 129.858L830.177 128.396L832.016 136.149L824.066 135.68L826.869 143.139L818.933 143.706L822.665 150.739L814.845 152.288L819.411 158.819L812.125 160.248L817.566 165.307L810.423 167.357L816.274 171.937L809.322 174.565L815.508 178.676L808.775 181.817L813.252 182.449L814.777 188.73L817.579 182.187L820.382 188.73L823.184 182.187L826 188.73L828.803 182.187L831.612 188.73L835.324 182.319L829.883 184.193L830.211 191.544L823.936 187.694L824.647 195.022L818.181 191.511L819.288 198.784L812.637 195.622L814.134 202.83L806.41 200.834L807.511 208.717L799.671 207.279L801.332 215.075L793.409 214.192L795.617 221.846L787.654 221.541L790.402 229.01L782.411 229.316L785.672 236.622L777.715 237.505L781.502 244.56L773.641 246.022L777.914 252.771L770.183 254.8L774.947 261.222L767.339 263.981L772.541 270.185L765.152 273.512L770.812 279.302L763.703 283.184L769.779 288.538L762.971 292.932L767.606 294.884L769.376 301.088L772.596 294.546L775.801 301.088L779.014 294.546L782.22 301.088L785.439 294.546L788.666 301.088L791.885 294.546L794.961 301.088L798.037 294.546L801.113 301.088L804.189 294.546L807.265 301.088L810.341 294.546L813.417 301.088L817.49 294.699L811.427 296.803L811.168 304.447L804.414 300.837L804.524 308.492L797.613 305.21L798.071 312.843L791.01 309.888L791.844 317.499L784.667 314.872L785.856 322.417L778.556 320.128L780.108 327.607L772.712 325.656L774.598 333.06L767.127 331.457L769.362 338.763L761.673 337.694L764.12 345.055L756.389 344.357L759.198 351.598L751.433 351.281L754.598 358.369L746.847 358.445L750.346 365.37L742.472 366.068L746.197 373.046L738.371 374.159L742.472 380.93L734.707 382.468L739.164 389L731.501 390.94L736.3 397.232L728.863 399.184L734.071 404.821L726.744 407.122L732.233 412.509L725.008 415.159L730.749 420.273L723.668 423.272L729.642 428.102L722.875 429.847L729.157 432.911L722.437 434.841L728.808 437.731L722.15 439.857L728.596 442.551L722 444.873L725.937 444.186Z" fill="#096343"/>
<path d="M862.884 147.487C862.699 149.606 861.694 151.292 858.687 150.984C856.554 150.799 855.372 148.928 855.16 146.812C854.996 145.112 857.231 143.585 859.357 143.308C861.804 142.992 863.068 145.368 862.884 147.487Z" fill="black"/>
<path d="M886.568 152.161C886.384 154.282 885.386 155.969 882.372 155.661C880.239 155.475 879.049 153.603 878.844 151.486C878.68 149.791 880.922 148.262 883.041 147.986C885.488 147.669 886.753 150.041 886.568 152.161Z" fill="black"/>
<path d="M860.868 158.425C860.868 158.425 866.391 165.443 875.633 160.804" stroke="black" stroke-width="5" stroke-linecap="round" stroke-linejoin="round"/>
</g>
<defs>
<clipPath id="clip0_805_6955">
<rect width="278" height="332" fill="white" transform="translate(722 103)"/>
</clipPath>
</defs>
</svg>
