<svg width="122" height="56" viewBox="0 0 122 56" fill="none" xmlns="http://www.w3.org/2000/svg">
<g clip-path="url(#clip0_736_5392)">
<path fill-rule="evenodd" clip-rule="evenodd" d="M121.364 34.4586L107.896 48.0058L107.895 48.0027L0.0698242 48.0028V8.00378H121.364L121.364 34.4586ZM103.796 35.7663C101.212 35.7663 99.7661 34.6608 99.7661 32.335L99.7644 32.3357V17.2229H103.211V19.9438H105.524V23.265H103.214L103.211 31.6268C103.211 32.4209 103.581 32.8744 104.381 32.8744H105.519L105.525 35.7687C105.331 35.7687 105.147 35.7683 104.934 35.7678C104.641 35.7671 104.294 35.7663 103.796 35.7663ZM77.6399 25.6082V30.0877C77.6399 33.433 76.2244 35.7587 72.2856 35.7587C71.5568 35.7587 70.9411 35.6559 70.3791 35.506L70.379 39.2811H66.9688L66.9685 20.2167H70.3787V20.2166H70.2806C70.8665 20.0483 71.5143 19.9353 72.2851 19.9353C76.2232 19.9353 77.6395 22.261 77.6395 25.6063L77.6399 25.6082ZM74.1935 25.0409C74.1935 23.2823 73.5166 22.5462 72.2856 22.5462C71.0566 22.5462 70.3806 23.2823 70.3791 25.0349V30.6637C70.381 32.4163 71.057 33.1523 72.2856 33.1523C73.5165 33.1523 74.1935 32.4151 74.1935 30.6577V25.0439V25.0409ZM22.3244 30.2687H18.878V30.6651C18.878 32.4237 18.2008 33.1613 16.97 33.1613C15.739 33.1613 15.0621 32.4237 15.0621 30.6651V25.0513C15.0621 23.2939 15.7392 22.5567 16.97 22.5567C18.2011 22.5567 18.878 23.2927 18.878 25.0513V25.4483H22.3244C22.2625 22.1875 20.8478 19.9477 16.97 19.9477C13.0311 19.9477 11.6157 22.2734 11.6157 25.6188V30.0983C11.6157 33.4436 13.032 35.7693 16.97 35.7693C20.8475 35.7693 22.2627 33.5296 22.3244 30.2687ZM56.7657 25.6082C56.7657 25.5754 56.7604 25.5466 56.7551 25.5178C56.7503 25.4921 56.7456 25.4664 56.7446 25.4379H56.7655C56.7041 22.177 55.2886 19.9373 51.4112 19.9373C47.4731 19.9373 46.0569 22.263 46.0569 25.6083V30.0878C46.0569 33.4332 47.4724 35.7589 51.4112 35.7589C55.2874 35.7589 56.7037 33.5191 56.7655 30.2583H53.3191V30.6551C53.3191 32.4122 52.6422 33.1498 51.4112 33.1498C50.1805 33.1498 49.5033 32.4122 49.5033 30.6551V28.444H56.7655L56.7657 25.6082ZM53.3193 25.4379V25.8349H49.5034V25.0407C49.5034 23.2821 50.1805 22.5461 51.4114 22.5461C52.6423 22.5461 53.3193 23.2835 53.3193 25.0407V25.4377V25.4379ZM84.1177 33.1555C85.3486 33.1555 86.0257 32.4195 86.0257 30.6609V25.0471C86.0257 23.2898 85.3486 22.5524 84.1177 22.5524C82.8868 22.5524 82.2098 23.2885 82.2098 25.0471V30.6609C82.2098 32.4183 82.8868 33.1555 84.1177 33.1555ZM84.1177 35.7648C80.1788 35.7648 78.7634 33.4391 78.7634 30.0937V25.6127C78.7634 22.2674 80.1788 19.9417 84.1177 19.9417C88.0567 19.9417 89.472 22.2674 89.472 25.6127V30.0937C89.472 33.4391 88.0567 35.7648 84.1177 35.7648ZM98.665 23.2553L98.6816 19.9718H96.4222V19.9719C96.4222 19.9719 96.4222 19.9718 96.4221 19.9718C95.1775 19.9718 94.1411 20.9376 94.1267 22.1778V20.2237H90.6848V35.4873H94.1267V25.495H94.1324C94.1493 24.2562 95.1531 23.2553 96.3962 23.2553H94.1267V23.2545H98.6648L98.665 23.2553ZM45.0012 25.6233V30.1028L45.0006 30.1004C45.0006 33.4457 43.5843 35.7714 39.6463 35.7714C38.8755 35.7714 38.2277 35.6583 37.6418 35.4901H37.7396V35.49H34.325V16.4256H37.7457L37.7404 20.2053C38.3022 20.055 38.9177 19.9522 39.6468 19.9522C43.5858 19.9522 45.0012 22.2779 45.0012 25.6233ZM39.6468 33.1646C40.8777 33.1646 41.5548 32.4285 41.5548 30.6699V25.0547C41.5548 23.2974 40.8776 22.56 39.6468 22.56C38.4185 22.56 37.7427 23.296 37.7404 25.0486V30.6774C37.7419 32.4288 38.4179 33.1646 39.6468 33.1646ZM65.8603 23.2553L65.8767 19.9718H63.6174C62.3736 19.9718 61.3378 20.9363 61.322 22.1753V20.2237H57.8801V35.4873H61.322V25.495H61.328C61.3448 24.2562 62.3485 23.2553 63.5919 23.2553H61.322V23.2545L65.8603 23.2553ZM27.9221 29.0168H27.9728L27.9738 29.0164L30.0748 20.2202H33.3522L29.8274 32.5201H29.8361L29.4002 34.2319C28.5978 37.189 27.5541 38.4867 24.0625 38.4867V35.7643C25.1919 35.7643 26.3581 35.4882 26.3581 34.1716C26.3581 33.9481 26.2191 33.2995 26.1258 32.8855L22.595 20.2207H25.8709L27.9221 29.0168Z" fill="white"/>
</g>
<defs>
<clipPath id="clip0_736_5392">
<rect width="121.301" height="40" fill="white" transform="translate(0.0727539 8)"/>
</clipPath>
</defs>
</svg>
