<svg width="161" height="56" viewBox="0 0 161 56" fill="none" xmlns="http://www.w3.org/2000/svg">
<g clip-path="url(#clip0_736_5228)">
<path fill-rule="evenodd" clip-rule="evenodd" d="M0.736816 47.8919V8.05206H160.737V48L0.736816 47.8919ZM55.7496 30.9304L64.7099 17.6083H64.7101H70.5874V38.5212H65.2308L65.1942 35.3737H59.0218C57.0877 37.337 54.2996 38.5212 51.5115 38.5212C45.7462 38.5212 41.0239 33.8217 41.0239 28.0809C41.0239 22.3061 46.3033 17.5308 52.0669 17.5308C55.1543 17.5308 58.2409 18.9041 60.3226 21.0495L57.6464 25.1216C56.3076 23.7509 54.3369 22.9361 52.4027 22.9361C52.1424 22.9361 51.7693 22.9753 51.4911 23.0111C48.6852 23.0111 46.3788 25.3055 46.3788 28.1201C46.3788 30.8938 48.6852 33.1925 51.4716 33.1925C53.1828 33.1925 54.8176 32.3403 55.7496 30.9304ZM65.1942 26.6779L62.2585 30.7832H62.2587H65.2308L65.1942 26.6779ZM80.8502 38.5209H75.4953V22.4915H71.331V17.643L85.0128 17.608V22.4914H80.8502V38.5209ZM102.863 17.6083H102.863L102.863 17.608V17.6083ZM102.863 17.6083L97.5084 17.6097L97.471 25.4175H91.1487L91.1086 17.608H85.758V38.5209H91.1485V30.2652H97.5082V38.5209H102.863V17.6083ZM145.774 17.6083V27.3402L138.412 17.6083L133.539 17.6424L133.502 25.2697C132.275 20.8273 128.073 17.6083 123.388 17.6083C117.625 17.6083 112.902 22.3061 112.902 28.0809C112.902 29.9352 113.459 31.8184 114.35 33.4496H109.045V17.6083H103.589V38.5212H116.063V35.5951C118.034 37.4102 120.711 38.5212 123.388 38.5212C128.073 38.5212 132.201 35.3737 133.502 30.9304L133.539 38.5212H138.932V28.344L146.255 38.5212H151.124L151.131 17.6083H145.775H145.774ZM123.388 33.413C120.45 33.413 118.034 31.0445 118.034 28.0809C118.034 25.1582 120.45 22.7531 123.388 22.7531C126.364 22.7531 128.781 25.1582 128.781 28.0809C128.781 31.0445 126.364 33.413 123.388 33.413ZM34.5481 30.523V33.45H34.5483H40.8716L40.8824 38.5207H28.6752V31.3777C27.411 35.2651 23.7656 38.152 19.6394 38.5207H10.3424V17.6086L19.6013 17.6427C23.7656 18.013 27.411 20.9017 28.6752 24.8248V17.6427L40.8714 17.6086L40.8823 22.7534H34.5481V25.4173H40.2845L40.2947 30.523H34.5481ZM19.6392 33.7079C21.0893 33.6705 22.429 32.6735 22.7623 31.2654C23.0981 30.2659 23.2838 29.1574 23.2838 28.0813C23.2838 27.0469 23.0981 25.9367 22.7623 24.9738C22.429 23.5324 21.0893 22.4912 19.6392 22.4912H16.2186V33.7079H19.6392Z" fill="white"/>
</g>
<defs>
<clipPath id="clip0_736_5228">
<rect width="160" height="40" fill="white" transform="translate(0.736816 8)"/>
</clipPath>
</defs>
</svg>
