<svg width="152" height="56" viewBox="0 0 152 56" fill="none" xmlns="http://www.w3.org/2000/svg">
<g clip-path="url(#clip0_736_5373)">
<path d="M30.0811 14.0014C27.4769 13.9879 24.924 14.7251 22.7278 16.1248C23.3971 16.6431 24.0042 17.2368 24.5372 17.8943C26.2362 16.9663 28.1458 16.4922 30.0815 16.5179C36.6088 16.5179 41.249 21.3152 41.249 27.9999C41.249 34.6455 36.6088 39.4033 30.0815 39.4033C23.6329 39.4033 18.9927 34.6453 18.9927 27.9999C18.9727 26.0958 19.3897 24.2125 20.2115 22.4948C19.7363 21.7437 19.1224 21.0899 18.4028 20.5682C17.0301 22.8032 16.3083 25.377 16.3186 27.9999C16.3186 36.1001 22.0989 41.9985 30.0802 41.9985C37.9839 41.9985 43.9215 35.9822 43.9215 27.9999C43.9215 20.0175 37.9848 14.0014 30.0811 14.0014ZM64.2911 31.0276C64.2982 32.1562 64.1528 33.2806 63.8587 34.3703C62.9149 37.5946 60.241 39.4036 56.6626 39.4036C53.1236 39.4036 50.4497 37.5946 49.5061 34.3703C49.212 33.2806 49.0665 32.1562 49.0736 31.0276V14.5519H46.3997V31.3029C46.4024 32.7129 46.6009 34.1157 46.9894 35.4712C48.2871 39.5607 51.6688 41.9988 56.7023 41.9988C61.7355 41.9988 65.0778 39.4822 66.4145 35.3925C66.7693 34.2914 66.9649 32.6001 66.9649 31.2244V14.5519H64.2911V31.0276ZM17.6948 37.8696C16.9646 38.1934 16.1992 38.4309 15.414 38.5774C14.0015 38.8435 12.5651 38.9624 11.128 38.9322H2.98832V17.0294H11.128C12.5651 16.999 14.0015 17.1178 15.414 17.384C20.5652 18.4849 23.3964 22.2205 23.3964 28.0008C23.432 29.8938 23.0563 31.7721 22.2953 33.5058C22.7768 34.2741 23.3736 34.9638 24.0648 35.5508C25.3625 33.4274 26.0703 30.8322 26.0703 28.001C26.0703 21.0019 22.3739 16.3617 16.0824 14.9856C14.5824 14.6746 13.0528 14.5295 11.5211 14.553H0.314453V41.4485H11.5211C13.0514 41.4843 14.5809 41.3524 16.0824 41.0552C17.2597 40.8042 18.3974 40.3942 19.4641 39.8364C18.7748 39.2777 18.1777 38.614 17.6948 37.8696V37.8696ZM145.373 27.0168L142.542 25.6407C140.134 24.4702 138.767 23.0242 138.767 20.7654C138.767 18.2489 140.497 16.4399 143.21 16.4399C146.002 16.4399 147.576 18.406 148.007 21.5124H150.524C150.052 16.322 147.024 14.0021 143.211 14.0021C139.004 14.0021 136.094 17.0298 136.094 20.8833C136.094 24.4019 138.223 26.6432 141.56 28.1962L144.429 29.5338C146.474 30.4774 148.322 32.0109 148.322 34.7636C148.322 37.5164 146.356 39.4038 143.446 39.4038C140.301 39.4038 138.02 37.5948 137.548 33.3097H134.873C135.306 39.2473 138.687 41.9999 143.405 41.9999C148.006 41.9999 151.073 38.9327 151.073 34.6466C151.073 30.3606 148.282 28.4324 145.373 27.0168ZM121.976 14.5519L111.556 41.4481H114.544L117.73 32.9164H128.818L132.043 41.4481H135.11L124.65 14.5519H121.976ZM127.875 30.3983H118.673L121.78 22.1405C122.33 20.6856 122.802 19.2308 123.274 17.7749C123.75 19.2421 124.261 20.6977 124.807 22.1405L127.875 30.3983ZM101.49 14.5519H98.8159V41.4481H109.59L110.652 38.9313H101.49V14.5519ZM80.5703 29.1012V31.6173H93.2712C92.2882 36.2965 88.3959 39.4029 83.2441 39.4029C76.7168 39.4029 72.1948 34.6285 72.1948 27.9604C72.1948 21.315 76.7957 16.5177 83.2441 16.5177C87.5698 16.5177 91.1086 18.759 92.6815 22.6118H95.552C93.9004 17.3033 89.0639 14.0003 83.2441 14.0003C75.3799 14.0003 69.5209 20.0164 69.5209 27.9595C69.5209 36.1617 75.1833 41.9974 83.2441 41.9974C90.8726 41.9974 96.3384 36.4924 96.2598 29.1003L80.5703 29.1012V29.1012Z" fill="white"/>
</g>
<defs>
<clipPath id="clip0_736_5373">
<rect width="150.758" height="28" fill="white" transform="translate(0.314453 14)"/>
</clipPath>
</defs>
</svg>
