<svg width="101" height="56" viewBox="0 0 101 56" fill="none" xmlns="http://www.w3.org/2000/svg">
<g clip-path="url(#clip0_736_5269)">
<path d="M13.6574 16.7458C6.62777 16.7458 0.77002 19.7282 0.77002 28.7256C0.77002 35.8536 4.70893 40.3424 13.8389 40.3424C24.5852 40.3424 25.2741 33.2634 25.2741 33.2634H20.067C20.067 33.2634 18.9505 37.0752 13.5212 37.0752C9.09919 37.0752 5.91869 34.088 5.91869 29.9009H25.8187V27.2735C25.8187 23.1313 23.1891 16.7458 13.6574 16.7458V16.7458ZM13.4758 20.1038C17.6852 20.1038 20.5548 22.6825 20.5548 26.5475H6.03386C6.03386 22.4444 9.77948 20.1038 13.4758 20.1038V20.1038Z" fill="white"/>
<path d="M25.815 8.03326V35.8239C25.815 37.4014 25.7024 39.6163 25.7024 39.6163H30.6689C30.6689 39.6163 30.8472 38.0255 30.8472 36.5716C30.8472 36.5716 33.3009 40.4104 39.9729 40.4104C46.9988 40.4104 51.7712 35.5326 51.7712 28.5441C51.7712 22.0428 47.3876 16.8139 39.9842 16.8139C33.0516 16.8139 30.8973 20.5576 30.8973 20.5576V8.03326H25.815ZM38.7023 20.2513C43.4734 20.2513 46.5073 23.7923 46.5073 28.5441C46.5073 33.6396 43.0033 36.9731 38.7364 36.9731C33.6442 36.9731 30.8973 32.9971 30.8973 28.5895C30.8973 24.4824 33.3621 20.2513 38.7023 20.2513Z" fill="white"/>
<path d="M64.114 16.7458C53.5385 16.7458 52.8603 22.5365 52.8603 23.4618H58.1241C58.1241 23.4618 58.4002 20.0811 63.751 20.0811C67.2281 20.0811 69.9224 21.6726 69.9224 24.7324V25.8214H63.751C55.558 25.8214 51.2267 28.2182 51.2267 33.0819C51.2267 37.8685 55.2287 40.4729 60.6369 40.4729C68.0075 40.4729 70.3819 36.4002 70.3819 36.4002C70.3819 38.0201 70.5068 39.6163 70.5068 39.6163H75.1863C75.1863 39.6163 75.0047 37.6377 75.0047 36.3718V25.4301C75.0047 18.2557 69.2179 16.7458 64.114 16.7458V16.7458ZM69.9224 29.0887V30.5407C69.9224 32.4347 68.7537 37.1432 61.8735 37.1432C58.1059 37.1432 56.4905 35.2629 56.4905 33.0819C56.4905 29.1142 61.9304 29.0887 69.9224 29.0887V29.0887Z" fill="white"/>
<path d="M72.1702 17.6543H78.092L86.5906 34.6808L95.0698 17.6543H100.434L84.9894 47.9668H79.3626L83.8193 39.5167L72.1702 17.6543Z" fill="white"/>
</g>
<defs>
<clipPath id="clip0_736_5269">
<rect width="99.7306" height="40" fill="white" transform="translate(0.736816 8)"/>
</clipPath>
</defs>
</svg>
