<svg width="323" height="350" viewBox="0 0 323 350" fill="none" xmlns="http://www.w3.org/2000/svg">
<path d="M277.908 184.505L284.497 184.229L282.517 178.291L288.284 180.754L286.142 174.864L291.976 177.165L289.652 171.352L295.562 173.471L293.056 167.734L299.024 169.653L296.318 164.002L302.352 165.71L299.445 160.164L305.537 161.634L302.4 156.212L308.559 157.415L305.183 152.146L311.38 153.062L307.746 147.956L313.991 148.557L310.089 143.66L316.353 143.908L312.164 139.25L318.429 139.107L314.144 134.172L320.571 132.902L315.837 128.387L322.111 126.488L316.927 122.498L322.943 119.911L317.319 116.56L322.952 113.239L316.937 110.661L322.053 106.595L315.732 104.905L320.198 100.132L313.695 99.4071L317.396 94.0138L310.854 94.2716L313.714 88.3915L307.277 89.5847L309.286 83.3706L303.07 85.4038L304.275 78.9796L298.345 81.7478L298.814 75.2282L293.219 78.6169L293.095 72.1259L287.911 76.0492L287.223 69.5868L282.374 73.9301L281.198 67.5345L276.674 72.2214L275.058 65.9214L270.85 70.885L268.851 64.7091L264.949 69.9018L262.606 63.8404L258.981 69.2432L256.332 63.3059L252.966 68.8709L250.049 63.0577L246.931 68.7659L243.775 63.0863L240.887 68.9091L237.511 63.3536L234.843 69.2909L231.266 63.8595L228.808 69.8732L227.307 65.2436L226.886 63.8118L232.031 67.5823L231.209 61.2536L237.004 63.9454L235.12 57.8459L241.251 59.6309L238.525 53.8558L244.847 54.8104L241.394 49.4363L247.783 49.5699L243.661 44.6921L250.011 43.9571L245.239 39.7189L251.398 38.0198L245.985 34.6407L251.723 31.8439L245.736 29.6388L250.69 25.6202L244.34 24.952L248.069 19.7783L241.777 20.857L243.967 14.8719L238.209 17.5542L237.97 10.8151L232.242 14.4901L230.836 7.84642L225.614 12.1992L223.577 5.72731L218.7 10.4619L216.251 4.12367L211.642 9.12551L208.907 2.90185L204.488 8.07552L201.533 1.95683L197.287 7.27368L194.16 1.23138L190.057 6.66277L186.777 0.696819L182.789 6.21413L179.384 0.324544L175.52 5.91822L172.001 0.095461L168.242 5.75595L164.618 0L160.964 5.73685L157.273 0.0572708L153.993 5.7655L150.664 0.0572708L147.461 5.83231L144.027 0.190907L140.929 6.03278L137.39 0.448641L134.406 6.34776L130.753 0.84001L127.894 6.79641L124.116 1.37456L121.4 7.39778L117.488 2.07138L114.945 8.17096L110.861 2.96866L108.537 9.15415L104.243 4.12367L102.206 10.4046L97.6536 5.61277L96.0182 12.0178L91.1121 7.58868L90.108 14.1083L84.6758 10.3283L84.848 16.8669L79.0429 14.3946L81.6825 20.1697L75.3609 19.5301L79.4541 24.3888L73.1613 25.3052L78.2204 29.1711L72.2145 31.2616L77.8475 34.2207L72.2241 37.1989L78.2109 39.3562L73.0083 43.0121L79.2055 44.463L74.4428 48.6726L80.7643 49.4363L76.4799 54.1422L82.8492 54.209L79.1385 59.3731L85.4601 58.6668L82.4762 64.2795L88.616 62.6186L86.6746 68.6705L92.3171 65.7591L92.0111 66.8664L89.3811 71.5818L87.2485 65.3295L83.0787 70.4459L80.6018 64.3273L76.7285 69.6727L73.8786 63.7163L70.3592 69.3005L67.1267 63.5445L63.9994 69.3577L60.3653 63.85L57.6875 69.8827L53.6229 64.6804L51.452 70.9041L46.9571 66.0645L45.3409 72.46L40.4252 68.0405L39.4306 74.5601L34.1037 70.6559L33.7785 77.2424L28.0691 73.9109L28.4612 80.4974L22.4266 77.8151L23.5551 84.3156L17.8552 81.7574L20.1791 87.5419L14.2784 85.4897L17.1092 91.0452L11.0555 89.537L14.374 94.8156L8.20554 93.8611L11.9927 98.8152L5.76683 98.4239L9.98437 103.015L3.73936 103.187L8.35856 107.378L2.16137 108.103L7.12486 111.883L1.00417 113.133L6.28327 116.474L0.286907 118.24L5.82421 121.123L0 123.376L5.74771 125.81L0.114763 128.511L6.03461 130.497L0.631196 133.618L6.72319 135.432L1.63537 139.25L7.86125 140.577L3.07947 144.767L9.38186 145.636L4.92524 150.17L11.2754 150.581L7.13442 155.411L13.4942 155.401L9.67833 160.479L16.0285 160.069L12.5378 165.376L18.8498 164.593L15.6651 170.092L21.9293 168.956L19.0506 174.616L25.2478 173.156L22.6657 178.959L28.7768 177.184L26.4815 183.112L32.497 181.05L30.4791 187.073L37.2788 187.474L30.7564 185.25L30.613 191.617L25.4678 187.865L26.0799 194.194L20.5043 191.111L21.9197 197.315L15.9903 194.967L18.1995 200.943L12.0214 199.368L14.9574 205.019L8.6359 204.217L12.2318 209.467L5.86247 209.41L10.0322 214.23L3.68197 214.86L8.32987 219.213L2.08486 220.473L7.12486 224.367L1.01374 226.191L6.38846 229.637L0.449488 231.966L6.08243 234.953L0.344289 237.75L6.15894 239.755L0.573814 242.323L6.4841 243.993L1.06156 246.876L7.05791 248.212L1.79795 251.391L7.86125 252.403L2.783 255.858L8.89412 256.545L3.99757 260.268L10.1469 260.621L5.4608 264.602L11.6102 264.621L7.16311 268.859L13.3029 268.535L9.09496 273.011L15.2061 272.334L11.2754 277.049L17.3292 276.009L13.695 280.963L19.6818 279.541L16.3824 284.714L22.2353 282.872L20.1791 289.277L26.8258 288.122L24.9992 294.594L31.5885 293.21L30.0009 299.748L36.5424 298.116L35.2035 304.712L41.678 302.832L40.5878 309.475L46.9858 307.337L46.1634 314.019L52.4657 311.633L51.9206 318.334L58.1178 315.689L57.85 322.419L63.9325 319.508L63.9516 326.237L69.9001 323.078L70.2157 329.798L76.0208 326.38L76.6233 333.081L82.2754 329.416L83.1648 336.088L89.0751 332.346L90.72 339.124L96.4295 335.095L98.4091 341.796L103.908 337.482L106.213 344.078L111.502 339.496L114.132 345.968L119.181 341.147L122.117 347.476L126.937 342.417L130.17 348.612L134.751 343.333L138.27 349.356L142.593 343.877L146.38 349.738L150.454 344.068L154.509 349.757L158.325 343.916L162.619 349.423L166.186 343.419L170.71 348.736L174.009 342.589L177.662 347.877L179.69 341.787L183.487 346.961L185.332 340.813L189.292 345.882L190.956 339.677L195.049 344.631L196.541 338.379L200.778 343.219L202.088 336.928L206.458 341.634L207.587 335.315L212.091 339.906L213.048 333.559L217.676 338.016L218.461 331.64L223.204 335.974L223.807 329.578L228.675 333.788L229.105 327.373L234.078 331.44L234.336 325.025L239.424 328.958L239.51 322.524L244.732 326.294L244.636 319.87L249.963 323.498L249.686 317.074L255.108 320.548L254.649 314.133L260.177 317.446L259.527 311.05L265.14 314.2L264.308 307.824L270.018 310.802L268.985 304.454L274.781 307.251L273.547 300.942L279.428 303.557L277.984 297.286L283.962 299.701L282.297 293.487L288.351 295.682L286.467 289.535L292.597 291.501L290.551 285.354L296.719 287.435L294.759 281.297L300.966 283.072L298.632 277.068L304.934 278.452L302.218 272.61L308.597 273.584L305.508 267.933L311.945 268.487L308.473 263.046L314.928 263.151L311.074 257.987L317.52 257.605L313.283 252.746L319.681 251.868L315.062 247.363L321.355 245.94L316.353 241.874L322.484 239.869L317.109 236.309L323 233.693L317.271 230.725L322.837 227.47L316.832 225.408L322.034 221.762L315.827 220.397L320.552 216.168L314.23 215.566L318.41 210.784L312.059 210.966L315.617 205.715L309.334 206.66L312.231 201.019L306.111 202.699L308.349 196.762L302.438 199.1L304.045 192.963L298.403 195.874L299.416 189.612L294.061 193.02L294.539 186.691L289.47 190.519L289.48 184.171L284.688 188.343L284.268 182.014L277.908 184.505Z" fill="#FFD836"/>
<path d="M43.1086 245.246C42.8723 247.946 41.5949 250.094 37.7517 249.702C35.0326 249.465 33.5267 247.082 33.2579 244.385C33.0469 242.219 35.901 240.272 38.6076 239.92C41.7272 239.516 43.3448 242.545 43.1086 245.246Z" fill="black"/>
<path d="M73.3159 251.2C73.0795 253.903 71.809 256.053 67.9627 255.661C65.2415 255.424 63.7264 253.038 63.4653 250.34C63.2535 248.18 66.1098 246.232 68.8186 245.879C71.9407 245.475 73.5524 248.498 73.3159 251.2Z" fill="black"/>
<path d="M42.1768 255.902C42.1768 255.902 49.2256 264.846 61.0127 258.934" stroke="black" stroke-width="5" stroke-linecap="round" stroke-linejoin="round"/>
</svg>
