<svg width="86" height="56" viewBox="0 0 86 56" fill="none" xmlns="http://www.w3.org/2000/svg">
<g clip-path="url(#clip0_736_5166)">
<path d="M60.2655 1.69827C63.3488 0.183911 64.8768 0.382639 64.9112 1.9176C64.9524 3.91159 64.6576 6.56322 64.4451 8.48186C63.3008 18.91 61.3891 27.4312 61.2452 38.1382C66.2814 25.1002 70.5023 16.0383 75.9429 4.87768C77.6697 1.32142 78.7728 1.98612 80.1911 1.35568C85.7139 -1.10417 85.9196 0.403246 85.1999 3.41136C82.5209 14.5528 75.6618 49.6325 74.6137 55.0341C74.312 56.597 72.6129 55.9344 72.1742 55.3233C70.2078 52.603 67.9877 52.5605 68.2343 50.7516C69.4677 41.7458 73.9077 19.1505 75.0658 13.8264C69.1661 25.9217 63.0473 41.0421 59.9022 49.6155C59.2375 51.436 58.0246 51.3025 57.271 49.9704C56.2089 48.0992 54.1464 47.1439 53.8037 44.9327C52.728 37.9026 55.0372 24.5027 55.3591 16.0253C52.1457 25.2858 46.753 43.2649 44.389 51.388C43.4161 54.749 40.1682 54.2007 41.0315 50.9249C44.6219 37.2927 52.358 13.1823 55.7018 4.51449C56.4901 2.47246 58.5524 2.54098 60.2655 1.69827Z" fill="white"/>
<path d="M40.6825 0.0266382C39.641 -0.226833 36.6192 1.40396 34.7623 1.72595C34.173 1.82873 33.6111 2.45223 33.4124 2.89772C30.4385 9.72922 27.7731 16.2414 25.464 22.1739C22.5107 22.6782 19.0574 23.3422 15.1928 24.2103C17.961 17.1095 20.7567 10.106 23.4838 3.3704C24.8267 0.0539499 21.2912 -0.261208 19.9207 3.09633C18.1391 7.46116 14.8021 15.6391 11.1088 25.171C8.3954 25.8363 5.5176 26.5968 2.50949 27.4657C0.323602 28.0968 0.234638 28.6792 1.18024 29.99C1.70096 30.7199 2.77675 30.6463 3.27004 31.1665C4.54458 32.5143 5.31888 34.1265 7.60048 34.3705C5.5654 39.8144 3.53035 45.4284 1.68718 50.834C0.529188 54.2271 3.82499 54.9211 5.09271 51.3306C7.13461 45.5427 9.28617 39.6848 11.4994 33.8442C13.3425 33.4158 17.8032 32.4551 21.9213 31.5616C18.6529 40.52 16.5012 47.3234 15.6859 50.6351C15.5352 51.2723 15.7887 51.6259 15.9257 51.8856C17.0289 53.491 18.0773 53.5567 19.4957 55.5417C19.8795 56.0831 21.1677 56.375 21.6061 55.0422C24.6347 45.894 27.7524 37.3105 30.6577 29.6156C31.8636 29.3518 34.0357 28.8276 35.3649 26.8439C37.7288 23.3232 38.4072 24.0373 38.9761 22.967C39.6887 21.6233 39.2158 20.3618 36.6944 20.6735C36.6944 20.6735 35.7419 20.7413 33.9809 20.9421C36.7765 13.744 39.2227 7.6388 40.9837 2.98636C41.5869 1.41079 41.6623 0.259626 40.6825 0.0266382Z" fill="white"/>
<path d="M36.5576 46.7124C37.2085 48.3576 39.2436 47.8594 38.4693 45.8738C37.6812 43.8509 35.7216 37.7615 35.2076 35.7997C34.5087 33.1562 37.5373 33.8791 36.0025 35.6073C34.687 37.0934 33.8098 37.6889 31.3774 40.5147C29.0271 43.2425 29.6644 46.7824 32.1791 47.5642C35.0158 48.4467 37.5169 45.3208 39.0654 43.0275C40.566 40.8067 39.1133 39.5042 37.599 40.817C36.626 41.6612 35.5023 42.9575 34.3647 43.6565C33.4397 44.219 32.7134 43.6147 33.9468 41.9168C35.3789 39.951 36.9823 38.3038 38.1745 36.4461C40.607 32.6603 35.7968 30.478 33.7275 32.9371C32.6174 34.248 32.8984 35.5349 33.1999 36.6393C33.6865 38.4085 35.4954 44.056 36.5576 46.7124Z" fill="white"/>
</g>
<defs>
<clipPath id="clip0_736_5166">
<rect width="84.8891" height="56" fill="white" transform="translate(0.608704)"/>
</clipPath>
</defs>
</svg>
