<svg width="109" height="56" viewBox="0 0 109 56" fill="none" xmlns="http://www.w3.org/2000/svg">
<path fill-rule="evenodd" clip-rule="evenodd" d="M90.929 46.846C100.027 46.846 107.411 39.4917 107.411 30.3644C107.411 21.2372 100.027 13.8828 90.929 13.8828C81.8303 13.8828 74.4474 21.2663 74.4474 30.3644C74.4474 39.4625 81.8303 46.846 90.929 46.846ZM94.446 20.8301C94.7367 20.6845 95.1724 20.6553 95.4923 20.6553C95.7828 20.6553 96.0158 20.7136 96.1608 21.0623C96.3354 21.4696 96.3354 21.9053 96.2772 22.3123C96.0587 23.6895 95.8072 24.327 95.2136 25.8317C95.0179 26.3279 94.785 26.9183 94.5038 27.6607C94.2423 28.3585 94.0389 29.0562 93.8643 29.7539C93.8575 29.7812 93.8495 29.8118 93.8408 29.8448C93.7759 30.0925 93.6747 30.4791 93.7775 30.6842C93.918 30.942 94.21 30.8972 94.4854 30.855C94.5515 30.8448 94.6166 30.8348 94.6785 30.8292C95.139 30.7763 95.5889 30.6583 96.0347 30.5413C96.3201 30.4665 96.6039 30.392 96.8877 30.3354C96.9898 30.3061 97.0991 30.2842 97.2086 30.2622C97.3171 30.2405 97.4257 30.2187 97.5273 30.1897C97.5418 30.1462 97.5491 30.0954 97.5564 30.0445C97.5637 29.9936 97.571 29.9428 97.5855 29.8992C97.6581 29.5494 97.7279 29.2067 97.7967 28.8692C98.1678 27.0471 98.508 25.3769 99.0968 23.5621C99.2127 23.2715 99.5324 22.5447 99.7945 22.1091C99.9979 21.7602 100.405 21.3531 100.667 21.2663C101.015 21.1498 101.655 21.3239 101.771 21.5278C102.178 22.225 102.294 23.6205 102.062 24.6963C101.742 26.0913 101.364 27.8063 101.074 29.3759C101.144 29.3597 101.213 29.3434 101.282 29.3273C101.581 29.2571 101.865 29.1905 102.149 29.1436C102.237 29.1289 102.332 29.1143 102.427 29.0997C102.521 29.0853 102.614 29.0709 102.701 29.0564C103.224 28.969 103.806 28.9107 104.358 28.9689C104.881 29.0272 105.782 29.2013 105.753 29.9282C105.778 30.3158 105.156 30.2592 104.83 30.2295C104.765 30.2236 104.712 30.2187 104.678 30.2187C104.3 30.2187 103.893 30.2189 103.515 30.2479C102.876 30.277 102.236 30.3644 101.597 30.5095C101.451 30.5386 101.306 30.575 101.161 30.6114C101.015 30.6478 100.87 30.6842 100.725 30.7134C100.725 30.8584 100.696 31.0038 100.667 31.1197C100.492 32.2246 100.027 35.1024 99.7945 36.2068C99.6489 36.9337 99.4748 37.4567 99.2418 37.9803C99.2176 38.0287 99.1935 38.0782 99.1691 38.1282C99.0176 38.4386 98.8567 38.768 98.6315 38.9685C98.3374 39.2361 98.117 39.2821 97.7666 39.3555C97.7362 39.3618 97.7048 39.3684 97.6723 39.3753C97.3234 39.4335 96.9459 39.3751 96.7713 39.1718C96.6712 39.0462 96.6359 38.856 96.6092 38.7131C96.605 38.6904 96.601 38.6689 96.597 38.649C96.568 38.4167 96.568 38.2138 96.568 37.9822V37.9803C96.5389 37.3408 96.5969 36.672 96.6552 36.0617C96.6752 35.7149 96.8385 34.4677 96.9544 33.5831C97.0037 33.2064 97.0444 32.8954 97.0618 32.7477L97.2365 31.6144C95.6378 32.0793 94.01 32.5153 92.353 32.6609C89.9696 32.8643 89.9989 31.4688 90.3472 29.9864C90.3729 29.8838 90.3929 29.7867 90.4123 29.6928C90.4367 29.5741 90.4601 29.4604 90.4927 29.3469C90.8124 28.0388 91.2194 26.7306 91.6842 25.4806C91.8569 25.0392 92.0299 24.623 92.2028 24.2072C92.2917 23.9932 92.3806 23.7793 92.4694 23.5621C92.6693 23.0957 92.937 22.6633 93.2079 22.2259C93.2915 22.0909 93.3754 21.9554 93.4577 21.8183C93.4868 21.7311 93.5444 21.6438 93.6027 21.586L93.6033 21.5855C93.7778 21.3819 93.952 21.1786 94.155 21.0041C94.198 20.9757 94.248 20.9472 94.2981 20.9186C94.3498 20.8891 94.4016 20.8596 94.446 20.8301ZM78.3421 24.8411C79.4969 23.3699 82.0829 21.72 84.2587 21.7176C85.4792 21.7162 86.5705 22.2334 87.2077 23.5914C88.5158 26.3242 87.6148 28.9398 86.3067 31.3819C85.7185 32.4889 85.0997 33.6165 84.5234 34.6666C84.1312 35.3812 83.7587 36.06 83.4289 36.672C83.2952 36.9251 83.1741 37.1406 83.0713 37.3234C82.5485 38.2534 82.5003 38.3391 83.6904 38.2418C84.2088 38.2046 84.7269 38.0852 85.245 37.9657C85.5407 37.8974 85.8365 37.8292 86.1324 37.7763C86.9644 37.6332 87.7965 37.4612 88.6289 37.2892L88.6614 37.2825C89.5043 37.1084 90.2893 37.0209 91.1612 37.05C91.6842 37.0792 92.2655 37.1952 92.76 37.399C93.0215 37.4858 93.6902 37.7478 93.661 38.0675C93.6319 38.3582 93.0215 38.7939 92.76 38.7648C92.6147 38.7503 92.4694 38.7213 92.3241 38.6923C92.1787 38.6633 92.0334 38.6343 91.888 38.6198C91.1612 38.5324 90.4053 38.5324 89.6789 38.5908C89.2993 38.6287 88.9323 38.6913 88.5616 38.7544C88.3642 38.7881 88.1657 38.8219 87.9637 38.8523C86.8588 39.0555 85.7546 39.2594 84.6497 39.4918C84.5346 39.5148 84.4196 39.5386 84.3045 39.5624C83.6925 39.6889 83.0769 39.8161 82.4406 39.8405C81.8011 39.8698 81.1615 39.7531 80.5511 39.5498C78.6041 38.9103 79.1562 37.1369 80.0863 35.6255C80.4106 35.0851 80.7412 34.5509 81.0715 34.0171C82.1622 32.2546 83.25 30.4968 84.0976 28.5334C84.5338 27.5159 84.8826 26.3243 84.7661 25.2194C84.4756 22.5163 82.2082 23.7078 80.9001 25.4516C80.2897 26.0328 77.6448 25.7131 78.3421 24.8411Z" fill="white"/>
<path d="M71.6278 35.8003C71.5987 35.8294 71.5697 35.8294 71.5697 35.8579C70.4356 36.8754 66.8892 39.346 65.7558 36.9337C65.2909 35.9453 65.3487 34.6372 65.3487 33.5619C65.3487 32.6609 65.4361 31.7017 65.4943 30.7424C67.1222 30.7133 69.4472 29.2304 69.4763 25.5973C69.4763 23.3007 67.2672 23.1557 66.6859 23.1557C62.0061 23.1267 61.0177 30.1606 60.9886 33.3582V33.6779C59.797 35.8579 58.4888 37.8055 57.2681 37.8347C56.6577 37.8638 56.3962 36.8754 56.3962 35.6838C56.3962 33.591 57.0933 31.2654 57.4131 29.0563C57.7328 26.8472 57.4131 25.3649 55.6983 25.2774C51.629 25.0737 49.3325 30.655 49.1286 30.9748C49.216 28.0388 48.3441 26.295 45.6411 26.2368C43.751 26.1785 41.8331 29.1145 41.8331 29.1145V28.5042C41.8616 27.2543 41.7166 24.4057 39.391 24.4057H39.3619C38.7515 24.4057 37.6762 24.9868 36.688 25.5389C35.2341 26.3527 32.1531 27.2252 31.979 26.9637C30.7 25.0737 28.9556 24.6379 27.793 24.4923C25.3224 24.2018 23.3456 25.1902 23.2 26.5274C23.1709 26.9637 23.3456 27.3411 23.5198 27.574C22.9385 27.9514 22.4446 28.5909 21.9793 29.4052C21.4563 30.2479 20.9909 31.8467 20.7294 32.6609C20.4388 33.5328 20.119 34.2305 19.625 35.1025C18.9855 36.2942 17.9099 38.0962 16.9214 38.5907C16.6018 38.7357 16.0495 38.9395 15.788 38.5324C15.4974 38.0676 15.7007 36.7013 15.8748 36.0035C16.1078 35.0734 16.4567 33.5038 16.689 32.5735C16.9798 31.411 17.212 29.9864 17.3868 28.9398C17.59 27.4575 17.4737 25.8297 16.1078 25.0452C14.2475 23.9693 11.951 24.4633 10.3523 25.8006C9.33476 26.6439 8.69526 27.6899 7.93925 29.0272C7.70683 29.4343 7.242 30.4227 7.242 30.4227C7.242 30.4227 7.61942 27.719 7.70683 26.9922C8.31725 22.3997 8.86935 17.9232 9.82868 13.3883C10.0324 12.3714 10.3814 11.5281 10.3523 10.4529C10.3232 9.8711 10.2067 9.49369 9.97427 9.31901C9.18917 8.62118 7.35792 10.3073 6.80582 11.2083C5.58499 13.2433 5.0038 15.6558 4.48021 17.9523C2.96878 24.8122 1.63159 39.0554 1.60236 39.346C1.57386 40.0438 1.66068 41.2938 2.79469 41.381C3.40496 41.4103 3.75388 41.4103 4.68398 41.0323C5.61422 40.6542 6.13723 39.8405 6.57341 38.7648C7.06733 37.6023 7.67775 36.0035 8.17225 34.6954C8.66617 33.3873 8.95676 32.4572 9.53794 31.3819C10.0034 30.5094 10.7879 29.4634 11.8054 29.1437C12.1834 29.0272 12.9685 28.8816 12.8229 29.5211C12.7647 29.7832 11.8928 32.9224 11.6895 33.8234C11.5439 34.4339 11.3989 35.1608 11.2824 35.771C10.701 39.0263 12.852 42.2529 16.4853 41.1488C18.2004 40.625 19.5085 39.4625 20.497 38.0676C20.642 37.8638 20.7876 37.6314 20.9327 37.399C21.8343 40.3344 24.479 41.2938 25.7873 41.3519C28.0545 41.4684 32.88 39.8988 32.9091 31.2945C32.9091 30.6842 32.8218 29.7249 32.7635 29.2304C32.7635 29.2887 34.6529 28.998 36.0485 28.5333C36.4265 28.4168 36.7461 28.2712 37.0367 28.1262C36.31 31.4978 36.1644 36.4106 36.1066 38.2127C36.0485 40.9163 36.6296 41.3519 37.5599 41.381C37.9961 41.381 38.5774 41.2938 38.5774 41.2938C40.7282 40.6833 40.7282 39.1428 40.7282 39.1428C40.8738 31.934 44.6526 28.2712 45.4955 28.3003C45.757 28.3003 45.8151 28.6201 45.8442 29.0854C45.8735 30.6842 45.5536 32.2829 44.7976 35.1025C44.3905 36.5848 44.129 37.7479 44.129 38.4742C44.0709 40.858 45.4955 41.0323 45.757 41.0613H45.7861C47.1816 41.0904 47.4431 39.8114 47.4431 39.8114C50.4367 30.3935 53.0821 29.1437 53.0821 29.1437C52.5591 31.556 51.9772 34.0849 51.9196 36.2068C51.8613 38.9978 52.908 41.4684 56.105 41.3228C57.9949 41.236 59.8261 39.1428 61.2501 36.9337C62.2093 41.0323 64.8838 41.4103 65.9882 41.4103C67.9067 41.4103 69.767 40.5383 71.0461 39.1428C71.4239 38.7357 71.8019 38.3 72.1218 37.8638C72.3833 37.5149 73.0228 36.7595 73.0518 36.3233C73.1393 35.3349 72.1218 35.4223 71.6272 35.8003H71.6278V35.8003ZM66.1047 25.6264C66.2788 25.3067 66.7151 24.9578 67.0348 24.9578C67.2963 24.9578 67.5002 25.1609 67.5002 25.7132C67.4711 28.3586 65.9591 28.6492 65.6976 28.7074C65.8432 27.574 65.7267 26.44 66.1047 25.6264V25.6264ZM28.9556 32.7768C28.7815 35.9162 28.0836 39.0845 26.6883 39.0263C25.4965 38.9978 24.9153 36.7595 24.9153 34.5504C24.9153 31.934 26.0195 28.7365 26.0195 28.7365C26.0195 28.7365 26.892 28.9398 27.3278 28.998C27.7349 29.0563 28.665 29.1145 28.665 29.1145C28.8974 30.0155 29.043 31.2072 28.9556 32.7768Z" fill="white"/>
</svg>
