<svg width="101" height="56" viewBox="0 0 101 56" fill="none" xmlns="http://www.w3.org/2000/svg">
<g clip-path="url(#clip0_736_5164)">
<path fill-rule="evenodd" clip-rule="evenodd" d="M100.594 48H0.608704V8H100.609V48H100.594ZM2.6087 28C2.6087 37.8325 22.725 46 50.6159 46C78.5067 46 98.6087 37.8325 98.6087 28C98.6087 18.1675 78.4924 10 50.6159 10C22.7393 10 2.6087 18.1675 2.6087 28Z" fill="white"/>
<path d="M47.0567 34.0047C47.372 34.4524 47.716 34.8721 48.1173 35.2499H37.2961C37.2961 34.8301 36.8805 33.9767 36.4218 33.3052C35.9632 32.6336 33.4836 28.9542 33.4836 28.9542V34.0047C33.4836 34.4244 33.4836 34.8301 33.6986 35.2499H24.6834C24.8984 34.8301 24.8984 34.4244 24.8984 34.0047V22.0008C24.8984 21.5811 24.8984 21.1754 24.6834 20.7557H33.6986C33.4836 21.1754 33.4836 21.5811 33.4836 22.0008V27.2473C33.4836 27.2473 36.3645 23.5818 37.0238 22.7283C37.5254 22.0848 38.1418 21.1753 38.1418 20.7557H47.544C46.899 21.1754 46.1824 21.9309 45.5947 22.6304C45.0787 23.246 42.1549 26.7296 42.1549 26.7296C42.1549 26.7296 46.4833 33.1793 47.0566 34.0047H47.0567ZM49.8945 22.0008V34.0047C49.8945 34.4244 49.8945 34.8301 49.6795 35.2499H67.0794V31.2206C66.6494 31.4304 66.2337 31.4304 65.8038 31.4304H58.4798V29.5277H65.5171V26.4777H58.4798V24.5611H65.8038C66.2338 24.5611 66.6494 24.5611 67.0794 24.757V20.7417H49.6795C49.8945 21.1754 49.8945 21.5811 49.8945 22.0008V22.0008ZM91.1869 34.0047C91.3302 34.4664 91.5739 34.8861 91.8892 35.2499H82.4583C82.5013 34.8301 82.3437 34.4244 82.1717 34.0047C82.1717 34.0047 82.0283 33.6689 81.8277 33.1793L81.7417 32.9694H76.3096L76.2236 33.1932C76.2236 33.1932 76.0659 33.599 75.9226 34.0187C75.7793 34.4384 75.6216 34.8441 75.679 35.2638H68.2403C68.5442 34.8968 68.7731 34.4738 68.914 34.0187L73.3714 22.0148C73.5291 21.5951 73.6867 21.1894 73.6294 20.7697H86.1991C86.0845 21.1894 86.3138 21.5951 86.4715 22.0148C86.8441 22.9242 90.8715 33.1932 91.1869 34.0047V34.0047ZM80.5521 29.9055L79.2335 26.5477C79.1188 26.24 79.0185 25.9182 78.9468 25.5964C78.8894 25.9206 78.8031 26.2389 78.6888 26.5477C78.6458 26.6877 78.0868 28.1567 77.4418 29.9055H80.5521ZM20.4122 20.7557H10.6087C10.8237 21.1754 10.8237 21.5811 10.8237 22.0008V34.0047C10.8237 34.4244 10.8237 34.8301 10.6087 35.2499H20.4122C20.1972 34.8301 20.1972 34.4244 20.1972 34.0047V22.0008C20.1972 21.5811 20.1972 21.1754 20.4122 20.7557V20.7557ZM88.177 21.9029C88.134 20.8816 88.951 20.0282 89.9973 20.0002H90.1263C91.1869 19.9862 92.0612 20.7976 92.0755 21.8329V21.9029C92.1042 22.9522 91.2585 23.8336 90.1693 23.8616C89.0943 23.8896 88.1913 23.0641 88.1627 22.0008C88.177 21.9728 88.177 21.9308 88.177 21.9028V21.9029ZM88.564 21.9029C88.564 22.7423 89.2663 23.4279 90.1263 23.4279C90.9863 23.4279 91.6885 22.7423 91.6885 21.9029C91.6885 21.0635 90.9862 20.3779 90.1263 20.3779C89.295 20.3499 88.5927 20.9795 88.564 21.7909V21.9029ZM89.7393 23.0361H89.3953V20.7417H90.2696C90.6853 20.7557 91.0006 21.0774 91.0006 21.4832C91.0006 21.763 90.8429 22.0148 90.5849 22.1547L91.0866 23.0361H90.6996L90.2409 22.2247H89.7393V23.0361V23.0361ZM89.7393 21.9029H90.2123C90.4416 21.9169 90.6423 21.7489 90.6423 21.5251C90.6423 21.3013 90.4846 21.1054 90.2553 21.1054H89.7393V21.9029V21.9029Z" fill="white"/>
</g>
<defs>
<clipPath id="clip0_736_5164">
<rect width="100" height="40" fill="white" transform="translate(0.608704 8)"/>
</clipPath>
</defs>
</svg>
