<svg width="98" height="56" viewBox="0 0 98 56" fill="none" xmlns="http://www.w3.org/2000/svg">
<path fill-rule="evenodd" clip-rule="evenodd" d="M45.2924 32.3429L35.5893 22.2286L24.406 33.9086V37.8286L27.2237 34.88L35.0301 43.04L32.1466 46.0343L34.0214 48L49.6342 31.7029V27.7943L45.2924 32.3429Z" fill="white"/>
<path fill-rule="evenodd" clip-rule="evenodd" d="M0 20.103H17.2793V23.9887H14.3957V36.5601L24.4059 30.7544V41.3944H0V37.4858H2.8945V23.9887H0V20.103ZM72.8558 20.103V23.9887H75.7503V37.4858H72.8558V41.3944H97.2836V30.7544L87.2625 36.5601V23.9887H90.157V20.103H72.8558V20.103Z" fill="white"/>
<path fill-rule="evenodd" clip-rule="evenodd" d="M34.1636 8.00004C35.3811 8.00005 36.5711 8.37666 37.5831 9.08217C38.5951 9.78768 39.3834 10.7904 39.8483 11.9632C40.3132 13.1361 40.4337 14.4264 40.1946 15.6707C39.9555 16.915 39.3675 18.0574 38.5051 18.9531C37.6427 19.8489 36.5447 20.4577 35.3501 20.7025C34.1555 20.9473 32.9181 20.8171 31.7946 20.3283C30.671 19.8395 29.7119 19.0142 29.0387 17.9568C28.3655 16.8995 28.0085 15.6576 28.0128 14.3886C28.0128 13.5477 28.172 12.7151 28.4814 11.9385C28.7908 11.1619 29.2442 10.4566 29.8157 9.86311C30.3871 9.26958 31.0653 8.79947 31.8115 8.47976C32.5576 8.16006 33.3569 7.99703 34.1636 8.00004V8.00004Z" fill="white"/>
<path d="M46.7827 20.103V23.9892H49.6672V37.4869H46.7506V41.3954H63.1966C75.4106 41.3954 75.5633 20.1029 63.2288 20.1029H46.7827L46.7827 20.103ZM60.0937 26.7325H60.7832C64.3904 26.7325 64.3916 34.7325 60.916 34.7325H60.0937V26.7325Z" fill="white"/>
</svg>
