<svg width="108" height="56" viewBox="0 0 108 56" fill="none" xmlns="http://www.w3.org/2000/svg">
<g clip-path="url(#clip0_736_5167)">
<path d="M97.0281 25.6923L96.9309 26.8528C96.2539 35.1689 93.5468 37.7318 90.2105 37.7318C87.2122 37.7318 85.0843 35.7012 85.5198 30.286L85.6166 29.0766C86.294 20.8084 89.0009 18.1974 92.3371 18.1974C95.2872 18.1974 97.4631 20.2771 97.0281 25.6923V25.6923ZM22.0821 25.6923L21.9848 26.8528C21.3087 35.1689 18.6005 37.7318 15.2643 37.7318C12.2662 37.7318 10.1393 35.7012 10.5744 30.286L10.6704 29.0766C11.3479 20.8084 14.0557 18.1974 17.3921 18.1974C20.3412 18.1974 22.5171 20.2771 22.0821 25.6923V25.6923ZM93.3045 10.0262C87.9927 10.0262 83.6719 11.6637 80.6191 15.0535C81.054 13.8767 81.2832 12.4417 81.3131 10.7514H62.6977C58.6362 10.7514 56.3152 12.5402 54.7197 17.1339L55.5419 10.7514H36.7325C33.2891 10.7514 30.9249 12.3979 30.0707 15.6224C27.7399 11.887 23.5982 10.0262 18.3587 10.0262C8.39869 10.0262 1.91922 15.7804 0.75871 28.0612L0.613621 29.6087C-0.401796 40.5851 5.35244 46 14.297 46C24.2578 46 30.7374 40.1979 31.8977 27.9161L32.0428 26.3694C32.3046 23.553 32.1134 21.1055 31.537 19.0196H39.972L37.555 39.7147C37.0708 43.8243 39.2956 45.71 43.018 45.71C45.2909 45.71 46.0643 45.5649 46.9346 45.4201L49.9327 19.0196H59.7484L57.3306 39.7147C56.8473 43.8243 59.0713 45.71 62.7947 45.71C65.0666 45.71 65.8409 45.5649 66.7113 45.4201L69.7084 19.0196H74.5442C76.2171 19.0196 77.5682 18.6308 78.611 17.8622C77.0885 20.5448 76.0948 23.9326 75.7045 28.0612L75.5596 29.6087C74.5442 40.5851 80.2976 46 89.2428 46C99.204 46 105.682 40.1979 106.843 27.9161L106.988 26.3694C108.004 15.4413 102.25 10.0262 93.3045 10.0262" fill="white"/>
</g>
<defs>
<clipPath id="clip0_736_5167">
<rect width="106.625" height="36" fill="white" transform="translate(0.497803 10)"/>
</clipPath>
</defs>
</svg>
