<svg width="183" height="56" viewBox="0 0 183 56" fill="none" xmlns="http://www.w3.org/2000/svg">
<path d="M119.699 15.6504L115.707 15.9718C115.707 15.9718 115.951 17.7508 115.951 19.3083V35.5281H119.918V25.7885C119.918 25.7885 121.651 25.0235 124.038 25.0235C125.205 25.0235 125.993 25.586 125.993 27.1707V35.5281H129.985V26.4314C129.985 23.3895 128.03 21.6356 125.099 21.6356C122.114 21.6356 119.918 22.722 119.918 22.722V17.9262C119.918 16.5423 119.699 15.6504 119.699 15.6504Z" fill="white"/>
<path d="M168.056 15.6504L164.09 15.9718C164.09 15.9718 164.334 17.7508 164.334 19.3083V35.5281H168.268V31.8958L169.843 30.4108L172.479 33.6252C173.646 35.0579 175 35.7274 176.709 35.7274C178.202 35.7274 178.824 35.5281 178.824 35.5281V32.3137C178.824 32.3137 178.444 32.3909 177.847 32.3909C177.142 32.3909 176.197 32.044 175.301 30.983L172.801 27.9357L178.959 21.9313L174.022 21.8284L169.927 25.7885C169.33 26.3828 168.323 27.4946 168.268 27.7172V17.9262C168.268 16.393 168.056 15.6504 168.056 15.6504Z" fill="white"/>
<path d="M12.7053 16.0233C7.46809 16.0233 4.02002 17.2816 4.02002 22.0791C4.02002 26.1332 6.5408 26.876 11.3167 27.5436C15.4955 28.1378 16.2861 28.2347 16.2861 29.9415C16.2861 31.8464 15.2244 32.2173 12.0495 32.2173C7.6807 32.2173 4.18074 30.983 4.18074 30.983V35.0845C5.70034 35.5051 8.41763 36.0231 11.9724 36.0231C17.3724 36.0231 20.6512 34.9373 20.6512 29.7679C20.6512 24.9731 17.829 24.6007 12.9174 23.8599C8.84708 23.2412 8.19871 23.1442 8.19871 21.687C8.19871 20.1294 9.09473 19.5784 12.4867 19.5784C16.3399 19.5784 19.404 20.4977 19.404 20.4977V16.814C19.404 16.814 16.7756 16.0233 12.7053 16.0233Z" fill="white"/>
<path d="M90.1717 16.0233C84.9345 16.0233 81.4607 17.2816 81.4607 22.0791C81.4607 26.1332 84.0136 26.876 88.7895 27.5436C92.9684 28.1378 93.7589 28.2347 93.7589 29.9415C93.7589 31.8464 92.6972 32.2173 89.5223 32.2173C85.1535 32.2173 81.6536 30.983 81.6536 30.983V35.0845C83.1732 35.5051 85.8569 36.0231 89.4388 36.0231C94.8388 36.0231 98.124 34.9373 98.124 29.7679C98.124 24.9731 95.3032 24.6007 90.3645 23.8599C86.3213 23.2412 85.6715 23.1442 85.6715 21.687C85.6715 20.1294 86.5675 19.5784 89.9595 19.5784C93.8128 19.5784 96.8768 20.4977 96.8768 20.4977V16.814C96.8768 16.814 94.242 16.0233 90.1717 16.0233Z" fill="white"/>
<path d="M72.8335 19.6298L70.1463 20.0026C70.1463 20.0026 69.6297 21.6328 66.9705 22.4713V25.2163H69.1434V31.3494C69.1434 34.0466 70.0666 35.8238 73.4314 35.8238C76.1721 35.8238 78.8315 35.0588 78.8315 35.0588V31.7222C78.8315 31.7222 76.0346 32.288 74.5692 32.288C73.4567 32.288 73.1035 31.747 73.1035 30.9058V25.2163H78.6129V21.9313H73.1356C73.0814 20.3981 72.8335 19.6298 72.8335 19.6298Z" fill="white"/>
<path d="M47.3241 21.6356C42.4397 21.6356 40.0532 23.8622 40.0532 28.6815C40.0532 33.6012 42.3855 35.8238 47.3241 35.8238C52.2357 35.8238 54.6015 33.6012 54.6015 28.6815C54.6015 23.8622 52.1814 21.6356 47.3241 21.6356ZM47.3241 25.0235C50.0106 25.0235 50.5835 25.9355 50.5835 28.63C50.5835 31.4006 50.092 32.3394 47.3241 32.3394C44.5835 32.3394 44.0455 31.4006 44.0455 28.63C44.0455 25.9355 44.6106 25.0235 47.3241 25.0235Z" fill="white"/>
<path d="M64.8297 21.6356C62.9844 21.6356 61.548 22.6228 61.1138 23.3392C61.1138 22.3026 60.921 21.7834 60.921 21.7834L57.1216 21.9827C57.1216 21.9827 57.3659 23.7372 57.3659 25.3192V35.5281H61.3003V26.9779C61.3003 25.8897 62.4117 25.2164 64.6368 25.2164H65.5368V21.6356H64.8297Z" fill="white"/>
<path d="M107.761 21.6356C102.768 21.6356 100.483 23.8622 100.483 28.6815C100.483 33.6012 102.714 35.8238 107.761 35.8238C111.234 35.8238 113.103 35.0588 113.103 35.0588V31.4523C113.103 31.4523 110.771 32.2366 107.786 32.2366C105.046 32.2366 104.553 31.3721 104.553 28.6043C104.553 25.9098 105.073 25.0685 107.786 25.0685C110.934 25.0685 112.917 25.6664 112.917 25.6664V22.2013C112.917 22.2013 110.936 21.6356 107.761 21.6356Z" fill="white"/>
<path d="M139.834 21.6356C134.895 21.6356 132.698 23.8622 132.698 28.6815C132.698 33.6012 134.84 35.8238 139.86 35.8238C143.523 35.8238 145.935 35.0331 145.935 35.0331V31.7223C145.935 31.7223 143.305 32.4873 140.374 32.4873C137.335 32.4873 136.823 31.6509 136.742 29.9929C136.742 29.9929 137.906 30.1858 139.86 30.1858C143.984 30.1858 146.398 29.7165 146.398 29.7165C146.398 29.7165 146.481 29.3207 146.481 28.6043C146.454 24.7728 144.963 21.6356 139.834 21.6356ZM139.86 24.8242C141.542 24.8242 142.464 25.244 142.573 27.3443C142.573 27.3443 141.922 27.5436 139.86 27.5436C137.77 27.5436 136.767 27.3957 136.767 27.3957C136.957 25.3443 137.553 24.8242 139.86 24.8242Z" fill="white"/>
<path d="M156.169 21.6356C151.149 21.6356 148.898 23.8622 148.898 28.6815C148.898 33.6012 151.122 35.8238 156.169 35.8238C159.616 35.8238 161.486 35.0588 161.486 35.0588V31.4523C161.486 31.4523 159.18 32.2366 156.195 32.2366C153.427 32.2366 152.968 31.3721 152.968 28.6043C152.968 25.9098 153.454 25.0685 156.195 25.0685C159.316 25.0685 161.325 25.6664 161.325 25.6664V22.2013C161.325 22.2013 159.317 21.6356 156.169 21.6356Z" fill="white"/>
<path d="M31.3744 21.6613C28.688 21.6613 27.1121 22.5999 27.1121 22.5999C27.085 22.1548 26.9193 21.8027 26.9193 21.8027L23.0427 22.002C23.0427 22.002 23.3127 23.7565 23.3127 25.3385V40.3496H27.2728V36.5695C27.2728 35.9753 27.1957 35.1809 27.1957 35.1809C27.1957 35.1809 28.9584 35.8238 30.7765 35.8238C35.4438 35.8238 37.6424 33.3298 37.6424 28.6814C37.6424 24.5786 35.7161 21.6613 31.3744 21.6613ZM30.2558 25.0235C33.0779 25.0235 33.5987 25.8351 33.5987 28.63C33.5987 31.4006 33.0507 32.3394 30.2558 32.3394C28.8447 32.3394 27.6256 32.0669 27.2728 31.9665V25.4156C27.2728 25.4156 28.8447 25.0235 30.2558 25.0235Z" fill="white"/>
</svg>
