<svg width="1668" height="1668" viewBox="0 0 1668 1668" fill="none" xmlns="http://www.w3.org/2000/svg">
<path d="M834.027 1568.58L906.949 1668L961.668 1557.54L1050.69 1642.8L1085.32 1524.47L1187.92 1592.87L1201.33 1470.29L1314.27 1519.79L1306.19 1396.72L1425.97 1425.91L1396.78 1306.14L1519.79 1314.21L1470.29 1201.28L1592.87 1187.87L1524.47 1085.32L1642.8 1050.69L1557.54 961.668L1668 906.949L1568.58 834.027L1668 761.051L1557.54 706.332L1642.8 617.307L1524.47 582.677L1592.87 480.08L1470.29 466.669L1519.79 353.732L1396.72 361.81L1425.91 242.033L1306.14 271.223L1314.21 148.214L1201.28 197.708L1187.87 75.1303L1085.32 143.528L1050.69 25.205L961.668 110.46L906.949 0L834.027 99.4197L761.051 0L706.332 110.46L617.307 25.205L582.677 143.528L480.08 75.1303L466.669 197.708L353.732 148.214L361.81 271.277L242.033 242.086L271.223 361.864L148.214 353.786L197.708 466.723L75.1303 480.134L143.528 582.677L25.205 617.307L110.46 706.332L0 761.051L99.4197 834.027L0 906.949L110.46 961.668L25.205 1050.69L143.528 1085.32L75.1303 1187.92L197.708 1201.33L148.214 1314.27L271.277 1306.19L242.086 1425.97L361.864 1396.78L353.786 1519.79L466.723 1470.29L480.134 1592.87L582.677 1524.47L617.307 1642.8L706.332 1557.54L761.051 1668L834.027 1568.58Z" fill="#FFD836"/>
</svg>
