<svg width="145" height="56" viewBox="0 0 145 56" fill="none" xmlns="http://www.w3.org/2000/svg">
<g clip-path="url(#clip0_736_5430)">
<path fill-rule="evenodd" clip-rule="evenodd" d="M139.653 25.9849V27.3589C138.281 26.1977 136.552 25.5442 134.755 25.5081C129.912 25.6535 126.061 29.6217 126.061 34.4671C126.061 39.3125 129.912 43.2807 134.755 43.4262C136.565 43.3917 138.303 42.7092 139.653 41.5026V43.014H144.502V25.9849H139.653ZM135.305 38.7789C133.571 38.7821 132.007 37.7406 131.341 36.1402C130.676 34.5399 131.04 32.6961 132.265 31.4693C133.489 30.2426 135.332 29.8746 136.934 30.5372C138.536 31.1997 139.58 32.7621 139.58 34.4954C139.585 36.8504 137.684 38.7656 135.329 38.7789H135.305Z" fill="white"/>
<path fill-rule="evenodd" clip-rule="evenodd" d="M60.8114 23.1562H53.5456V42.9897L48.0659 43.014V23.1562H40.792V18.2099H60.8114V23.1562Z" fill="white"/>
<path fill-rule="evenodd" clip-rule="evenodd" d="M119.965 17.725C121.129 17.7086 122.189 18.398 122.645 19.4697C123.101 20.5414 122.864 21.7827 122.045 22.6111C121.226 23.4394 119.988 23.6904 118.911 23.2462C117.834 22.802 117.133 21.7509 117.136 20.586C117.145 19.022 118.401 17.7513 119.965 17.725Z" fill="white"/>
<path d="M112.343 18.2099H107.251V43.014H112.343V18.2099Z" fill="white"/>
<path d="M122.543 25.9849H117.451V43.014H122.543V25.9849Z" fill="white"/>
<path fill-rule="evenodd" clip-rule="evenodd" d="M73.3793 25.5081C71.6628 25.4434 69.9745 25.9588 68.5866 26.9709V18.2341H63.4949V43.014H68.5866V33.4932C68.5866 31.6877 70.0503 30.224 71.8558 30.224C73.6614 30.224 75.1251 31.6877 75.1251 33.4932V43.014H80.225L80.2249 32.386C80.2335 30.5648 79.5161 28.8153 78.2313 27.5245C76.9466 26.2337 75.2005 25.508 73.3793 25.5081Z" fill="white"/>
<path fill-rule="evenodd" clip-rule="evenodd" d="M97.2863 25.9849V27.3589C95.9104 26.1943 94.1746 25.5405 92.3723 25.5081C89.1074 25.41 86.0476 27.0958 84.3862 29.9081C82.7248 32.7204 82.7248 36.2139 84.3862 39.0262C86.0476 41.8384 89.1074 43.5243 92.3723 43.4262C94.1924 43.3874 95.9374 42.6929 97.2863 41.4703V42.9817H102.136V25.9849H97.2863ZM92.9381 38.779C91.2048 38.7822 89.6404 37.7407 88.9749 36.1403C88.3093 34.5399 88.6738 32.6961 89.8982 31.4694C91.1227 30.2426 92.9657 29.8747 94.5674 30.5372C96.169 31.1997 97.2135 32.7622 97.2135 34.4954C97.2159 35.6307 96.7662 36.7203 95.9642 37.5238C95.1621 38.3274 94.0734 38.779 92.9381 38.779Z" fill="white"/>
<path d="M8.30189 25.8798C11.9227 26.0344 15.5328 25.3858 18.8733 23.9805C19.8301 23.5832 20.8066 23.2352 21.7991 22.938C25.0966 21.9196 25.7027 22.2025 25.7027 22.2025C25.436 21.3943 24.4015 21.3943 22.2112 21.8469C20.021 22.2995 18.938 22.9137 16.7558 23.1966C14.5736 23.4795 12.3834 21.5802 12.7147 19.3899C14.8687 19.9841 17.1648 19.7803 19.1804 18.8161C17.9681 18.8161 16.8851 18.3311 17.3781 16.545C19.7219 18.913 22.4537 15.7368 24.8864 13.7971C25.1593 13.5606 25.4513 13.347 25.7593 13.1586C26.0636 12.9522 26.392 12.7839 26.7372 12.6575L26.9878 12.5605C28.0435 12.1636 29.1659 11.9742 30.2934 12.0028C30.7874 11.9987 31.2694 12.1547 31.6673 12.4473C31.8086 12.5927 31.8691 12.7983 31.829 12.9969C32.9767 13.1586 33.8738 14.7103 33.8738 15.761C34.2931 16.1427 34.7477 16.4837 35.2316 16.7794C35.2962 16.8198 35.272 16.8521 35.2881 16.9168C35.2589 17.225 35.0889 17.5025 34.8275 17.6684C34.8275 17.6684 34.8275 17.7411 34.8275 17.8058C34.845 17.8287 34.867 17.848 34.8921 17.8624C35.3286 18.0078 35.1912 18.3635 34.9406 18.4604C35.049 18.4878 35.1331 18.5733 35.1587 18.6822C35.1842 18.791 35.1468 18.905 35.0618 18.9777C34.9891 19.0504 34.9244 19.1151 34.9325 19.1717C34.9325 19.3656 35.1912 19.3818 35.2801 19.7132C35.3988 20.0009 35.3093 20.3325 35.0618 20.5214C34.843 20.6791 34.58 20.7639 34.3102 20.7639C33.4534 20.7758 32.6158 21.0187 31.8856 21.467C31.4759 21.7511 31.1562 22.1465 30.9642 22.6066C30.9078 22.7837 30.8646 22.9647 30.8349 23.1481C30.7298 23.8079 30.7938 24.4836 31.0208 25.112V25.1686C31.6997 27.2538 30.6247 30.0906 27.5859 32.7577C25.9694 34.1964 20.7807 38.4152 21.8395 44C21.8395 44 10.2497 40.064 13.5229 35.5299C14.4928 34.1883 16.481 33.372 18.7925 32.2971L18.9703 32.2162C21.3949 31.0928 23.076 28.9834 22.1628 27.6741C21.9915 27.4038 21.6531 27.2921 21.3545 27.4074C18.8572 27.9812 12.0762 27.8438 8.26148 27.4074C7.85737 27.3589 7.45326 27.3266 7.13806 27.3104H6.65313C5.92352 27.3347 5.19911 27.1793 4.54369 26.8578C4.01608 26.5881 3.44843 26.4053 2.86261 26.3163C2.49891 26.2435 1.94933 26.2112 1.97357 25.9364C2.03015 25.2899 3.19398 25.8071 3.97794 25.7829C4.03452 25.7829 3.97794 25.6697 3.9052 25.6293C2.58744 25.125 1.45042 24.2385 0.640022 23.0834C0.510708 22.8571 0.7855 22.7197 0.866322 22.7925C2.54808 24.2376 4.57977 25.2158 6.7582 25.6293C7.02491 25.694 7.80079 25.8071 8.26956 25.8556" fill="white"/>
</g>
<defs>
<clipPath id="clip0_736_5430">
<rect width="143.896" height="32" fill="white" transform="translate(0.605957 12)"/>
</clipPath>
</defs>
</svg>
