<svg width="176" height="56" viewBox="0 0 176 56" fill="none" xmlns="http://www.w3.org/2000/svg">
<g clip-path="url(#clip0_736_5468)">
<path fill-rule="evenodd" clip-rule="evenodd" d="M0.813965 14.001H29.0143L25.4593 36.0408C25.745 37.1546 26.2183 37.6999 27.3552 37.6999C29.4414 37.6999 29.3462 34.927 30.913 26.3223C31.1237 25.1162 32.6184 16.4393 32.8059 14.001H39.4427L35.8877 36.0408C36.006 36.7275 36.0551 38.0549 37.7835 37.6999C41.0067 37.0363 42.5014 18.9526 43.4709 14.001H49.6315L48.9938 18.9526C47.4298 28.1488 47.476 41.9418 40.8652 41.9418H35.4145C32.7598 41.9418 33.5187 40.2105 31.8595 39.1198C30.8871 40.9925 29.1096 41.9418 28.0679 41.9418H23.5636C21.3129 41.9418 18.8255 40.6837 18.8255 38.4098V36.2775L21.9044 17.556H0.813965V14.001" fill="white"/>
<path fill-rule="evenodd" clip-rule="evenodd" d="M101.51 14.001H107.435C106.557 17.7926 107.056 16.3932 106.557 17.7927C103.36 17.3888 103.643 21.3477 103.643 21.3477H106.251C106.251 21.3477 105.824 24.6631 105.775 24.6631C105.256 24.7843 103.025 24.5709 102.861 24.8796C102.411 25.7308 100.325 39.9969 100.088 41.9417H94.1639L96.7695 24.8997L93.8061 24.8805C93.405 25.4461 92.4095 34.5008 90.8455 41.9426H84.9446L88.0004 25.0218C87.5041 24.8804 88.0004 24.8805 85.7035 24.8805C85.8911 22.699 86.1075 22.8173 86.2719 21.2533C87.5041 21.3716 87.6685 21.2534 87.9051 20.9937C88.4274 20.4714 88.4044 18.7892 88.7362 16.6077C92.5278 16.6077 94.3774 16.6077 94.8737 16.6077C94.3515 20.2579 94.3774 20.4483 94.1639 21.3486H97.0061C97.9324 20.5897 97.2918 14.0021 101.51 14.0021" fill="white"/>
<path fill-rule="evenodd" clip-rule="evenodd" d="M126.632 14.0008H132.556C132.556 14.0008 131.347 21.9159 130.187 28.9306C128.242 40.6834 127.887 41.9646 127.887 41.9646C124.924 41.9646 123.905 41.8694 122.128 41.9405L126.632 14" fill="white"/>
<path fill-rule="evenodd" clip-rule="evenodd" d="M135.638 14.0009H141.562C141.562 14.0009 141.299 16.6788 140.852 18.9757H134.925C134.925 18.9757 135.329 15.5418 135.638 14.0009" fill="white"/>
<path fill-rule="evenodd" clip-rule="evenodd" d="M73.8065 21.3475H81.153C83.1902 21.3475 84.659 23.503 84.708 24.4264C84.8263 26.276 84.4945 26.7982 84.708 28.2179H78.5474C78.5474 25.6584 78.7119 25.1391 76.8882 25.1391C75.229 25.1391 74.5163 26.5126 74.5163 27.5082C74.5163 28.7172 83.2854 30.9909 83.2854 35.3278C83.2854 37.5093 82.3159 41.9646 79.4476 41.9646H69.634C68.2605 41.9646 66.6965 40.092 66.6965 37.9365C66.6965 36.8919 66.6724 36.7274 66.6965 34.6181L72.7619 34.6642C72.5974 37.9594 73.2149 38.4096 74.7558 38.4096C76.0341 38.4096 77.1248 37.2699 77.1248 35.8012C77.1248 34.0727 68.3557 31.6315 68.3557 27.9813C68.3557 22.7441 71.247 21.3475 73.8065 21.3475Z" fill="white"/>
<path fill-rule="evenodd" clip-rule="evenodd" d="M140.376 21.3475L136.939 41.9646H131.252L134.452 21.3475H140.376Z" fill="white"/>
<path fill-rule="evenodd" clip-rule="evenodd" d="M55.6536 21.6071H63.0002C64.5642 21.6071 66.3157 23.1018 66.3157 25.3987C66.3157 25.5632 65.3231 32.0355 65.1327 32.7453H55.6536C54.7995 33.9544 54.5168 37.4604 54.5168 37.4604C54.5168 38.4328 56.0778 38.6693 56.6001 38.6693C58.5911 38.6693 58.7816 35.7318 59.2057 34.8777H64.8961C64.2324 37.2698 63.9957 41.9646 60.6312 41.9646H52.0987C50.9848 41.9646 48.5437 40.8278 48.5437 37.7229C48.5437 36.8226 50.9618 24.1435 51.386 23.5029C51.386 23.5029 53.0682 21.6071 55.6536 21.6071V21.6071ZM58.4959 25.3987C56.2683 25.3987 56.1269 29.6665 56.1269 29.6665L59.6818 29.6405C59.6328 28.3853 59.9185 28.5266 59.9185 27.0579C59.9185 26.4663 59.8944 25.3987 58.4959 25.3987Z" fill="white"/>
<path fill-rule="evenodd" clip-rule="evenodd" d="M110.753 21.3475H118.809C120.232 21.3475 121.891 22.5796 121.891 24.6629C121.891 25.0438 119.213 41.9646 118.668 41.9646L114.071 41.9405C113.572 41.8684 114.071 41.9406 114.071 40.5411H113.359C112.222 40.8499 111.203 41.9405 109.807 41.9405H106.252C105.397 41.9405 103.643 41.1586 103.643 39.1185C103.643 37.8402 103.952 31.4401 107.671 30.5889C111.512 29.7117 115.731 29.7578 115.731 26.0845C115.731 24.8986 113.858 24.6619 113.598 24.6619C111.939 24.6619 111.558 27.6486 111.226 28.217H105.776C105.776 28.217 106.252 21.3465 110.753 21.3465V21.3475ZM113.835 32.4828C113.053 33.0051 110.28 32.9127 110.28 36.7504C110.28 36.964 110.089 38.173 111.226 38.173C113.74 38.173 114.022 34.6412 114.545 32.4828H113.835" fill="white"/>
<path fill-rule="evenodd" clip-rule="evenodd" d="M147.486 21.3476H155.306C158.529 21.3476 158.719 23.6445 158.86 24.1899C158.86 24.1899 156.538 37.9105 156.491 38.6463H175.689V41.9417H149.858V40.7788C148.031 40.1642 147.959 42.2965 144.831 41.9647C141.634 41.6329 140.708 42.2966 140.139 39.5957C140.139 39.5957 140.234 31.2045 143.694 30.8265C147.131 30.4716 152.227 29.3578 152.227 26.3222C152.227 25.5893 151.586 24.663 150.331 24.663C148.363 24.663 148.172 27.3668 147.959 28.218H142.272V27.2715C142.557 26.3943 142.722 21.3476 147.486 21.3476V21.3476ZM147.725 38.4097C150.213 38.4097 150.804 35.1866 150.804 32.7224C148.386 32.9821 146.776 34.546 146.776 36.9871C146.776 37.2007 146.585 38.4097 147.725 38.4097" fill="white"/>
<path fill-rule="evenodd" clip-rule="evenodd" d="M166.68 17.175C167.416 17.2472 167.393 17.224 167.393 17.8877V21.4659C167.393 22.1065 167.417 22.1064 166.68 22.1756V22.3892H169.075V22.1756C168.339 22.1064 168.339 22.1065 168.339 21.4659V19.9942H169.052C169.999 21.3937 170.38 22.3892 170.853 22.3892H171.802V22.2709C171.516 22.0573 171.066 21.561 170.688 21.0128L169.834 19.8528C170.498 19.6161 170.994 19.0708 170.994 18.2888C170.994 17.3654 170.166 16.9384 169.289 16.9384H166.68V17.175ZM168.339 17.224H168.957C169.525 17.224 169.999 17.53 169.999 18.361C169.999 19.143 169.716 19.7114 168.98 19.7114H168.339V17.224ZM174.125 19.7577C174.125 22.5797 171.92 24.8535 169.098 24.8535C166.207 24.8535 164.002 22.5797 164.002 19.7577C164.002 16.9385 166.207 14.6415 169.098 14.6415C171.92 14.6415 174.125 16.9385 174.125 19.7577ZM173.317 19.7577C173.317 22.1296 171.421 24.2389 169.098 24.2389C166.68 24.2389 164.81 22.1296 164.81 19.7577C164.81 17.3655 166.68 15.2562 169.098 15.2562C171.467 15.2562 173.317 17.3655 173.317 19.7577Z" fill="white"/>
</g>
<defs>
<clipPath id="clip0_736_5468">
<rect width="174.875" height="28" fill="white" transform="translate(0.813965 14)"/>
</clipPath>
</defs>
</svg>
